STARTFONT 2.1
COMMENT
COMMENT Converted from OpenType font "Q:\font stuff\winfont\FreeSans.ttf" by "otf2bdf 3.0".
COMMENT
FONT -FreeType-FreeSans-Medium-R-Normal--72-720-72-72-P-396-ISO10646-1
SIZE 72 72 72
FONTBOUNDINGBOX 221 99 -84 -23
STARTPROPERTIES 19
FOUNDRY "FreeType"
FAMILY_NAME "FreeSans"
WEIGHT_NAME "Medium"
SLANT "R"
SETWIDTH_NAME "Normal"
ADD_STYLE_NAME ""
PIXEL_SIZE 72
POINT_SIZE 720
RESOLUTION_X 72
RESOLUTION_Y 72
SPACING "P"
AVERAGE_WIDTH 396
CHARSET_REGISTRY "ISO10646"
CHARSET_ENCODING "1"
FONT_ASCENT 64
FONT_DESCENT 14
COPYRIGHT "Copyright 2002, 2003, 2005, 2008, 2009, 2010, 2012 GNU Freefont contributors."
_OTF_FONTFILE "Q:\font stuff\winfont\FreeSans.ttf"
_OTF_PSNAME "FreeSans"
DEFAULT_CHAR 9633
ENDPROPERTIES
CHARS 4472
STARTCHAR 0020
ENCODING 32
SWIDTH 250 0
DWIDTH 18 0
BBX 0 0 0 0
BITMAP
ENDCHAR
STARTCHAR 0021
ENCODING 33
SWIDTH 333 0
DWIDTH 24 0
BBX 6 52 9 0
BITMAP
FC
FC
FC
FC
FC
FC
FC
FC
FC
FC
FC
FC
FC
FC
FC
FC
FC
FC
FC
FC
FC
FC
FC
FC
FC
FC
FC
FC
FC
7C
78
78
78
78
78
78
78
78
78
38
00
00
00
00
00
FC
FC
FC
FC
FC
FC
FC
ENDCHAR
STARTCHAR 0022
ENCODING 34
SWIDTH 333 0
DWIDTH 24 0
BBX 18 18 3 33
BITMAP
FE1FC0
FE1FC0
FE1FC0
FE1FC0
FE1FC0
FE1FC0
FE1FC0
FE1FC0
FE1FC0
FE1FC0
FE1FC0
7C0F80
7C0F80
7C0F80
7C0F80
3C0780
380700
380700
ENDCHAR
STARTCHAR 0023
ENCODING 35
SWIDTH 555 0
DWIDTH 40 0
BBX 38 51 1 -1
BITMAP
0003E00FC0
0003E00FC0
0003E00F80
0007E00F80
0007E00F80
0007C01F80
0007C01F80
0007C01F80
000FC01F00
000FC01F00
000FC01F00
000F803F00
000F803F00
001F803E00
1FFFFFFFFC
1FFFFFFFFC
1FFFFFFFFC
1FFFFFFFFC
1FFFFFFFFC
003F007C00
003F007C00
003E00FC00
003E00FC00
003E00FC00
007E00F800
007E00F800
007E00F800
007C01F800
007C01F800
007C01F000
00FC01F000
FFFFFFFFF0
FFFFFFFFF0
FFFFFFFFF0
FFFFFFFFF0
FFFFFFFFF0
01F803E000
01F803E000
01F007E000
01F007E000
03F007C000
03F007C000
03F007C000
03E00FC000
03E00FC000
03E00F8000
07E00F8000
07E00F8000
07C01F8000
07C01F8000
07C01F8000
ENDCHAR
STARTCHAR 0024
ENCODING 36
SWIDTH 555 0
DWIDTH 40 0
BBX 35 64 2 -9
BITMAP
0000F00000
0000F00000
0000F00000
0000F00000
0007FE0000
003FFFC000
00FFFFF000
03FFFFF800
07FFFFFC00
0FFCF1FE00
1FE0F07E00
1FC0F03F00
3F80F03F00
3F00F01F00
7F00F01F80
7E00F00F80
7E00F00F80
7E00F00F80
7E00F00000
7E00F00000
7F00F00000
7F00F00000
3F80F00000
3FC0F00000
3FF0F00000
1FFCF00000
0FFFF00000
07FFFE0000
01FFFFC000
007FFFF000
001FFFFC00
0003FFFE00
0000FFFF00
0000F3FF80
0000F0FFC0
0000F03FC0
0000F01FC0
0000F00FE0
0000F00FE0
0000F007E0
F800F007E0
F800F007E0
F800F007E0
FC00F007E0
FC00F007E0
7C00F00FE0
7E00F00FC0
7F00F00FC0
3F00F01FC0
3F80F03F80
1FE0F07F80
1FF8F3FF00
0FFFFFFE00
07FFFFFC00
01FFFFF800
007FFFE000
000FFF0000
0000F00000
0000F00000
0000F00000
0000F00000
0000F00000
0000F00000
0000F00000
ENDCHAR
STARTCHAR 0025
ENCODING 37
SWIDTH 888 0
DWIDTH 64 0
BBX 60 52 2 -2
BITMAP
00000000007C0000
00000000007C0000
007F000000F80000
03FFE00000F80000
07FFF00001F00000
0FFFF80001F00000
1FFFFC0003E00000
3FC1FE0003C00000
7F007F0007C00000
7E003F000F800000
7C001F000F800000
F8000F801F000000
F8000F801F000000
F8000F803E000000
F8000F803E000000
F8000F807C000000
F8000F807C000000
7C001F80F8000000
7E003F00F8000000
7F007F01F0000000
3FC1FE01E0000000
1FFFFC03E0000000
0FFFF807C0000000
07FFF007C0000000
03FFE00F80000000
007F000F80000000
0000001F00000000
0000001F00000000
0000003E000FE000
0000003E007FFC00
0000007C00FFFE00
0000007C01FFFF00
000000F803FFFF80
000000F007F83FC0
000001F00FE00FE0
000003E00FC007E0
000003E01F8003E0
000007C01F0003F0
000007C01F0001F0
00000F801F0001F0
00000F801F0001F0
00001F001F0001F0
00001F001F0001F0
00003E000F8003F0
00003E000FC007E0
00007C000FE00FE0
0000780007F83FC0
0000F80003FFFF80
0001F00001FFFF00
0001F00000FFFE00
0003E000007FFC00
0003E000000FE000
ENDCHAR
STARTCHAR 0026
ENCODING 38
SWIDTH 666 0
DWIDTH 48 0
BBX 42 53 4 -2
BITMAP
0001FC000000
0007FF000000
001FFF800000
003FFFC00000
007FFFE00000
007F07F00000
00FE03F00000
00FC01F00000
01F800F80000
01F800F80000
01F800F80000
01F800F80000
01F800F80000
01F800F80000
00FC01F80000
00FC01F00000
00FE03F00000
007F07E00000
003F1FE00000
003FBFC00000
001FFF800000
000FFE000000
0007FC000000
000FF8000000
003FF8000000
00FFF8000000
01FFFC000000
03FEFE00FC00
0FF87F00FC00
1FF03F00FC00
3FE03F81FC00
3FC01FC1F800
7F800FE1F800
7F0007E3F800
FF0007F7F800
FE0003FFF000
FE0001FFF000
FE0001FFE000
FE0000FFE000
FE00007FC000
FE00007FC000
FF00003FE000
FF00007FF000
7F8000FFF000
7FC003FFF800
7FE007FFFC00
3FF81FF3FE00
1FFFFFE1FF00
1FFFFFC0FF00
0FFFFF807F80
03FFFE003FC0
01FFF8000000
003FC0000000
ENDCHAR
STARTCHAR 0027
ENCODING 39
SWIDTH 194 0
DWIDTH 14 0
BBX 7 18 4 33
BITMAP
FE
FE
FE
FE
FE
FE
FE
FE
FE
FE
FE
7C
7C
7C
7C
3C
38
38
ENDCHAR
STARTCHAR 0028
ENCODING 40
SWIDTH 333 0
DWIDTH 24 0
BBX 16 68 5 -16
BITMAP
000F
001E
003C
007C
0078
00F8
00F0
01F0
01E0
03E0
03E0
07C0
07C0
0F80
0F80
1F80
1F00
1F00
3F00
3F00
3E00
3E00
7E00
7E00
7E00
7E00
7C00
FC00
FC00
FC00
FC00
FC00
FC00
FC00
FC00
FC00
FC00
FC00
FC00
FC00
FC00
7C00
7E00
7E00
7E00
7E00
3E00
3E00
3F00
1F00
1F00
1F80
0F80
0F80
0F80
07C0
07C0
03E0
03E0
01E0
01F0
00F0
00F8
0078
003C
003E
001E
000F
ENDCHAR
STARTCHAR 0029
ENCODING 41
SWIDTH 333 0
DWIDTH 24 0
BBX 16 68 3 -16
BITMAP
F000
7800
3C00
3E00
1E00
1F00
0F00
0F80
0780
07C0
07C0
03E0
03E0
01F0
01F0
01F0
00F8
00F8
00F8
00FC
007C
007C
007E
007E
007E
007E
003E
003F
003F
003F
003F
003F
003F
003F
003F
003F
003F
003F
003F
003F
003F
003E
007E
007E
007E
007E
007C
00FC
00FC
00F8
00F8
01F8
01F0
01F0
03F0
03E0
03E0
07C0
07C0
0F80
0F80
0F00
1F00
1E00
3C00
7C00
7800
F000
ENDCHAR
STARTCHAR 002A
ENCODING 42
SWIDTH 388 0
DWIDTH 28 0
BBX 22 21 3 31
BITMAP
007800
007800
007800
007800
007800
407808
707838
7E79F8
FFFFFC
FFFFFC
1FFFE0
03FF00
01FE00
01FE00
03FF00
07CF80
0FC7C0
1F87E0
1F03E0
0E01C0
020100
ENDCHAR
STARTCHAR 002B
ENCODING 43
SWIDTH 583 0
DWIDTH 42 0
BBX 33 34 5 -1
BITMAP
0003E00000
0003E00000
0003E00000
0003E00000
0003E00000
0003E00000
0003E00000
0003E00000
0003E00000
0003E00000
0003E00000
0003E00000
0003E00000
0003E00000
FFFFFFFF80
FFFFFFFF80
FFFFFFFF80
FFFFFFFF80
FFFFFFFF80
0003E00000
0003E00000
0003E00000
0003E00000
0003E00000
0003E00000
0003E00000
0003E00000
0003E00000
0003E00000
0003E00000
0003E00000
0003E00000
0003E00000
0003E00000
ENDCHAR
STARTCHAR 002C
ENCODING 44
SWIDTH 277 0
DWIDTH 20 0
BBX 7 18 6 -11
BITMAP
FE
FE
FE
FE
FE
FE
FE
1E
1E
1E
1E
1E
1E
3C
7C
F8
F0
E0
ENDCHAR
STARTCHAR 002D
ENCODING 45
SWIDTH 333 0
DWIDTH 24 0
BBX 17 5 3 17
BITMAP
FFFF80
FFFF80
FFFF80
FFFF80
FFFF80
ENDCHAR
STARTCHAR 002E
ENCODING 46
SWIDTH 250 0
DWIDTH 18 0
BBX 7 7 6 0
BITMAP
FE
FE
FE
FE
FE
FE
FE
ENDCHAR
STARTCHAR 002F
ENCODING 47
SWIDTH 277 0
DWIDTH 20 0
BBX 21 53 -1 -1
BITMAP
000078
000078
0000F0
0000F0
0000F0
0001E0
0001E0
0001E0
0003C0
0003C0
0003C0
000780
000780
000780
000F00
000F00
000F00
001E00
001E00
001E00
003C00
003C00
003C00
007800
007800
007800
007000
00F000
00F000
00F000
01E000
01E000
01E000
03C000
03C000
03C000
078000
078000
078000
0F0000
0F0000
0F0000
1E0000
1E0000
1E0000
3C0000
3C0000
3C0000
780000
780000
780000
F00000
F00000
ENDCHAR
STARTCHAR 0030
ENCODING 48
SWIDTH 555 0
DWIDTH 40 0
BBX 34 53 3 -2
BITMAP
0007F80000
003FFF0000
007FFFC000
01FFFFE000
03FFFFF000
07FFFFF800
07FC0FFC00
0FF003FC00
1FE001FE00
1FE000FE00
3FC000FF00
3F80007F00
3F80007F00
3F80007F00
7F00003F80
7F00003F80
7F00003F80
7F00003F80
7F00003F80
FE00001FC0
FE00001FC0
FE00001FC0
FE00001FC0
FE00001FC0
FE00001FC0
FE00001FC0
FE00001FC0
FE00001FC0
FE00001FC0
FE00001FC0
FE00001FC0
FE00001FC0
FE00001FC0
FE00001FC0
FE00001FC0
7E00003F80
7F00003F80
7F00003F80
7F00003F80
7F00003F80
3F80007F00
3F80007F00
3F80007F00
1FC000FE00
1FC000FE00
0FE001FC00
0FF003FC00
07FC0FF800
03FFFFF000
01FFFFE000
00FFFFC000
003FFF0000
0007F80000
ENDCHAR
STARTCHAR 0031
ENCODING 49
SWIDTH 555 0
DWIDTH 40 0
BBX 17 51 9 0
BITMAP
000780
000780
000F80
000F80
001F80
001F80
003F80
007F80
01FF80
1FFF80
FFFF80
FFFF80
FFFF80
FFFF80
FFFF80
003F80
003F80
003F80
003F80
003F80
003F80
003F80
003F80
003F80
003F80
003F80
003F80
003F80
003F80
003F80
003F80
003F80
003F80
003F80
003F80
003F80
003F80
003F80
003F80
003F80
003F80
003F80
003F80
003F80
003F80
003F80
003F80
003F80
003F80
003F80
003F80
ENDCHAR
STARTCHAR 0032
ENCODING 50
SWIDTH 555 0
DWIDTH 40 0
BBX 33 51 4 0
BITMAP
000FF80000
007FFF0000
01FFFFC000
07FFFFF000
0FFFFFF800
1FFFFFFC00
1FF80FFE00
3FE003FE00
3FC001FF00
7F8000FF00
7F80007F80
7F00007F80
FF00003F80
FE00003F80
FE00003F80
FE00003F80
FE00003F80
0000003F80
0000003F80
0000007F80
0000007F00
000000FF00
000001FE00
000003FE00
000007FC00
00000FF800
00003FF000
0000FFE000
0001FFC000
0007FF0000
001FFC0000
003FF80000
007FE00000
01FF800000
03FE000000
07FC000000
0FF0000000
0FE0000000
1FC0000000
3F80000000
3F00000000
3F00000000
7E00000000
7E00000000
7E00000000
7FFFFFFF80
FFFFFFFF80
FFFFFFFF80
FFFFFFFF80
FFFFFFFF80
FFFFFFFF80
ENDCHAR
STARTCHAR 0033
ENCODING 51
SWIDTH 555 0
DWIDTH 40 0
BBX 35 53 2 -2
BITMAP
000FFC0000
007FFF8000
01FFFFE000
03FFFFF000
07FFFFFC00
0FFFFFFC00
1FFC07FE00
1FE001FF00
3FC000FF00
3FC0007F00
3F80007F80
7F80003F80
7F00003F80
7F00003F80
7F00003F80
7F00003F80
0000003F80
0000003F80
0000007F00
000000FF00
000001FE00
00000FFC00
0003FFF800
0003FFF000
0003FFC000
0003FFF000
0003FFFC00
0003FFFE00
000003FF00
000000FF80
0000003FC0
0000003FC0
0000001FC0
0000001FE0
0000000FE0
0000000FE0
0000000FE0
FE00000FE0
FE00000FE0
FE00000FE0
FF00001FE0
7F00001FC0
7F00001FC0
7F80003FC0
3FC0007F80
3FE000FF80
1FF807FF00
1FFFFFFE00
0FFFFFFC00
07FFFFF800
01FFFFF000
007FFFC000
000FFC0000
ENDCHAR
STARTCHAR 0034
ENCODING 52
SWIDTH 555 0
DWIDTH 40 0
BBX 33 51 4 0
BITMAP
000007E000
000007E000
00000FE000
00001FE000
00001FE000
00003FE000
00007FE000
00007FE000
0000FFE000
0001FFE000
0001FFE000
0003EFE000
0007EFE000
0007CFE000
000F8FE000
001F8FE000
001F0FE000
003E0FE000
007C0FE000
007C0FE000
00F80FE000
01F00FE000
03F00FE000
03E00FE000
07C00FE000
0F800FE000
0F800FE000
1F000FE000
3E000FE000
3E000FE000
7C000FE000
F8000FE000
F0000FE000
FFFFFFFF80
FFFFFFFF80
FFFFFFFF80
FFFFFFFF80
FFFFFFFF80
FFFFFFFF80
00000FE000
00000FE000
00000FE000
00000FE000
00000FE000
00000FE000
00000FE000
00000FE000
00000FE000
00000FE000
00000FE000
00000FE000
ENDCHAR
STARTCHAR 0035
ENCODING 53
SWIDTH 555 0
DWIDTH 40 0
BBX 34 53 3 -2
BITMAP
07FFFFFE00
07FFFFFE00
0FFFFFFE00
0FFFFFFE00
0FFFFFFE00
0FFFFFFE00
0FC0000000
0FC0000000
0FC0000000
1FC0000000
1F80000000
1F80000000
1F80000000
1F80000000
1F80000000
1F80000000
1F80000000
3F83FC0000
3F1FFF8000
3F7FFFC000
3FFFFFF000
3FFFFFF800
3FFFFFFC00
3FF00FFE00
7FC003FE00
7F8001FF00
7F0000FF00
0000007F80
0000003F80
0000003F80
0000003FC0
0000001FC0
0000001FC0
0000001FC0
0000001FC0
0000001FC0
0000001FC0
0000001FC0
0000001FC0
FC00003F80
FC00003F80
FE00003F80
7E00007F00
7F0000FF00
7F8001FF00
3FC003FE00
3FF80FFC00
1FFFFFF800
0FFFFFF000
07FFFFE000
03FFFFC000
00FFFF0000
000FF80000
ENDCHAR
STARTCHAR 0036
ENCODING 54
SWIDTH 555 0
DWIDTH 40 0
BBX 34 53 3 -2
BITMAP
0003FC0000
001FFF8000
007FFFE000
00FFFFF000
01FFFFF800
03FFFFFC00
07FE07FE00
0FF801FE00
0FE000FF00
1FE0007F00
1FC0007F00
1F80003F80
3F80003F80
3F00000000
3F00000000
7F00000000
7E00000000
7E00000000
7E00000000
7E03FC0000
FE0FFF8000
FE3FFFE000
FE7FFFF000
FEFFFFF800
FFFFFFFC00
FFFC07FE00
FFF001FF00
FFC000FF00
FF80007F80
FF80007F80
FF00003F80
FF00003FC0
FE00001FC0
FE00001FC0
FE00001FC0
FE00001FC0
7E00001FC0
7E00001FC0
7E00001FC0
7E00001FC0
7F00003F80
3F00003F80
3F80007F80
1FC0007F00
1FE000FF00
1FF003FE00
0FFC0FFE00
07FFFFFC00
03FFFFF800
01FFFFF000
00FFFFC000
003FFF0000
0007F80000
ENDCHAR
STARTCHAR 0037
ENCODING 55
SWIDTH 555 0
DWIDTH 40 0
BBX 34 51 3 0
BITMAP
FFFFFFFFC0
FFFFFFFFC0
FFFFFFFFC0
FFFFFFFFC0
FFFFFFFFC0
FFFFFFFFC0
0000001F80
0000001F00
0000003F00
0000007E00
0000007C00
000000FC00
000001F800
000001F000
000003F000
000007E000
000007E000
00000FC000
00000F8000
00001F8000
00003F0000
00003F0000
00007E0000
00007E0000
0000FC0000
0000FC0000
0001F80000
0001F80000
0003F80000
0003F00000
0007F00000
0007E00000
0007E00000
000FE00000
000FC00000
001FC00000
001F800000
001F800000
003F800000
003F800000
003F000000
007F000000
007F000000
007F000000
007E000000
00FE000000
00FE000000
00FE000000
00FC000000
01FC000000
01FC000000
ENDCHAR
STARTCHAR 0038
ENCODING 56
SWIDTH 555 0
DWIDTH 40 0
BBX 34 53 3 -2
BITMAP
0007F80000
003FFF0000
00FFFFC000
01FFFFE000
03FFFFF000
07FFFFF800
0FFC0FFC00
1FF003FE00
1FE001FE00
1FC000FE00
3FC000FF00
3F80007F00
3F80007F00
3F80007F00
3F80007F00
3F80007F00
3F8000FF00
1FC000FE00
1FE001FE00
0FF003FC00
07FC0FF800
03FFFFF000
01FFFFE000
007FFF8000
00FFFFC000
03FFFFF000
07FFFFF800
0FFC0FFC00
1FE003FE00
3FC000FF00
3F80007F00
7F00003F80
7F00003F80
FF00003FC0
FE00001FC0
FE00001FC0
FE00001FC0
FE00001FC0
FE00001FC0
FE00001FC0
FE00003FC0
7F00003F80
7F00003F80
7F80007F80
3FC000FF00
3FE001FF00
1FF80FFE00
0FFFFFFC00
07FFFFF800
03FFFFF000
00FFFFC000
003FFF0000
0007F80000
ENDCHAR
STARTCHAR 0039
ENCODING 57
SWIDTH 555 0
DWIDTH 40 0
BBX 34 53 3 -2
BITMAP
0007F80000
003FFF0000
00FFFFC000
03FFFFE000
07FFFFF000
0FFFFFF800
1FFC0FFC00
1FF003FC00
3FC001FE00
3F8000FE00
7F80007F00
7F00003F00
7F00003F00
FE00003F80
FE00001F80
FE00001F80
FE00001F80
FE00001F80
FE00001FC0
FE00001FC0
FE00001FC0
FF00003FC0
7F00003FC0
7F00007FC0
7F80007FC0
3FC000FFC0
3FE003FFC0
1FF80FFFC0
0FFFFFFFC0
07FFFFDFC0
03FFFF9FC0
01FFFF1FC0
007FFC1FC0
000FF01F80
0000001F80
0000001F80
0000003F80
0000003F80
0000003F00
0000003F00
7F00007F00
7F00007E00
3F8000FE00
3F8001FE00
3FC001FC00
1FE007FC00
1FF81FF800
0FFFFFF000
07FFFFE000
03FFFFC000
01FFFF8000
007FFE0000
000FF00000
ENDCHAR
STARTCHAR 003A
ENCODING 58
SWIDTH 250 0
DWIDTH 18 0
BBX 7 38 6 0
BITMAP
FE
FE
FE
FE
FE
FE
FE
FE
00
00
00
00
00
00
00
00
00
00
00
00
00
00
00
00
00
00
00
00
00
00
00
FE
FE
FE
FE
FE
FE
FE
ENDCHAR
STARTCHAR 003B
ENCODING 59
SWIDTH 250 0
DWIDTH 18 0
BBX 7 48 6 -11
BITMAP
FE
FE
FE
FE
FE
FE
FE
00
00
00
00
00
00
00
00
00
00
00
00
00
00
00
00
00
00
00
00
00
00
00
FE
FE
FE
FE
FE
FE
FE
1E
1E
1E
1E
1E
1E
3C
7C
F8
F0
E0
ENDCHAR
STARTCHAR 003C
ENCODING 60
SWIDTH 583 0
DWIDTH 42 0
BBX 35 34 3 0
BITMAP
00000000E0
00000003E0
0000000FE0
0000007FE0
000001FFE0
000007FFC0
00003FFF00
0000FFF800
0003FFE000
001FFF0000
007FFC0000
03FFE00000
0FFF800000
3FFC000000
FFF0000000
FFC0000000
FE00000000
FF80000000
FFF0000000
7FFC000000
0FFF800000
03FFE00000
00FFF80000
001FFF0000
0007FFC000
0001FFF800
00003FFE00
00000FFF80
000003FFE0
0000007FE0
0000001FE0
00000003E0
00000000E0
0000000020
ENDCHAR
STARTCHAR 003D
ENCODING 61
SWIDTH 583 0
DWIDTH 42 0
BBX 34 17 4 8
BITMAP
FFFFFFFFC0
FFFFFFFFC0
FFFFFFFFC0
FFFFFFFFC0
FFFFFFFFC0
0000000000
0000000000
0000000000
0000000000
0000000000
0000000000
0000000000
FFFFFFFFC0
FFFFFFFFC0
FFFFFFFFC0
FFFFFFFFC0
FFFFFFFFC0
ENDCHAR
STARTCHAR 003E
ENCODING 62
SWIDTH 583 0
DWIDTH 42 0
BBX 35 34 4 0
BITMAP
E000000000
F800000000
FE00000000
FFC0000000
FFF0000000
7FFC000000
1FFF800000
03FFE00000
00FFF80000
001FFF0000
0007FFC000
0001FFF800
00003FFE00
00000FFF80
000001FFE0
0000007FE0
0000001FE0
0000003FE0
000000FFE0
000007FFC0
00001FFF00
0000FFF800
0003FFE000
001FFF0000
007FFC0000
03FFF00000
0FFF800000
3FFE000000
FFF8000000
FFC0000000
FF00000000
FC00000000
E000000000
8000000000
ENDCHAR
STARTCHAR 003F
ENCODING 63
SWIDTH 555 0
DWIDTH 40 0
BBX 31 53 6 0
BITMAP
001FF800
00FFFF00
03FFFF80
07FFFFE0
0FFFFFF0
1FFFFFF0
3FF01FF8
3FC007FC
7F8003FC
7F0001FC
7F0001FE
FF0000FE
FE0000FE
FE0000FE
FE0000FE
FE0000FE
000000FE
000001FE
000001FC
000001FC
000003FC
000007F8
000007F0
00000FF0
00001FE0
00003FC0
00007F00
0000FE00
0001FC00
0003F800
0007F800
0007F000
000FF000
000FE000
000FE000
000FE000
000FE000
000FE000
000FE000
00000000
00000000
00000000
00000000
00000000
00000000
00000000
000FE000
000FE000
000FE000
000FE000
000FE000
000FE000
000FE000
ENDCHAR
STARTCHAR 0040
ENCODING 64
SWIDTH 1013 0
DWIDTH 73 0
BBX 67 63 2 -10
BITMAP
00000003FFC0000000
0000003FFFFC000000
000001FFFFFF800000
00000FFFFFFFE00000
00001FFFFFFFF80000
00007FFFFFFFFE0000
0001FFFC00FFFF0000
0003FFC0000FFF8000
0007FF000001FFE000
001FFC0000007FF000
003FF00000003FF800
007FE00000000FF800
00FF8000000007FC00
00FF0000000003FE00
01FE0000000001FF00
03FC0000FE0000FF00
07F80007FF8000FF80
07F0001FFFC3F07F80
0FF0003FFFE7E03FC0
0FE000FFFFE7E03FC0
1FC001FF83F7E01FC0
1FC003FE00FFC01FC0
3F8003F8007FC01FE0
3F8007F0007FC00FE0
3F800FF0003F800FE0
7F000FE0003F800FE0
7F001FC0003F800FE0
7F001FC0003F000FE0
7E003F80003F000FE0
FE003F80003F000FE0
FE003F80003F000FE0
FE007F00007E000FE0
FE007F00007E001FC0
FE007F00007E001FC0
FE007F0000FC001FC0
FE007F0000FC003F80
FE007F0000FC003F80
FE007F0001F8007F80
FF007F0003F8007F00
FF007F8003F800FF00
7F003F8007F801FE00
7F003FC00FF803FC00
7F801FE01FF807FC00
3F801FF87FFC1FF800
3FC00FFFFDFFFFF000
1FE007FFF8FFFFE000
1FE003FFF0FFFF8000
0FF001FFE07FFF0000
0FF8003F001FF80000
07FC00000000000000
03FE00000000000000
03FF00000000000000
01FFC0000000000000
00FFE0000000000000
007FF8000000000000
001FFF000007000000
000FFFF000FF000000
0003FFFFFFFF800000
0001FFFFFFFF800000
00007FFFFFFF800000
00000FFFFFFF000000
000001FFFFF0000000
0000001FFF00000000
ENDCHAR
STARTCHAR 0041
ENCODING 65
SWIDTH 666 0
DWIDTH 48 0
BBX 46 52 1 0
BITMAP
00001FF00000
00003FF00000
00003FF00000
00003FF80000
00007FF80000
00007FF80000
0000FFFC0000
0000FFFC0000
0000FEFC0000
0001FCFE0000
0001FCFE0000
0001FC7F0000
0003F87F0000
0003F87F0000
0003F03F8000
0007F03F8000
0007F03F8000
000FE01FC000
000FE01FC000
000FE01FC000
001FC00FE000
001FC00FE000
001FC00FE000
003F8007F000
003F8007F000
003F0007F000
007F0003F800
007F0003F800
007E0003FC00
00FE0001FC00
00FE0001FC00
01FFFFFFFE00
01FFFFFFFE00
01FFFFFFFE00
03FFFFFFFF00
03FFFFFFFF00
03FFFFFFFF00
07F800007F80
07F000003F80
07F000003F80
0FE000003FC0
0FE000001FC0
1FE000001FE0
1FC000001FE0
1FC000000FE0
3FC000000FF0
3F8000000FF0
3F80000007F0
7F80000007F8
7F00000007F8
7F00000003F8
FE00000003FC
ENDCHAR
STARTCHAR 0042
ENCODING 66
SWIDTH 666 0
DWIDTH 48 0
BBX 39 52 6 0
BITMAP
FFFFFFC000
FFFFFFFC00
FFFFFFFE00
FFFFFFFF80
FFFFFFFFC0
FFFFFFFFE0
FE0000FFE0
FE00001FF0
FE00000FF0
FE000007F0
FE000007F8
FE000003F8
FE000003F8
FE000003F8
FE000003F8
FE000003F8
FE000003F8
FE000007F0
FE000007F0
FE00000FE0
FE00001FE0
FE0000FFC0
FFFFFFFF00
FFFFFFFE00
FFFFFFFC00
FFFFFFFF00
FFFFFFFFC0
FFFFFFFFE0
FE00003FF0
FE00000FF8
FE000003FC
FE000003FC
FE000001FC
FE000001FE
FE000000FE
FE000000FE
FE000000FE
FE000000FE
FE000000FE
FE000000FE
FE000001FE
FE000001FC
FE000003FC
FE000003FC
FE00000FF8
FE00003FF8
FFFFFFFFF0
FFFFFFFFE0
FFFFFFFFC0
FFFFFFFF80
FFFFFFFE00
FFFFFFF000
ENDCHAR
STARTCHAR 0043
ENCODING 67
SWIDTH 708 0
DWIDTH 51 0
BBX 45 55 3 -2
BITMAP
00001FF80000
0001FFFF8000
0007FFFFE000
001FFFFFF000
007FFFFFFC00
00FFFFFFFE00
01FFE00FFF00
03FF0001FF00
03FE0000FF80
07F800007FC0
0FF000003FC0
0FF000001FC0
1FE000001FE0
1FC000000FE0
3FC000000FE0
3F80000007F0
3F80000007F0
7F0000000000
7F0000000000
7F0000000000
7F0000000000
FE0000000000
FE0000000000
FE0000000000
FE0000000000
FE0000000000
FE0000000000
FE0000000000
FE0000000000
FE0000000000
FE0000000000
FE0000000000
FE0000000000
FE0000000000
7F0000000000
7F00000003F8
7F00000003F8
7F00000007F8
3F80000007F0
3F80000007F0
3FC0000007F0
1FC000000FF0
1FE000000FE0
0FF000001FE0
0FF800003FC0
07FC00007FC0
07FE0000FF80
03FF8001FF80
01FFE00FFF00
00FFFFFFFE00
007FFFFFFC00
001FFFFFF800
000FFFFFE000
0001FFFF8000
00003FF80000
ENDCHAR
STARTCHAR 0044
ENCODING 68
SWIDTH 694 0
DWIDTH 50 0
BBX 42 52 6 0
BITMAP
FFFFFF800000
FFFFFFF80000
FFFFFFFE0000
FFFFFFFF0000
FFFFFFFFC000
FFFFFFFFE000
FE0000FFF000
FE00003FF800
FE00000FF800
FE000007FC00
FE000003FE00
FE000001FE00
FE000000FF00
FE000000FF00
FE0000007F00
FE0000007F80
FE0000003F80
FE0000003F80
FE0000003F80
FE0000003FC0
FE0000001FC0
FE0000001FC0
FE0000001FC0
FE0000001FC0
FE0000001FC0
FE0000001FC0
FE0000001FC0
FE0000001FC0
FE0000001FC0
FE0000001FC0
FE0000001FC0
FE0000001FC0
FE0000003FC0
FE0000003F80
FE0000003F80
FE0000003F80
FE0000007F80
FE0000007F00
FE0000007F00
FE000000FF00
FE000001FE00
FE000003FE00
FE000007FC00
FE00000FF800
FE00001FF800
FE0000FFF000
FFFFFFFFE000
FFFFFFFFC000
FFFFFFFF0000
FFFFFFFE0000
FFFFFFF80000
FFFFFF800000
ENDCHAR
STARTCHAR 0045
ENCODING 69
SWIDTH 638 0
DWIDTH 46 0
BBX 37 52 6 0
BITMAP
FFFFFFFFF0
FFFFFFFFF0
FFFFFFFFF0
FFFFFFFFF0
FFFFFFFFF0
FFFFFFFFF0
FE00000000
FE00000000
FE00000000
FE00000000
FE00000000
FE00000000
FE00000000
FE00000000
FE00000000
FE00000000
FE00000000
FE00000000
FE00000000
FE00000000
FE00000000
FE00000000
FFFFFFFFE0
FFFFFFFFE0
FFFFFFFFE0
FFFFFFFFE0
FFFFFFFFE0
FFFFFFFFE0
FE00000000
FE00000000
FE00000000
FE00000000
FE00000000
FE00000000
FE00000000
FE00000000
FE00000000
FE00000000
FE00000000
FE00000000
FE00000000
FE00000000
FE00000000
FE00000000
FE00000000
FE00000000
FFFFFFFFF8
FFFFFFFFF8
FFFFFFFFF8
FFFFFFFFF8
FFFFFFFFF8
FFFFFFFFF8
ENDCHAR
STARTCHAR 0046
ENCODING 70
SWIDTH 597 0
DWIDTH 43 0
BBX 35 52 6 0
BITMAP
FFFFFFFFE0
FFFFFFFFE0
FFFFFFFFE0
FFFFFFFFE0
FFFFFFFFE0
FFFFFFFFE0
FE00000000
FE00000000
FE00000000
FE00000000
FE00000000
FE00000000
FE00000000
FE00000000
FE00000000
FE00000000
FE00000000
FE00000000
FE00000000
FE00000000
FE00000000
FE00000000
FFFFFFFE00
FFFFFFFE00
FFFFFFFE00
FFFFFFFE00
FFFFFFFE00
FFFFFFFE00
FE00000000
FE00000000
FE00000000
FE00000000
FE00000000
FE00000000
FE00000000
FE00000000
FE00000000
FE00000000
FE00000000
FE00000000
FE00000000
FE00000000
FE00000000
FE00000000
FE00000000
FE00000000
FE00000000
FE00000000
FE00000000
FE00000000
FE00000000
FE00000000
ENDCHAR
STARTCHAR 0047
ENCODING 71
SWIDTH 763 0
DWIDTH 55 0
BBX 48 55 3 -2
BITMAP
00000FFE0000
0000FFFFE000
0003FFFFF800
000FFFFFFE00
003FFFFFFF00
007FFFFFFF80
00FFF803FFC0
01FFC0007FE0
03FF00001FF0
07FC00000FF8
07F8000007F8
0FF0000003FC
0FF0000001FC
1FE0000001FC
1FC0000000FE
3FC0000000FE
3F8000000000
3F8000000000
7F0000000000
7F0000000000
7F0000000000
7F0000000000
FE0000000000
FE0000000000
FE0000000000
FE0000000000
FE00001FFFFF
FE00001FFFFF
FE00001FFFFF
FE00001FFFFF
FE00001FFFFF
FE00001FFFFF
FE000000003F
FF000000003F
7F000000003F
7F000000003F
7F000000003F
7F800000003F
3F800000007F
3FC00000007F
3FC0000000FF
1FE0000000FF
1FE0000001FF
0FF0000003FF
0FF8000007FF
07FC00000FFF
03FF00001FFF
01FFC0007FBF
00FFF803FF1F
007FFFFFFE1F
003FFFFFFC1F
001FFFFFF00F
0007FFFFE00F
0001FFFF0000
00001FF80000
ENDCHAR
STARTCHAR 0048
ENCODING 72
SWIDTH 722 0
DWIDTH 52 0
BBX 40 52 6 0
BITMAP
FE0000007F
FE0000007F
FE0000007F
FE0000007F
FE0000007F
FE0000007F
FE0000007F
FE0000007F
FE0000007F
FE0000007F
FE0000007F
FE0000007F
FE0000007F
FE0000007F
FE0000007F
FE0000007F
FE0000007F
FE0000007F
FE0000007F
FE0000007F
FE0000007F
FE0000007F
FFFFFFFFFF
FFFFFFFFFF
FFFFFFFFFF
FFFFFFFFFF
FFFFFFFFFF
FFFFFFFFFF
FE0000007F
FE0000007F
FE0000007F
FE0000007F
FE0000007F
FE0000007F
FE0000007F
FE0000007F
FE0000007F
FE0000007F
FE0000007F
FE0000007F
FE0000007F
FE0000007F
FE0000007F
FE0000007F
FE0000007F
FE0000007F
FE0000007F
FE0000007F
FE0000007F
FE0000007F
FE0000007F
FE0000007F
ENDCHAR
STARTCHAR 0049
ENCODING 73
SWIDTH 277 0
DWIDTH 20 0
BBX 7 52 7 0
BITMAP
FE
FE
FE
FE
FE
FE
FE
FE
FE
FE
FE
FE
FE
FE
FE
FE
FE
FE
FE
FE
FE
FE
FE
FE
FE
FE
FE
FE
FE
FE
FE
FE
FE
FE
FE
FE
FE
FE
FE
FE
FE
FE
FE
FE
FE
FE
FE
FE
FE
FE
FE
FE
ENDCHAR
STARTCHAR 004A
ENCODING 74
SWIDTH 527 0
DWIDTH 38 0
BBX 29 54 3 -2
BITMAP
000003F8
000003F8
000003F8
000003F8
000003F8
000003F8
000003F8
000003F8
000003F8
000003F8
000003F8
000003F8
000003F8
000003F8
000003F8
000003F8
000003F8
000003F8
000003F8
000003F8
000003F8
000003F8
000003F8
000003F8
000003F8
000003F8
000003F8
000003F8
000003F8
000003F8
000003F8
000003F8
000003F8
000003F8
000003F8
000003F8
FE0003F8
FE0003F8
FE0003F8
FE0003F8
FE0003F8
FE0003F8
FE0007F8
FF0007F8
FF0007F0
7F800FF0
7FC01FF0
3FE07FE0
3FFFFFC0
1FFFFFC0
0FFFFF80
07FFFE00
01FFFC00
003FE000
ENDCHAR
STARTCHAR 004B
ENCODING 75
SWIDTH 680 0
DWIDTH 49 0
BBX 42 52 6 0
BITMAP
FE0000007F80
FE000000FF00
FE000001FE00
FE000003FC00
FE000007F800
FE00000FF000
FE00001FE000
FE00003FC000
FE00007F8000
FE0000FF0000
FE0001FE0000
FE0003FC0000
FE0007F80000
FE000FF00000
FE001FE00000
FE003FC00000
FE007F800000
FE00FF000000
FE01FE000000
FE03FC000000
FE07F8000000
FE0FF8000000
FE1FF8000000
FE3FFC000000
FE7FFE000000
FEFEFE000000
FFFCFF000000
FFF87F800000
FFF03FC00000
FFE03FC00000
FFC01FE00000
FF800FF00000
FF0007F00000
FE0007F80000
FE0003FC0000
FE0001FC0000
FE0001FE0000
FE0000FF0000
FE00007F8000
FE00007F8000
FE00003FC000
FE00001FE000
FE00001FE000
FE00000FF000
FE000007F800
FE000003F800
FE000003FC00
FE000001FE00
FE000000FF00
FE000000FF00
FE0000007F80
FE0000003FC0
ENDCHAR
STARTCHAR 004C
ENCODING 76
SWIDTH 569 0
DWIDTH 41 0
BBX 32 52 6 0
BITMAP
FE000000
FE000000
FE000000
FE000000
FE000000
FE000000
FE000000
FE000000
FE000000
FE000000
FE000000
FE000000
FE000000
FE000000
FE000000
FE000000
FE000000
FE000000
FE000000
FE000000
FE000000
FE000000
FE000000
FE000000
FE000000
FE000000
FE000000
FE000000
FE000000
FE000000
FE000000
FE000000
FE000000
FE000000
FE000000
FE000000
FE000000
FE000000
FE000000
FE000000
FE000000
FE000000
FE000000
FE000000
FE000000
FE000000
FFFFFFFF
FFFFFFFF
FFFFFFFF
FFFFFFFF
FFFFFFFF
FFFFFFFF
ENDCHAR
STARTCHAR 004D
ENCODING 77
SWIDTH 847 0
DWIDTH 61 0
BBX 50 52 6 0
BITMAP
FFC0000000FFC0
FFC0000000FFC0
FFE0000001FFC0
FFE0000001FFC0
FFE0000001FFC0
FFF0000003FFC0
FFF0000003FFC0
FFF0000003FFC0
FFF8000007FFC0
FFF8000007FFC0
FEF8000007DFC0
FEFC00000FDFC0
FEFC00000FDFC0
FE7C00000F9FC0
FE7E00001F9FC0
FE7E00001F9FC0
FE3E00001F1FC0
FE3F00003F1FC0
FE3F00003F1FC0
FE1F00003E1FC0
FE1F80007E1FC0
FE1F80007E1FC0
FE0F80007C1FC0
FE0FC000FC1FC0
FE0FC000FC1FC0
FE07C000F81FC0
FE07E001F81FC0
FE07E001F81FC0
FE03E001F01FC0
FE03F003F01FC0
FE03F003F01FC0
FE01F003E01FC0
FE01F807E01FC0
FE01F807E01FC0
FE00FC07C01FC0
FE00FC0FC01FC0
FE00FC0FC01FC0
FE007E0F801FC0
FE007E1F801FC0
FE007E1F801FC0
FE003F1F001FC0
FE003F3F001FC0
FE003F3F001FC0
FE001FBE001FC0
FE001FFE001FC0
FE001FFE001FC0
FE000FFC001FC0
FE000FFC001FC0
FE000FFC001FC0
FE0007F8001FC0
FE0007F8001FC0
FE0007F8001FC0
ENDCHAR
STARTCHAR 004E
ENCODING 78
SWIDTH 736 0
DWIDTH 53 0
BBX 41 52 6 0
BITMAP
FF0000003F80
FF8000003F80
FF8000003F80
FFC000003F80
FFE000003F80
FFE000003F80
FFF000003F80
FFF800003F80
FFF800003F80
FFFC00003F80
FFFC00003F80
FEFE00003F80
FE7F00003F80
FE7F00003F80
FE3F80003F80
FE3F80003F80
FE1FC0003F80
FE0FE0003F80
FE0FE0003F80
FE07F0003F80
FE03F0003F80
FE03F8003F80
FE01FC003F80
FE01FC003F80
FE00FE003F80
FE007F003F80
FE007F003F80
FE003F803F80
FE003F803F80
FE001FC03F80
FE000FE03F80
FE000FE03F80
FE0007F03F80
FE0007F03F80
FE0003F83F80
FE0001FC3F80
FE0001FC3F80
FE0000FE3F80
FE00007F3F80
FE00007F3F80
FE00003FBF80
FE00003FBF80
FE00001FFF80
FE00000FFF80
FE00000FFF80
FE000007FF80
FE000007FF80
FE000003FF80
FE000001FF80
FE000001FF80
FE000000FF80
FE0000007F80
ENDCHAR
STARTCHAR 004F
ENCODING 79
SWIDTH 777 0
DWIDTH 56 0
BBX 51 55 3 -2
BITMAP
00000FFE000000
0000FFFFE00000
0003FFFFF80000
000FFFFFFE0000
001FFFFFFF0000
007FFFFFFFC000
00FFF803FFE000
01FFC0007FF000
03FF00001FF800
07FE00000FFC00
07F8000007FC00
0FF0000003FE00
1FF0000001FE00
1FE0000000FF00
3FC00000007F00
3FC00000007F80
3F800000003F80
7F800000003FC0
7F000000001FC0
7F000000001FC0
7F000000001FC0
FF000000001FC0
FE000000000FE0
FE000000000FE0
FE000000000FE0
FE000000000FE0
FE000000000FE0
FE000000000FE0
FE000000000FE0
FE000000000FE0
FE000000000FE0
FE000000000FE0
FE000000000FE0
FF000000001FE0
7F000000001FC0
7F000000001FC0
7F000000001FC0
7F800000003FC0
3F800000003F80
3FC00000007F80
3FC00000007F00
1FE0000000FF00
1FF0000001FE00
0FF0000001FE00
07F8000003FC00
07FE00000FFC00
03FF00001FF800
01FFC0007FF000
00FFF803FFE000
007FFFFFFFC000
003FFFFFFF8000
000FFFFFFE0000
0003FFFFF80000
0000FFFFE00000
00000FFE000000
ENDCHAR
STARTCHAR 0050
ENCODING 80
SWIDTH 652 0
DWIDTH 47 0
BBX 38 52 6 0
BITMAP
FFFFFFE000
FFFFFFFC00
FFFFFFFF00
FFFFFFFF80
FFFFFFFFC0
FFFFFFFFE0
FE00007FF0
FE00001FF0
FE00000FF8
FE000007F8
FE000003F8
FE000003FC
FE000001FC
FE000001FC
FE000001FC
FE000001FC
FE000001FC
FE000001FC
FE000003FC
FE000003FC
FE000007F8
FE00000FF8
FE00001FF0
FE00007FF0
FFFFFFFFE0
FFFFFFFFC0
FFFFFFFF80
FFFFFFFF00
FFFFFFFC00
FFFFFFF000
FE00000000
FE00000000
FE00000000
FE00000000
FE00000000
FE00000000
FE00000000
FE00000000
FE00000000
FE00000000
FE00000000
FE00000000
FE00000000
FE00000000
FE00000000
FE00000000
FE00000000
FE00000000
FE00000000
FE00000000
FE00000000
FE00000000
ENDCHAR
STARTCHAR 0051
ENCODING 81
SWIDTH 777 0
DWIDTH 56 0
BBX 51 57 3 -5
BITMAP
00000FFE000000
0000FFFFE00000
0003FFFFF80000
000FFFFFFE0000
001FFFFFFF0000
007FFFFFFFC000
00FFF803FFE000
01FFC0007FF000
03FF00001FF800
07FE00000FFC00
07F8000007FC00
0FF8000003FE00
1FF0000001FE00
1FE0000000FF00
3FC00000007F00
3FC00000007F80
3F800000003F80
7F800000003FC0
7F000000001FC0
7F000000001FC0
7F000000001FC0
FF000000001FE0
FE000000000FE0
FE000000000FE0
FE000000000FE0
FE000000000FE0
FE000000000FE0
FE000000000FE0
FE000000000FE0
FE000000000FE0
FE000000000FE0
FE000000000FE0
FE000000000FE0
FF000000001FC0
7F000000001FC0
7F000000001FC0
7F000000001FC0
7F800000003F80
3F800000003F80
3FC00001807F80
3FC00003C07F00
1FE00003F0FF00
1FF00007F9FE00
0FF00003FDFE00
07F80001FFFC00
07FE0000FFF800
03FF00007FF000
01FFC0007FF000
00FFF803FFF000
007FFFFFFFFC00
003FFFFFFFFE00
000FFFFFFFFF00
0003FFFFF87FC0
0000FFFFE03FC0
00000FFE001F80
00000000000700
00000000000200
ENDCHAR
STARTCHAR 0052
ENCODING 82
SWIDTH 708 0
DWIDTH 51 0
BBX 42 52 6 0
BITMAP
FFFFFFF80000
FFFFFFFF0000
FFFFFFFFC000
FFFFFFFFF000
FFFFFFFFF800
FFFFFFFFFC00
FE00001FFC00
FE000003FE00
FE000001FE00
FE000000FE00
FE000000FF00
FE0000007F00
FE0000007F00
FE0000007F00
FE0000007F00
FE0000007F00
FE0000007F00
FE0000007F00
FE0000007E00
FE000000FE00
FE000000FE00
FE000001FC00
FE000003F800
FE00001FF000
FFFFFFFFE000
FFFFFFFFC000
FFFFFFFF0000
FFFFFFFF8000
FFFFFFFFE000
FFFFFFFFF000
FE00001FF800
FE000007FC00
FE000003FC00
FE000001FC00
FE000001FE00
FE000000FE00
FE000000FE00
FE000000FE00
FE000000FE00
FE000000FE00
FE000000FE00
FE000000FE00
FE000000FE00
FE000000FE00
FE000000FE00
FE000000FE00
FE000000FE00
FE000000FF00
FE000000FF00
FE0000007F80
FE0000007FC0
FE0000003FC0
ENDCHAR
STARTCHAR 0053
ENCODING 83
SWIDTH 666 0
DWIDTH 48 0
BBX 42 55 3 -2
BITMAP
0000FFE00000
000FFFFE0000
003FFFFF8000
00FFFFFFE000
01FFFFFFF000
03FFFFFFF800
07FF003FFC00
0FFC0007FE00
0FF00003FE00
1FE00001FF00
1FC00000FF00
3FC000007F00
3F8000007F80
3F8000003F80
3F8000003F80
3F8000003F80
3F8000000000
3FC000000000
3FC000000000
1FE000000000
1FF800000000
1FFF00000000
0FFFE0000000
07FFFE000000
03FFFFE00000
00FFFFFC0000
003FFFFF8000
0007FFFFE000
00007FFFF800
000007FFFC00
000000FFFE00
0000000FFF00
00000003FF00
00000000FF80
000000007F80
000000003FC0
000000003FC0
FE0000001FC0
FE0000001FC0
FE0000001FC0
FE0000001FC0
7F0000001FC0
7F0000003FC0
7F8000003F80
7F8000007F80
3FC000007F80
3FF00000FF00
1FF80003FE00
0FFF801FFE00
07FFFFFFFC00
03FFFFFFF800
01FFFFFFE000
007FFFFFC000
000FFFFE0000
0001FFE00000
ENDCHAR
STARTCHAR 0054
ENCODING 84
SWIDTH 638 0
DWIDTH 46 0
BBX 39 52 3 0
BITMAP
FFFFFFFFFE
FFFFFFFFFE
FFFFFFFFFE
FFFFFFFFFE
FFFFFFFFFE
FFFFFFFFFE
0000FE0000
0000FE0000
0000FE0000
0000FE0000
0000FE0000
0000FE0000
0000FE0000
0000FE0000
0000FE0000
0000FE0000
0000FE0000
0000FE0000
0000FE0000
0000FE0000
0000FE0000
0000FE0000
0000FE0000
0000FE0000
0000FE0000
0000FE0000
0000FE0000
0000FE0000
0000FE0000
0000FE0000
0000FE0000
0000FE0000
0000FE0000
0000FE0000
0000FE0000
0000FE0000
0000FE0000
0000FE0000
0000FE0000
0000FE0000
0000FE0000
0000FE0000
0000FE0000
0000FE0000
0000FE0000
0000FE0000
0000FE0000
0000FE0000
0000FE0000
0000FE0000
0000FE0000
0000FE0000
ENDCHAR
STARTCHAR 0055
ENCODING 85
SWIDTH 722 0
DWIDTH 52 0
BBX 40 54 6 -2
BITMAP
FE0000007F
FE0000007F
FE0000007F
FE0000007F
FE0000007F
FE0000007F
FE0000007F
FE0000007F
FE0000007F
FE0000007F
FE0000007F
FE0000007F
FE0000007F
FE0000007F
FE0000007F
FE0000007F
FE0000007F
FE0000007F
FE0000007F
FE0000007F
FE0000007F
FE0000007F
FE0000007F
FE0000007F
FE0000007F
FE0000007F
FE0000007F
FE0000007F
FE0000007F
FE0000007F
FE0000007F
FE0000007F
FE0000007F
FE0000007F
FE0000007F
FE0000007F
FE0000007F
FE0000007F
FE0000007F
FE0000007F
FE000000FF
7F000000FE
7F000000FE
7F800001FE
3FC00003FC
3FE00007FC
1FF8001FF8
1FFE00FFF0
0FFFFFFFE0
07FFFFFFC0
01FFFFFF80
00FFFFFE00
001FFFF800
0003FF8000
ENDCHAR
STARTCHAR 0056
ENCODING 86
SWIDTH 638 0
DWIDTH 46 0
BBX 44 52 1 0
BITMAP
FE00000007F0
7F00000007F0
7F0000000FF0
7F8000000FE0
3F8000000FE0
3F8000001FC0
3FC000001FC0
1FC000001FC0
1FC000003F80
0FE000003F80
0FE000003F80
0FE000007F00
07F000007F00
07F000007F00
07F00000FE00
03F80000FE00
03F80000FE00
03F80001FC00
01FC0001FC00
01FC0001FC00
00FC0003F800
00FE0003F800
00FE0003F000
007F0007F000
007F0007F000
007F0007E000
003F800FE000
003F800FE000
003F800FC000
001FC01FC000
001FC01FC000
001FC01F8000
000FE03F8000
000FE03F8000
0007E03F0000
0007F07F0000
0007F07F0000
0003F07E0000
0003F8FE0000
0003F8FE0000
0001F8FC0000
0001FDFC0000
0001FDF80000
0000FFF80000
0000FFF80000
00007FF00000
00007FF00000
00007FF00000
00003FE00000
00003FE00000
00003FE00000
00001FC00000
ENDCHAR
STARTCHAR 0057
ENCODING 87
SWIDTH 930 0
DWIDTH 67 0
BBX 65 52 1 0
BITMAP
FF000007F800003F80
7F000007F800003F80
7F00000FF800007F80
7F00000FF800007F00
7F80000FFC00007F00
3F80000FFC00007F00
3F80001FFC0000FF00
3F80001FFE0000FE00
3FC0001FFE0000FE00
1FC0003FFE0000FE00
1FC0003F7E0001FE00
1FC0003F7F0001FC00
1FE0003F3F0001FC00
0FE0007F3F0001FC00
0FE0007E3F0001FC00
0FE0007E3F8003F800
0FF0007E1F8003F800
07F000FE1F8003F800
07F000FC1FC003F800
07F000FC0FC007F000
03F001FC0FC007F000
03F801F80FC007F000
03F801F80FE007F000
03F801F807E00FE000
01F803F807E00FE000
01FC03F007F00FE000
01FC03F003F00FE000
01FC03F003F00FC000
00FC07F003F01FC000
00FE07E003F81FC000
00FE07E001F81FC000
00FE0FE001F81F8000
007E0FC001FC3F8000
007F0FC000FC3F8000
007F0FC000FC3F8000
007F1FC000FC3F0000
003F1F8000FE3F0000
003F1F80007E7F0000
003F9F80007E7F0000
003FBF80007E7E0000
001FBF00007F7E0000
001FBF00003FFE0000
001FFF00003FFE0000
001FFE00003FFC0000
000FFE00001FFC0000
000FFE00001FFC0000
000FFE00001FF80000
0007FC00001FF80000
0007FC00000FF80000
0007FC00000FF80000
0007FC00000FF00000
0003F8000007F00000
ENDCHAR
STARTCHAR 0058
ENCODING 88
SWIDTH 652 0
DWIDTH 47 0
BBX 45 52 1 0
BITMAP
3FC000000FF0
3FC000001FE0
1FE000001FE0
0FF000003FC0
0FF000007F80
07F800007F80
03FC0000FF00
03FC0001FE00
01FE0001FC00
00FF0003FC00
00FF0007F800
007F8007F000
003FC00FF000
001FC01FE000
001FE01FC000
000FF03FC000
0007F07F8000
0007F87F0000
0003FCFE0000
0001FDFE0000
0001FFFC0000
0000FFF80000
00007FF80000
00007FF00000
00003FE00000
00001FE00000
00003FE00000
00007FF00000
0000FFF80000
0000FFFC0000
0001FFFC0000
0003FDFE0000
0003F8FF0000
0007F87F0000
000FF07F8000
000FE03FC000
001FE01FC000
003FC01FE000
007F800FF000
007F8007F800
00FF0007F800
01FE0003FC00
01FE0001FE00
03FC0001FE00
07F80000FF00
07F800007F80
0FF000007F80
1FE000003FC0
3FE000001FE0
3FC000001FE0
7F8000000FF0
FF80000007F8
ENDCHAR
STARTCHAR 0059
ENCODING 89
SWIDTH 680 0
DWIDTH 49 0
BBX 46 52 1 0
BITMAP
FF00000003FC
7F80000003FC
7FC0000007F8
3FC0000007F8
1FE000000FF0
1FE000001FE0
0FF000001FE0
07F800003FC0
07F800003F80
03FC00007F80
01FE0000FF00
01FE0000FF00
00FF0001FE00
00FF0001FC00
007F8003FC00
003FC007F800
003FC007F000
001FE00FF000
000FE00FE000
000FF01FE000
0007F83FC000
0003F83F8000
0003FC7F8000
0001FC7F0000
0001FEFE0000
0000FFFE0000
00007FFC0000
00007FFC0000
00003FF80000
00001FF00000
00001FF00000
00000FE00000
00000FE00000
00000FE00000
00000FE00000
00000FE00000
00000FE00000
00000FE00000
00000FE00000
00000FE00000
00000FE00000
00000FE00000
00000FE00000
00000FE00000
00000FE00000
00000FE00000
00000FE00000
00000FE00000
00000FE00000
00000FE00000
00000FE00000
00000FE00000
ENDCHAR
STARTCHAR 005A
ENCODING 90
SWIDTH 611 0
DWIDTH 44 0
BBX 40 52 2 0
BITMAP
3FFFFFFFFF
3FFFFFFFFF
3FFFFFFFFF
3FFFFFFFFF
3FFFFFFFFF
3FFFFFFFFF
00000001FF
00000001FE
00000003FC
00000007F8
0000000FF8
0000001FF0
0000001FE0
0000003FC0
0000007F80
000000FF80
000001FF00
000001FE00
000003FC00
000007F800
00000FF800
00001FF000
00001FE000
00003FC000
00007FC000
0000FF8000
0000FF0000
0001FE0000
0003FC0000
0007FC0000
000FF80000
000FF00000
001FE00000
003FC00000
007FC00000
00FF800000
00FF000000
01FE000000
03FE000000
07FC000000
0FF8000000
0FF0000000
1FE0000000
3FE0000000
7FC0000000
7F80000000
FFFFFFFFFF
FFFFFFFFFF
FFFFFFFFFF
FFFFFFFFFF
FFFFFFFFFF
FFFFFFFFFF
ENDCHAR
STARTCHAR 005B
ENCODING 91
SWIDTH 277 0
DWIDTH 20 0
BBX 13 67 5 -15
BITMAP
FFF8
FFF8
FFF8
FFF8
FFF8
FC00
FC00
FC00
FC00
FC00
FC00
FC00
FC00
FC00
FC00
FC00
FC00
FC00
FC00
FC00
FC00
FC00
FC00
FC00
FC00
FC00
FC00
FC00
FC00
FC00
FC00
FC00
FC00
FC00
FC00
FC00
FC00
FC00
FC00
FC00
FC00
FC00
FC00
FC00
FC00
FC00
FC00
FC00
FC00
FC00
FC00
FC00
FC00
FC00
FC00
FC00
FC00
FC00
FC00
FC00
FC00
FC00
FFF8
FFF8
FFF8
FFF8
FFF8
ENDCHAR
STARTCHAR 005C
ENCODING 92
SWIDTH 277 0
DWIDTH 20 0
BBX 21 53 -1 -1
BITMAP
F00000
F00000
780000
780000
780000
3C0000
3C0000
3C0000
1E0000
1E0000
1E0000
0F0000
0F0000
0F0000
078000
078000
078000
03C000
03C000
03C000
01E000
01E000
01E000
00E000
00F000
00F000
007000
007800
007800
003800
003C00
003C00
003C00
001E00
001E00
001E00
000F00
000F00
000F00
000780
000780
000780
0003C0
0003C0
0003C0
0001E0
0001E0
0001E0
0000F0
0000F0
0000F0
000078
000078
ENDCHAR
STARTCHAR 005D
ENCODING 93
SWIDTH 277 0
DWIDTH 20 0
BBX 13 67 2 -15
BITMAP
FFF8
FFF8
FFF8
FFF8
FFF8
01F8
01F8
01F8
01F8
01F8
01F8
01F8
01F8
01F8
01F8
01F8
01F8
01F8
01F8
01F8
01F8
01F8
01F8
01F8
01F8
01F8
01F8
01F8
01F8
01F8
01F8
01F8
01F8
01F8
01F8
01F8
01F8
01F8
01F8
01F8
01F8
01F8
01F8
01F8
01F8
01F8
01F8
01F8
01F8
01F8
01F8
01F8
01F8
01F8
01F8
01F8
01F8
01F8
01F8
01F8
01F8
01F8
FFF8
FFF8
FFF8
FFF8
FFF8
ENDCHAR
STARTCHAR 005E
ENCODING 94
SWIDTH 472 0
DWIDTH 34 0
BBX 26 27 4 23
BITMAP
003F0000
003F0000
007F0000
007F8000
00FF8000
00FFC000
00FFC000
01F3C000
01F3E000
03E3E000
03E1F000
03E1F000
07C0F800
07C0F800
0F80F800
0F807C00
0F807C00
1F003E00
1F003E00
3E003E00
3E001F00
3E001F00
7C000F80
7C000F80
F8000F80
F80007C0
F80007C0
ENDCHAR
STARTCHAR 005F
ENCODING 95
SWIDTH 555 0
DWIDTH 40 0
BBX 44 4 -2 -13
BITMAP
FFFFFFFFFFF0
FFFFFFFFFFF0
FFFFFFFFFFF0
FFFFFFFFFFF0
ENDCHAR
STARTCHAR 0060
ENCODING 96
SWIDTH 250 0
DWIDTH 18 0
BBX 15 11 2 42
BITMAP
FF00
7F80
3FC0
1FC0
0FE0
07F0
03F0
01F8
00F8
007C
003E
ENDCHAR
STARTCHAR 0061
ENCODING 97
SWIDTH 541 0
DWIDTH 39 0
BBX 36 41 2 -2
BITMAP
001FFC0000
00FFFF8000
03FFFFE000
07FFFFF000
0FFFFFF800
1FFFFFFC00
3FF807FC00
3FC001FE00
7F8000FE00
7F80007E00
7F00007E00
7F00007E00
0000007E00
0000007E00
0000007E00
000000FE00
000003FE00
0000FFFE00
003FFFFE00
01FFFFFE00
0FFFFFFE00
1FFFFC7E00
3FFF807E00
7FF0007E00
7FC0007E00
7F80007E00
FF00007E00
FE00007E00
FE00007E00
FE00007E00
FE0000FE00
FE0001FE00
FF0001FE00
7F0007FE00
7F800FFE00
7FF07FFF00
3FFFFF7FF0
1FFFFE3FF0
0FFFF83FF0
03FFE01FF0
00FF000FE0
ENDCHAR
STARTCHAR 0062
ENCODING 98
SWIDTH 555 0
DWIDTH 40 0
BBX 35 54 4 -2
BITMAP
FC00000000
FC00000000
FC00000000
FC00000000
FC00000000
FC00000000
FC00000000
FC00000000
FC00000000
FC00000000
FC00000000
FC00000000
FC00000000
FC03FC0000
FC1FFF8000
FC3FFFE000
FC7FFFF000
FCFFFFFC00
FDFFFFFC00
FFFC0FFE00
FFF003FF00
FFC000FF00
FF80007F80
FF80007F80
FF00003FC0
FE00003FC0
FE00001FC0
FE00001FC0
FE00001FE0
FC00000FE0
FC00000FE0
FC00000FE0
FC00000FE0
FC00000FE0
FC00000FE0
FC00000FE0
FC00000FE0
FC00000FE0
FC00001FE0
FE00001FC0
FE00001FC0
FE00003FC0
FF00003FC0
FF80007F80
FF8000FF80
FFC001FF00
FFE003FF00
FFFC0FFE00
FBFFFFFC00
F9FFFFF800
F8FFFFF000
F87FFFE000
001FFF8000
0003FC0000
ENDCHAR
STARTCHAR 0063
ENCODING 99
SWIDTH 500 0
DWIDTH 36 0
BBX 33 41 2 -2
BITMAP
0007FC0000
003FFF8000
00FFFFE000
01FFFFF000
03FFFFF800
07FFFFFC00
0FFC0FFE00
1FF003FE00
1FE000FF00
3FC000FF00
3F80007F00
7F80007F00
7F00007F80
7F00000000
7F00000000
FE00000000
FE00000000
FE00000000
FE00000000
FE00000000
FE00000000
FE00000000
FE00000000
FE00000000
FE00000000
FE00000000
FF00000000
7F00003F80
7F00003F80
7F80007F80
3F80007F00
3FC000FF00
1FE000FF00
1FF003FE00
0FFC0FFE00
07FFFFFC00
07FFFFF800
03FFFFF000
00FFFFE000
003FFF8000
0007FC0000
ENDCHAR
STARTCHAR 0064
ENCODING 100
SWIDTH 555 0
DWIDTH 40 0
BBX 34 54 2 -2
BITMAP
0000000FC0
0000000FC0
0000000FC0
0000000FC0
0000000FC0
0000000FC0
0000000FC0
0000000FC0
0000000FC0
0000000FC0
0000000FC0
0000000FC0
0000000FC0
0007F80FC0
003FFE0FC0
00FFFF8FC0
01FFFFCFC0
07FFFFEFC0
07FFFFFFC0
0FFE07FFC0
1FF801FFC0
1FE000FFC0
3FC0007FC0
3FC0003FC0
7F80003FC0
7F00001FC0
7F00001FC0
FF00001FC0
FF00001FC0
FE00000FC0
FE00000FC0
FE00000FC0
FE00000FC0
FE00000FC0
FE00000FC0
FE00000FC0
FE00000FC0
FE00000FC0
FE00000FC0
7F00001FC0
7F00001FC0
7F00001FC0
7F80003FC0
3FC0003FC0
3FC0007FC0
1FE000FFC0
1FF001FFC0
0FFE07FFC0
07FFFFF7C0
07FFFFE7C0
03FFFFC7C0
00FFFF87C0
003FFE0000
0007F80000
ENDCHAR
STARTCHAR 0065
ENCODING 101
SWIDTH 527 0
DWIDTH 38 0
BBX 35 41 2 -2
BITMAP
0007FC0000
003FFFC000
007FFFE000
01FFFFF800
03FFFFFC00
07FFFFFE00
0FFC07FE00
1FF001FF00
1FE000FF80
3FC0007F80
3F80003F80
7F80001FC0
7F00001FC0
7F00001FC0
7F00000FC0
FE00000FE0
FE00000FE0
FFFFFFFFE0
FFFFFFFFE0
FFFFFFFFE0
FFFFFFFFE0
FFFFFFFFE0
FE00000000
FE00000000
FE00000000
FE00000000
7F00000000
7F00000000
7F00001FC0
7F80001FC0
3F80003F80
3FC0003F80
1FE0007F80
1FF000FF00
0FFC07FF00
07FFFFFE00
03FFFFFC00
01FFFFF800
00FFFFE000
003FFF8000
0007FC0000
ENDCHAR
STARTCHAR 0066
ENCODING 102
SWIDTH 277 0
DWIDTH 20 0
BBX 17 52 1 0
BITMAP
003F80
00FF80
01FF80
03FF80
03FF80
07F800
07F000
07E000
07E000
07E000
07E000
07E000
07E000
07E000
FFFF80
FFFF80
FFFF80
FFFF80
FFFF80
07E000
07E000
07E000
07E000
07E000
07E000
07E000
07E000
07E000
07E000
07E000
07E000
07E000
07E000
07E000
07E000
07E000
07E000
07E000
07E000
07E000
07E000
07E000
07E000
07E000
07E000
07E000
07E000
07E000
07E000
07E000
07E000
07E000
ENDCHAR
STARTCHAR 0067
ENCODING 103
SWIDTH 555 0
DWIDTH 40 0
BBX 34 55 2 -16
BITMAP
000FF00000
003FFC1FC0
00FFFF1FC0
01FFFF9FC0
03FFFFDFC0
07FFFFFFC0
0FFC0FEFC0
1FF003FFC0
1FE001FFC0
3FC000FFC0
3F80007FC0
7F80007FC0
7F00003FC0
7F00003FC0
7F00003FC0
FE00001FC0
FE00001FC0
FE00001FC0
FE00001FC0
FE00001FC0
FE00001FC0
FE00001FC0
FE00001FC0
FE00001FC0
FE00001FC0
FE00001FC0
FF00003FC0
7F00003FC0
7F00003FC0
7F80007FC0
3F80007FC0
3FC000FFC0
1FE001FFC0
1FF003FFC0
0FFC0FFFC0
07FFFFDFC0
07FFFF9FC0
03FFFF1FC0
00FFFE1FC0
007FFC1FC0
000FE01FC0
0000001F80
0000003F80
0000003F80
7F00003F80
7F00007F00
7F80007F00
3FC000FF00
3FE001FE00
1FF807FC00
0FFFFFFC00
07FFFFF800
03FFFFE000
00FFFFC000
001FFC0000
ENDCHAR
STARTCHAR 0068
ENCODING 104
SWIDTH 541 0
DWIDTH 39 0
BBX 30 52 4 0
BITMAP
FC000000
FC000000
FC000000
FC000000
FC000000
FC000000
FC000000
FC000000
FC000000
FC000000
FC000000
FC000000
FC000000
FC03FC00
FC1FFF80
FC3FFFC0
FCFFFFE0
FDFFFFF0
FFF81FF8
FFE007F8
FFC003FC
FF8001FC
FF0000FC
FF0000FC
FE0000FC
FE0000FC
FC0000FC
FC0000FC
FC0000FC
FC0000FC
FC0000FC
FC0000FC
FC0000FC
FC0000FC
FC0000FC
FC0000FC
FC0000FC
FC0000FC
FC0000FC
FC0000FC
FC0000FC
FC0000FC
FC0000FC
FC0000FC
FC0000FC
FC0000FC
FC0000FC
FC0000FC
FC0000FC
FC0000FC
FC0000FC
FC0000FC
ENDCHAR
STARTCHAR 0069
ENCODING 105
SWIDTH 222 0
DWIDTH 16 0
BBX 6 52 5 0
BITMAP
FC
FC
FC
FC
FC
FC
FC
FC
00
00
00
00
00
00
FC
FC
FC
FC
FC
FC
FC
FC
FC
FC
FC
FC
FC
FC
FC
FC
FC
FC
FC
FC
FC
FC
FC
FC
FC
FC
FC
FC
FC
FC
FC
FC
FC
FC
FC
FC
FC
FC
ENDCHAR
STARTCHAR 006A
ENCODING 106
SWIDTH 250 0
DWIDTH 18 0
BBX 12 68 0 -16
BITMAP
03F0
03F0
03F0
03F0
03F0
03F0
03F0
03F0
0000
0000
0000
0000
0000
0000
03F0
03F0
03F0
03F0
03F0
03F0
03F0
03F0
03F0
03F0
03F0
03F0
03F0
03F0
03F0
03F0
03F0
03F0
03F0
03F0
03F0
03F0
03F0
03F0
03F0
03F0
03F0
03F0
03F0
03F0
03F0
03F0
03F0
03F0
03F0
03F0
03F0
03F0
03F0
03F0
03F0
03F0
03F0
03F0
03F0
03F0
03F0
07F0
0FF0
FFE0
FFE0
FFC0
FF80
FC00
ENDCHAR
STARTCHAR 006B
ENCODING 107
SWIDTH 513 0
DWIDTH 37 0
BBX 32 52 4 0
BITMAP
FC000000
FC000000
FC000000
FC000000
FC000000
FC000000
FC000000
FC000000
FC000000
FC000000
FC000000
FC000000
FC000000
FC000000
FC0007F8
FC000FF0
FC001FE0
FC003FC0
FC007F80
FC00FF00
FC00FE00
FC01FC00
FC03F800
FC07F000
FC0FE000
FC1FC000
FC3F8000
FC7F8000
FCFF8000
FDFFC000
FFFFE000
FFFFE000
FFE7F000
FFC7F800
FF83F800
FF03FC00
FE01FC00
FC00FE00
FC00FF00
FC007F00
FC007F80
FC003F80
FC001FC0
FC001FE0
FC000FE0
FC0007F0
FC0007F8
FC0003F8
FC0003FC
FC0001FC
FC0000FE
FC0000FF
ENDCHAR
STARTCHAR 006C
ENCODING 108
SWIDTH 208 0
DWIDTH 15 0
BBX 7 52 4 0
BITMAP
FE
FE
FE
FE
FE
FE
FE
FE
FE
FE
FE
FE
FE
FE
FE
FE
FE
FE
FE
FE
FE
FE
FE
FE
FE
FE
FE
FE
FE
FE
FE
FE
FE
FE
FE
FE
FE
FE
FE
FE
FE
FE
FE
FE
FE
FE
FE
FE
FE
FE
FE
FE
ENDCHAR
STARTCHAR 006D
ENCODING 109
SWIDTH 805 0
DWIDTH 58 0
BBX 51 39 4 0
BITMAP
0007F8001FF000
F83FFF007FFC00
F87FFFC1FFFF00
F8FFFFE3FFFF80
FBFFFFF7FFFF80
FBF83FFFE0FFC0
FFE00FFF803FC0
FFC007FF001FE0
FF8007FE001FE0
FF0003FC000FE0
FF0003FC000FE0
FF0003FC000FE0
FE0003F8000FE0
FE0003F8000FE0
FE0003F8000FE0
FE0003F8000FE0
FE0003F8000FE0
FE0003F8000FE0
FE0003F8000FE0
FE0003F8000FE0
FE0003F8000FE0
FE0003F8000FE0
FE0003F8000FE0
FE0003F8000FE0
FE0003F8000FE0
FE0003F8000FE0
FE0003F8000FE0
FE0003F8000FE0
FE0003F8000FE0
FE0003F8000FE0
FE0003F8000FE0
FE0003F8000FE0
FE0003F8000FE0
FE0003F8000FE0
FE0003F8000FE0
FE0003F8000FE0
FE0003F8000FE0
FE0003F8000FE0
FE0003F8000FE0
ENDCHAR
STARTCHAR 006E
ENCODING 110
SWIDTH 541 0
DWIDTH 39 0
BBX 30 39 4 0
BITMAP
0003FC00
F81FFF80
F87FFFC0
F8FFFFE0
F9FFFFF0
FBFC0FF8
FFF007F8
FFE003FC
FFC001FC
FF8000FC
FF0000FC
FF0000FC
FF0000FC
FE0000FC
FE0000FC
FE0000FC
FE0000FC
FE0000FC
FE0000FC
FE0000FC
FE0000FC
FE0000FC
FE0000FC
FE0000FC
FE0000FC
FE0000FC
FE0000FC
FE0000FC
FE0000FC
FE0000FC
FE0000FC
FE0000FC
FE0000FC
FE0000FC
FE0000FC
FE0000FC
FE0000FC
FE0000FC
FE0000FC
ENDCHAR
STARTCHAR 006F
ENCODING 111
SWIDTH 527 0
DWIDTH 38 0
BBX 35 41 2 -2
BITMAP
0007FC0000
003FFF8000
00FFFFE000
01FFFFF000
03FFFFF800
07FFFFFC00
0FFC07FE00
1FF001FF00
1FE000FF00
3FC0007F80
3F80003F80
7F80003FC0
7F00001FC0
7F00001FC0
7F00001FC0
FE00001FE0
FE00000FE0
FE00000FE0
FE00000FE0
FE00000FE0
FE00000FE0
FE00000FE0
FE00000FE0
FE00000FE0
FE00000FE0
FE00000FE0
7F00001FC0
7F00001FC0
7F00001FC0
7F80003FC0
3F80003F80
3FC0007F80
1FE000FF00
1FF001FF00
0FFC07FE00
07FFFFFC00
03FFFFF800
01FFFFF000
00FFFFE000
003FFF8000
0007FC0000
ENDCHAR
STARTCHAR 0070
ENCODING 112
SWIDTH 555 0
DWIDTH 40 0
BBX 35 54 4 -15
BITMAP
0003FC0000
F81FFF8000
F87FFFE000
F8FFFFF000
F9FFFFF800
FBFFFFFC00
FFFC0FFE00
FFF003FF00
FFE000FF00
FFC0007F80
FF80007F80
FF80003FC0
FF00003FC0
FF00001FC0
FF00001FC0
FE00001FE0
FE00000FE0
FE00000FE0
FE00000FE0
FE00000FE0
FE00000FE0
FE00000FE0
FE00000FE0
FE00000FE0
FE00000FE0
FE00001FE0
FF00001FC0
FF00001FC0
FF00003FC0
FF80003FC0
FF80007F80
FFC0007F80
FFE000FF00
FFF003FF00
FFFC0FFE00
FFFFFFFC00
FEFFFFFC00
FE7FFFF000
FE3FFFE000
FE0FFF8000
FE01FE0000
FE00000000
FE00000000
FE00000000
FE00000000
FE00000000
FE00000000
FE00000000
FE00000000
FE00000000
FE00000000
FE00000000
FE00000000
FE00000000
ENDCHAR
STARTCHAR 0071
ENCODING 113
SWIDTH 555 0
DWIDTH 40 0
BBX 34 54 2 -15
BITMAP
0007F80000
003FFF07C0
00FFFF87C0
01FFFFC7C0
03FFFFE7C0
07FFFFF7C0
0FFE07FFC0
1FF801FFC0
1FE000FFC0
3FC0007FC0
3FC0003FC0
7F80003FC0
7F00001FC0
7F00001FC0
7F00001FC0
FF00001FC0
FE00000FC0
FE00000FC0
FE00000FC0
FE00000FC0
FE00000FC0
FE00000FC0
FE00000FC0
FE00000FC0
FE00000FC0
FE00000FC0
FF00001FC0
7F00001FC0
7F00001FC0
7F80003FC0
3FC0003FC0
3FC0007FC0
3FE000FFC0
1FF001FFC0
0FFE07FFC0
0FFFFFEFC0
07FFFFEFC0
03FFFFCFC0
00FFFF8FC0
007FFE0FC0
000FF00FC0
0000000FC0
0000000FC0
0000000FC0
0000000FC0
0000000FC0
0000000FC0
0000000FC0
0000000FC0
0000000FC0
0000000FC0
0000000FC0
0000000FC0
0000000FC0
ENDCHAR
STARTCHAR 0072
ENCODING 114
SWIDTH 333 0
DWIDTH 24 0
BBX 19 39 4 0
BITMAP
0003E0
F80FE0
F81FE0
F87FE0
F8FFE0
F9FFE0
FBFE00
FFF000
FFC000
FF8000
FF8000
FF0000
FF0000
FF0000
FE0000
FE0000
FE0000
FE0000
FE0000
FE0000
FE0000
FE0000
FE0000
FE0000
FE0000
FE0000
FE0000
FE0000
FE0000
FE0000
FE0000
FE0000
FE0000
FE0000
FE0000
FE0000
FE0000
FE0000
FE0000
ENDCHAR
STARTCHAR 0073
ENCODING 115
SWIDTH 500 0
DWIDTH 36 0
BBX 32 41 2 -2
BITMAP
001FF800
00FFFF00
03FFFFC0
07FFFFE0
0FFFFFF0
1FFFFFF0
3FF01FF8
3FC007F8
7F8003FC
7F0001FC
7F0001FC
7F000000
7F000000
7F800000
7F800000
3FE00000
3FFC0000
1FFFC000
0FFFFC00
07FFFF80
01FFFFE0
007FFFF8
0007FFFC
00007FFE
000007FE
000001FF
000000FF
0000007F
0000007F
FE00007F
FE00007F
FF0000FF
7F0000FE
7F8003FE
7FF00FFC
3FFFFFFC
1FFFFFF8
1FFFFFF0
07FFFFC0
01FFFF00
003FF800
ENDCHAR
STARTCHAR 0074
ENCODING 116
SWIDTH 277 0
DWIDTH 20 0
BBX 17 50 2 -2
BITMAP
07E000
07E000
07E000
07E000
07E000
07E000
07E000
07E000
07E000
07E000
FFFF80
FFFF80
FFFF80
FFFF80
FFFF80
07E000
07E000
07E000
07E000
07E000
07E000
07E000
07E000
07E000
07E000
07E000
07E000
07E000
07E000
07E000
07E000
07E000
07E000
07E000
07E000
07E000
07E000
07E000
07E000
07E000
07E000
07E000
07E000
07E000
07F000
07FF80
07FF80
03FF80
01FF80
007F80
ENDCHAR
STARTCHAR 0075
ENCODING 117
SWIDTH 541 0
DWIDTH 39 0
BBX 30 40 4 -2
BITMAP
FC0000FC
FC0000FC
FC0000FC
FC0000FC
FC0000FC
FC0000FC
FC0000FC
FC0000FC
FC0000FC
FC0000FC
FC0000FC
FC0000FC
FC0000FC
FC0000FC
FC0000FC
FC0000FC
FC0000FC
FC0000FC
FC0000FC
FC0000FC
FC0000FC
FC0000FC
FC0000FC
FC0000FC
FC0000FC
FC0000FC
FC0001FC
FC0001FC
FC0001FC
FC0003FC
FE0003FC
FE0007FC
FF000FFC
7F801FFC
7FE07F7C
3FFFFE7C
1FFFFC7C
0FFFF87C
07FFE000
00FF0000
ENDCHAR
STARTCHAR 0076
ENCODING 118
SWIDTH 500 0
DWIDTH 36 0
BBX 34 38 1 0
BITMAP
FE00001FC0
FE00001F80
7E00003F80
7F00003F80
7F00003F00
3F00007F00
3F80007F00
3F80007E00
1F8000FE00
1FC000FC00
1FC000FC00
0FC001FC00
0FE001F800
0FE001F800
07E003F000
07F003F000
07F007F000
03F007E000
03F807E000
01F80FE000
01F80FC000
01FC0FC000
00FC1F8000
00FC1F8000
00FC1F8000
007E3F0000
007E3F0000
007E3F0000
003F7E0000
003F7E0000
003F7C0000
001FFC0000
001FFC0000
001FF80000
000FF80000
000FF00000
000FF00000
0007F00000
ENDCHAR
STARTCHAR 0077
ENCODING 119
SWIDTH 722 0
DWIDTH 52 0
BBX 50 38 1 0
BITMAP
FC0007F8001FC0
FE0007F8001FC0
FE0007F8001FC0
7E000FFC001F80
7E000FFC003F80
7F000FFC003F80
3F000FFC003F80
3F001FFE003F00
3F001FFE007F00
3F801F7E007F00
1F801F7E007E00
1F803F3F007E00
1FC03F3F00FE00
0FC03E3F00FC00
0FC03E3F00FC00
0FC07E1F80FC00
0FE07E1F81FC00
07E07C1F81F800
07E07C1F81F800
07E0FC0FC1F800
03F0FC0FC3F000
03F0F80FC3F000
03F0F80FC3F000
03F1F807E3F000
01F9F807E7E000
01F9F007E7E000
01F9F007E7E000
00FBF003F7C000
00FFF003FFC000
00FFF003FFC000
00FFE003FFC000
007FE001FF8000
007FE001FF8000
007FE001FF8000
003FC001FF0000
003FC000FF0000
003FC000FF0000
003FC000FE0000
ENDCHAR
STARTCHAR 0078
ENCODING 120
SWIDTH 472 0
DWIDTH 34 0
BBX 32 38 1 0
BITMAP
7F00007F
7F0000FE
3F8000FC
1FC001FC
1FC003F8
0FE003F0
07F007F0
03F00FE0
03F80FC0
01FC1FC0
00FC3F80
00FE3F00
007F7F00
003F7E00
003FFC00
001FF800
000FF800
000FF000
0007F000
000FF000
000FF800
001FFC00
003FFC00
003FFE00
007E7F00
00FE7F00
00FC3F80
01F81FC0
03F81FC0
03F00FE0
07F007F0
0FE007F0
1FC003F8
1FC001FC
3F8001FC
7F0000FE
7F00007F
FE00007F
ENDCHAR
STARTCHAR 0079
ENCODING 121
SWIDTH 472 0
DWIDTH 34 0
BBX 33 54 1 -16
BITMAP
FC00003F80
FE00003F00
7E00007F00
7E00007E00
7F00007E00
3F0000FE00
3F0000FC00
3F8000FC00
1F8001FC00
1F8001F800
1FC001F800
0FC003F800
0FC003F000
0FE007F000
07E007E000
07E007E000
07F00FE000
03F00FC000
03F00FC000
03F81FC000
01F81F8000
01F81F8000
01F83F8000
00FC3F0000
00FC3F0000
00FC7E0000
007E7E0000
007E7E0000
007EFC0000
003FFC0000
003FFC0000
003FF80000
001FF80000
001FF80000
001FF00000
000FF00000
000FE00000
000FE00000
000FE00000
000FC00000
000FC00000
001FC00000
001F800000
003F800000
003F800000
003F000000
007F000000
00FE000000
3FFE000000
3FFC000000
3FFC000000
3FF8000000
3FE0000000
1F80000000
ENDCHAR
STARTCHAR 007A
ENCODING 122
SWIDTH 486 0
DWIDTH 35 0
BBX 31 38 2 0
BITMAP
3FFFFFFC
3FFFFFFC
3FFFFFFC
3FFFFFFC
3FFFFFFC
000003F8
000007F8
000007F0
00000FE0
00001FC0
00003F80
00007F80
00007F00
0000FE00
0001FC00
0003F800
0007F800
0007F000
000FE000
001FC000
003F8000
007F8000
007F0000
00FE0000
01FC0000
03F80000
07F80000
0FF00000
0FE00000
1FC00000
3F800000
7F800000
FF000000
FFFFFFFE
FFFFFFFE
FFFFFFFE
FFFFFFFE
FFFFFFFE
ENDCHAR
STARTCHAR 007B
ENCODING 123
SWIDTH 333 0
DWIDTH 24 0
BBX 17 67 3 -15
BITMAP
001F80
007F80
00FF80
01FF80
01FF80
01F800
03F000
03E000
03E000
03E000
03E000
03E000
03E000
03E000
03E000
03E000
03E000
03E000
03E000
03E000
03E000
03E000
03E000
03E000
03E000
03E000
07E000
07E000
07C000
0FC000
3F8000
FF0000
FE0000
F80000
FE0000
FF0000
3F8000
0F8000
07C000
07C000
07E000
03E000
03E000
03E000
03E000
03E000
03E000
03E000
03E000
03E000
03E000
03E000
03E000
03E000
03E000
03E000
03E000
03E000
03E000
03E000
03F000
01F800
01FF80
01FF80
00FF80
007F80
001F80
ENDCHAR
STARTCHAR 007C
ENCODING 124
SWIDTH 250 0
DWIDTH 18 0
BBX 4 68 7 -16
BITMAP
F0
F0
F0
F0
F0
F0
F0
F0
F0
F0
F0
F0
F0
F0
F0
F0
F0
F0
F0
F0
F0
F0
F0
F0
F0
F0
F0
F0
F0
F0
F0
F0
F0
F0
F0
F0
F0
F0
F0
F0
F0
F0
F0
F0
F0
F0
F0
F0
F0
F0
F0
F0
F0
F0
F0
F0
F0
F0
F0
F0
F0
F0
F0
F0
F0
F0
F0
F0
ENDCHAR
STARTCHAR 007D
ENCODING 125
SWIDTH 333 0
DWIDTH 24 0
BBX 16 67 4 -15
BITMAP
FC00
FF00
FF80
FFC0
FFC0
0FC0
07E0
03E0
03E0
03E0
03E0
03E0
03E0
03E0
03E0
03E0
03E0
03E0
03E0
03E0
03E0
03E0
03E0
03E0
03E0
03E0
03E0
01F0
01F0
01F8
00FE
007F
003F
000F
003F
007F
00FE
00F8
01F0
01F0
03F0
03E0
03E0
03E0
03E0
03E0
03E0
03E0
03E0
03E0
03E0
03E0
03E0
03E0
03E0
03E0
03E0
03E0
03E0
03E0
07E0
0FC0
FFC0
FFC0
FF80
FF00
FC00
ENDCHAR
STARTCHAR 007E
ENCODING 126
SWIDTH 500 0
DWIDTH 36 0
BBX 32 13 2 19
BITMAP
07E00000
1FF80000
3FFC0000
3FFF000F
7FFF800F
7C3FE00F
781FF81F
F807FC3E
F003FFFE
F000FFFE
00007FFC
00001FF8
000007E0
ENDCHAR
STARTCHAR 00A0
ENCODING 160
SWIDTH 277 0
DWIDTH 20 0
BBX 0 0 0 0
BITMAP
ENDCHAR
STARTCHAR 00A1
ENCODING 161
SWIDTH 333 0
DWIDTH 24 0
BBX 6 52 9 -14
BITMAP
FC
FC
FC
FC
FC
FC
FC
00
00
00
00
00
70
78
78
78
78
78
78
78
78
78
F8
FC
FC
FC
FC
FC
FC
FC
FC
FC
FC
FC
FC
FC
FC
FC
FC
FC
FC
FC
FC
FC
FC
FC
FC
FC
FC
FC
FC
FC
ENDCHAR
STARTCHAR 00A2
ENCODING 162
SWIDTH 555 0
DWIDTH 40 0
BBX 34 53 4 -8
BITMAP
0001C00000
0001C00000
0001C00000
0001C00000
0001C00000
0001C00000
000FFC0000
003FFF8000
00FFFFE000
01FFFFF000
03FFFFFC00
07FFFFFC00
0FF9C7FE00
1FF1C1FF00
1FC1C0FF00
3FC1C07F80
3F81C07F80
7F81C03F80
7F01C03F80
7F01C03FC0
7F01C00000
FE01C00000
FE01C00000
FE01C00000
FE01C00000
FE01C00000
FE01C00000
FE01C00000
FE01C00000
FE01C00000
FE01C00000
FE01C00000
FF01C00000
7F01C01FC0
7F01C01FC0
7F81C03FC0
3F81C03F80
3FC1C07F80
3FE1C0FF80
1FF1C1FF00
0FFDC7FF00
0FFFFFFE00
07FFFFFC00
03FFFFF800
00FFFFE000
003FFF8000
000FFC0000
0001C00000
0001C00000
0001C00000
0001C00000
0001C00000
0001C00000
ENDCHAR
STARTCHAR 00A3
ENCODING 163
SWIDTH 555 0
DWIDTH 40 0
BBX 36 54 3 -2
BITMAP
0003FF0000
001FFFE000
007FFFF800
01FFFFFC00
03FFFFFE00
07FFFFFF00
0FFE03FF80
1FF000FF80
1FE0003FC0
3FC0003FC0
3F80001FC0
7F80001FE0
7F00000FE0
7F00000FE0
7F00000FE0
7F00000FE0
7F00000000
7F00000000
7F80000000
3F80000000
3FC0000000
1FC0000000
1FE0000000
0FF0000000
07F0000000
FFFFFE0000
FFFFFE0000
FFFFFE0000
FFFFFE0000
01FE000000
00FE000000
00FF000000
007F000000
007F000000
007F000000
007F000000
007F000000
007E000000
00FE000000
00FC000000
01FC000000
01F8000000
03F0000000
07E0000000
0FC0000000
1F8FF00040
3F7FFF03C0
7FFFFFFFE0
FFFFFFFFF0
7FFFFFFFF0
7FFFFFFFF0
3E01FFFFE0
10001FFF80
000001FC00
ENDCHAR
STARTCHAR 00A4
ENCODING 164
SWIDTH 555 0
DWIDTH 40 0
BBX 29 31 5 9
BITMAP
10000000
300000C0
783FC1E0
FCFFF3F0
FFFFFFF8
7FFFFFF0
3FFFFFF0
3FFFFFE0
1FE07FC0
3F801FC0
3F000FC0
3E0007C0
7E0007E0
7C0003E0
7C0003E0
7C0003E0
7C0003E0
7C0003E0
7E0007E0
3E0007C0
3F000FC0
3F801FC0
1FE07F80
3FFFFFC0
7FFFFFE0
7FFFFFF0
FFFFFFF8
FCFFF3F0
7C3FC1E0
380000C0
10000000
ENDCHAR
STARTCHAR 00A5
ENCODING 165
SWIDTH 555 0
DWIDTH 40 0
BBX 36 51 2 0
BITMAP
FC000003F0
7E000003F0
7E000007E0
3F000007E0
1F00000FC0
1F80000FC0
0F80001F80
0FC0001F80
07E0003F00
07E0003F00
03F0007E00
03F0007C00
01F800FC00
01F800F800
00FC01F800
00FC01F000
007E03F000
003E03E000
003F07E000
001F07C000
001F8FC000
000F8F8000
000FDF8000
0007DF0000
0007FF0000
0003FE0000
0FFFFFFF80
0FFFFFFF80
0FFFFFFF80
0FFFFFFF80
0001FC0000
0001FC0000
0001FC0000
0001FC0000
0001FC0000
0FFFFFFF80
0FFFFFFF80
0FFFFFFF80
0FFFFFFF80
0001FC0000
0001FC0000
0001FC0000
0001FC0000
0001FC0000
0001FC0000
0001FC0000
0001FC0000
0001FC0000
0001FC0000
0001FC0000
0001FC0000
ENDCHAR
STARTCHAR 00A6
ENCODING 166
SWIDTH 263 0
DWIDTH 19 0
BBX 4 67 7 -16
BITMAP
F0
F0
F0
F0
F0
F0
F0
F0
F0
F0
F0
F0
F0
F0
F0
F0
F0
F0
F0
F0
F0
F0
F0
F0
F0
F0
F0
F0
F0
00
00
00
00
00
00
00
00
00
F0
F0
F0
F0
F0
F0
F0
F0
F0
F0
F0
F0
F0
F0
F0
F0
F0
F0
F0
F0
F0
F0
F0
F0
F0
F0
F0
F0
F0
ENDCHAR
STARTCHAR 00A7
ENCODING 167
SWIDTH 555 0
DWIDTH 40 0
BBX 33 67 3 -15
BITMAP
0003F80000
001FFE0000
007FFF8000
00FFFFC000
01FFFFE000
03FFFFF000
03FC1FF000
07F807F800
07F003F800
0FE003FC00
0FE001FC00
0FE001FC00
0FE001FC00
0FE001FC00
0FF001FC00
07F0000000
07FC000000
03FE000000
01FF000000
01FFC00000
03FFE00000
0FFFF80000
1FCFFC0000
3F03FF0000
7E01FFC000
7C007FE000
FC003FF000
F8000FFC00
F80007FE00
F80001FE00
F80000FF00
F800007F00
FC00003F80
FE00001F80
7F00001F80
7F80000F80
3FE0000F80
3FF0000F80
1FF8000F80
0FFE000F80
07FF001F00
01FF803F00
00FFE07E00
003FF0FC00
001FFFF800
0007FFF000
0003FFC000
0000FF8000
00007FC000
00001FE000
00000FF000
000007F000
000007F800
3F8003F800
3F8003F800
3F8003F800
3F8003F800
3FC003F800
1FC007F000
1FE00FF000
1FF83FF000
0FFFFFE000
07FFFFC000
03FFFF8000
01FFFF0000
007FFC0000
001FF00000
ENDCHAR
STARTCHAR 00A8
ENCODING 168
SWIDTH 333 0
DWIDTH 24 0
BBX 19 7 2 44
BITMAP
FE0FE0
FE0FE0
FE0FE0
FE0FE0
FE0FE0
FE0FE0
FE0FE0
ENDCHAR
STARTCHAR 00A9
ENCODING 169
SWIDTH 805 0
DWIDTH 58 0
BBX 51 52 3 -1
BITMAP
000007FE000000
00007FFFC00000
0001FFFFF80000
0007FFFFFC0000
001FF803FF0000
003FC0007F8000
007F00001FC000
00FE000007E000
01F8000003F000
03F003FE01F800
07E00FFFC0FC00
0FC03FFFE07E00
0F807FFFF03E00
1F00FFFFF81F00
1F01FE03FC0F00
3E03F800FC0F80
3C03F0007E0780
7C07E0007E07C0
7807C0003F03C0
7807C0000003C0
F80F80000003C0
F00F80000003E0
F00F80000001E0
F00F80000001E0
F00F80000001E0
F00F80000001E0
F00F80000001E0
F00F80000001E0
F00F80000001E0
F00F80000001E0
F00F80001F01E0
780F80003F03C0
7807C0003F03C0
7807C0003F03C0
7C07E0007E07C0
3C03F000FE0780
3E01FC01FC0F80
1E01FF0FFC0F00
1F00FFFFF81F00
0F807FFFF03E00
0FC03FFFE03E00
07E00FFF807C00
03F0007000F800
01F8000003F000
00FC000007E000
007F00001FC000
003FC0007F8000
001FF803FF0000
0007FFFFFC0000
0003FFFFF80000
00007FFFC00000
00000FFE000000
ENDCHAR
STARTCHAR 00AA
ENCODING 170
SWIDTH 375 0
DWIDTH 27 0
BBX 20 32 3 22
BITMAP
03F800
0FFF00
3FFF80
3FFF80
7E0FC0
7C03C0
7803C0
0003C0
0003C0
0003C0
003FC0
07FFC0
1FFFC0
7FE3C0
7C03C0
F803C0
F003C0
F003C0
F007C0
F00FC0
F81FC0
7FFFF0
7FFBF0
3FF1F0
0FC0F0
000000
000000
000000
FFFFF0
FFFFF0
FFFFF0
FFFFF0
ENDCHAR
STARTCHAR 00AB
ENCODING 171
SWIDTH 500 0
DWIDTH 36 0
BBX 26 24 5 8
BITMAP
00200040
006000C0
00E001C0
01E007C0
07E00FC0
0FE01FC0
1FC03F80
3F80FF00
FF01FE00
FE01F800
F801F000
F001E000
F001E000
F801F000
FE01F800
FF01FE00
3F80FF00
1FC03F80
0FE01FC0
07E00FC0
01E007C0
00E001C0
006000C0
00200040
ENDCHAR
STARTCHAR 00AC
ENCODING 172
SWIDTH 583 0
DWIDTH 42 0
BBX 36 20 3 7
BITMAP
FFFFFFFFF0
FFFFFFFFF0
FFFFFFFFF0
FFFFFFFFF0
FFFFFFFFF0
00000001F0
00000001F0
00000001F0
00000001F0
00000001F0
00000001F0
00000001F0
00000001F0
00000001F0
00000001F0
00000001F0
00000001F0
00000001F0
00000001F0
00000001F0
ENDCHAR
STARTCHAR 00AD
ENCODING 173
SWIDTH 333 0
DWIDTH 24 0
BBX 17 5 3 17
BITMAP
FFFF80
FFFF80
FFFF80
FFFF80
FFFF80
ENDCHAR
STARTCHAR 00AE
ENCODING 174
SWIDTH 805 0
DWIDTH 58 0
BBX 51 52 3 -1
BITMAP
000007FE000000
00007FFFC00000
0001FFFFF80000
0007FFFFFC0000
001FF803FF0000
003FC0007F8000
007F00001FC000
00FE000007E000
01F8000003F000
03F0000001F800
07E3FFFF80FC00
0FC3FFFFE07E00
0F83FFFFF03E00
1F03FFFFF81F00
1F03C001F80F00
3E03C0007C0F80
3C03C0007C0780
7C03C0007C07C0
7803C0007C03C0
7803C0007C03C0
F803C0007C03C0
F003C0007C03E0
F003C000F801E0
F003C003F801E0
F003FFFFF001E0
F003FFFFC001E0
F003FFFFE001E0
F003FFFFF001E0
F003C001F801E0
F003C000F801E0
F003C0007801E0
7803C0007803C0
7803C0007803C0
7803C0007803C0
7C03C0007807C0
3C03C000780780
3E03C000780F80
1E03C0007C0F00
1F03C0007C1F00
0F83C0007E3E00
0FC3C0003F3E00
07E00000007C00
03F0000000F800
01F8000003F000
00FC000007E000
007F00001FC000
003FC0007F8000
001FF803FF0000
0007FFFFFC0000
0003FFFFF80000
00007FFFC00000
00000FFE000000
ENDCHAR
STARTCHAR 00AF
ENCODING 175
SWIDTH 333 0
DWIDTH 24 0
BBX 19 5 2 45
BITMAP
FFFFE0
FFFFE0
FFFFE0
FFFFE0
FFFFE0
ENDCHAR
STARTCHAR 00B0
ENCODING 176
SWIDTH 611 0
DWIDTH 44 0
BBX 22 21 11 28
BITMAP
00FC00
07FF80
0FFFC0
1FFFE0
3F03F0
7E01F8
7C0078
F8007C
F0003C
F0003C
F0003C
F0003C
F0003C
F8007C
7800F8
7C01F8
3F03F0
1FFFE0
0FFFC0
07FF80
00FC00
ENDCHAR
STARTCHAR 00B1
ENCODING 177
SWIDTH 583 0
DWIDTH 42 0
BBX 34 45 4 -1
BITMAP
0001F00000
0001F00000
0001F00000
0001F00000
0001F00000
0001F00000
0001F00000
0001F00000
0001F00000
0001F00000
0001F00000
0001F00000
0001F00000
0001F00000
7FFFFFFFC0
7FFFFFFFC0
7FFFFFFFC0
7FFFFFFFC0
7FFFFFFFC0
0001F00000
0001F00000
0001F00000
0001F00000
0001F00000
0001F00000
0001F00000
0001F00000
0001F00000
0001F00000
0001F00000
0001F00000
0001F00000
0001F00000
0001F00000
0000000000
0000000000
0000000000
0000000000
0000000000
0000000000
FFFFFFFFC0
FFFFFFFFC0
FFFFFFFFC0
FFFFFFFFC0
FFFFFFFFC0
ENDCHAR
STARTCHAR 00B2
ENCODING 178
SWIDTH 347 0
DWIDTH 25 0
BBX 22 31 1 28
BITMAP
00FE00
07FFC0
0FFFE0
1FFFF0
3F03F8
3E00F8
7C007C
78003C
78003C
78003C
00003C
00003C
000078
0000F8
0001F8
0007F0
001FE0
007FC0
01FF00
03FC00
07F000
1FC000
1F0000
3E0000
7C0000
7C0000
780000
FFFFFC
FFFFFC
FFFFFC
FFFFFC
ENDCHAR
STARTCHAR 00B3
ENCODING 179
SWIDTH 347 0
DWIDTH 25 0
BBX 22 32 1 27
BITMAP
01FE00
07FF80
0FFFE0
1FFFE0
3F03F0
3C00F0
7C00F8
780078
780078
780078
000078
0000F8
0003F0
007FE0
007FC0
007FE0
007FF0
0001F8
0000F8
00007C
00003C
00003C
F0003C
F0003C
F0003C
F8007C
7C00F8
7F03F8
3FFFF0
1FFFE0
0FFF80
01FE00
ENDCHAR
STARTCHAR 00B4
ENCODING 180
SWIDTH 333 0
DWIDTH 24 0
BBX 15 11 7 42
BITMAP
01FE
03FC
07F8
07F0
0FE0
1FC0
1F80
3F00
3E00
7C00
F800
ENDCHAR
STARTCHAR 00B5
ENCODING 181
SWIDTH 555 0
DWIDTH 40 0
BBX 35 54 5 -16
BITMAP
FC0000FC00
FC0000FC00
FC0000FC00
FC0000FC00
FC0000FC00
FC0000FC00
FC0000FC00
FC0000FC00
FC0000FC00
FC0000FC00
FC0000FC00
FC0000FC00
FC0000FC00
FC0000FC00
FC0000FC00
FC0000FC00
FC0000FC00
FC0000FC00
FC0000FC00
FC0000FC00
FC0000FC00
FC0000FC00
FC0000FC00
FC0000FC00
FC0000FC00
FC0000FC00
FC0001FC00
FC0001FC00
FC0001FC00
FC0003FC00
FE0003FC00
FE0007FC00
FF000FFC00
FF801FFC00
FFE0FFFE00
FFFFFEFFE0
FFFFFC7FE0
FFFFF87FE0
FDFFE03FE0
FC7F801FC0
FC00000000
FC00000000
FC00000000
FC00000000
FC00000000
FC00000000
FC00000000
FC00000000
FC00000000
FC00000000
FC00000000
FC00000000
FC00000000
FC00000000
ENDCHAR
STARTCHAR 00B6
ENCODING 182
SWIDTH 541 0
DWIDTH 39 0
BBX 34 65 3 -13
BITMAP
000FFFFFC0
007FFFFFC0
00FFFFFFC0
03FFFFFFC0
07FFFFFFC0
0FFFE03C00
1FFFE03C00
1FFFE03C00
3FFFE03C00
3FFFE03C00
7FFFE03C00
7FFFE03C00
7FFFE03C00
FFFFE03C00
FFFFE03C00
FFFFE03C00
FFFFE03C00
FFFFE03C00
FFFFE03C00
FFFFE03C00
FFFFE03C00
FFFFE03C00
7FFFE03C00
7FFFE03C00
7FFFE03C00
3FFFE03C00
3FFFE03C00
1FFFE03C00
0FFFE03C00
07FFE03C00
03FFE03C00
01FFE03C00
007FE03C00
0007E03C00
0001E03C00
0001E03C00
0001E03C00
0001E03C00
0001E03C00
0001E03C00
0001E03C00
0001E03C00
0001E03C00
0001E03C00
0001E03C00
0001E03C00
0001E03C00
0001E03C00
0001E03C00
0001E03C00
0001E03C00
0001E03C00
0001E03C00
0001E03C00
0001E03C00
0001E03C00
0001E03C00
0001E03C00
0001E03C00
0001E03C00
0001E03C00
0001E03C00
0001E03C00
0001E03C00
0001E03C00
ENDCHAR
STARTCHAR 00B7
ENCODING 183
SWIDTH 250 0
DWIDTH 18 0
BBX 7 7 6 17
BITMAP
FE
FE
FE
FE
FE
FE
FE
ENDCHAR
STARTCHAR 00B8
ENCODING 184
SWIDTH 333 0
DWIDTH 24 0
BBX 17 15 3 -15
BITMAP
00E000
00E000
00C000
01C000
01FC00
03FF00
03FF80
001F80
000F80
000F80
400F80
F83F00
FFFF00
3FFE00
07F000
ENDCHAR
STARTCHAR 00B9
ENCODING 185
SWIDTH 347 0
DWIDTH 25 0
BBX 11 30 5 27
BITMAP
00E0
00E0
01E0
01E0
03E0
0FE0
FFE0
FFE0
FFE0
01E0
01E0
01E0
01E0
01E0
01E0
01E0
01E0
01E0
01E0
01E0
01E0
01E0
01E0
01E0
01E0
01E0
01E0
01E0
01E0
01E0
ENDCHAR
STARTCHAR 00BA
ENCODING 186
SWIDTH 361 0
DWIDTH 26 0
BBX 20 32 3 22
BITMAP
01F800
07FE00
1FFF80
3FFFC0
3F0FC0
7C03E0
7801E0
7801E0
F801F0
F000F0
F000F0
F000F0
F000F0
F000F0
F000F0
F000F0
F801F0
7801E0
7801E0
7C03E0
3F0FC0
3FFFC0
1FFF80
0FFE00
01F800
000000
000000
000000
7FFFE0
7FFFE0
7FFFE0
7FFFE0
ENDCHAR
STARTCHAR 00BB
ENCODING 187
SWIDTH 500 0
DWIDTH 36 0
BBX 26 24 5 7
BITMAP
80010000
C0018000
E001C000
F801E000
FC01F800
FE01FC00
7F00FE00
3FC07F00
1FE03FC0
07E01FC0
03E007C0
01E003C0
01E003C0
03E007C0
07E01FC0
1FE03FC0
3FC07F00
7F00FE00
FE01FC00
FC01F800
F801E000
E001C000
C0018000
80010000
ENDCHAR
STARTCHAR 00BC
ENCODING 188
SWIDTH 875 0
DWIDTH 63 0
BBX 56 53 5 -2
BITMAP
00E00000000000
00E00000007800
01E0000000F800
01E0000000F000
03E0000001E000
0FE0000001E000
FFE0000003C000
FFE0000007C000
FFE00000078000
01E000000F0000
01E000000F0000
01E000001E0000
01E000003C0000
01E000003C0000
01E00000780000
01E00000F80000
01E00000F00000
01E00001E00000
01E00001E00000
01E00003C00000
01E00007800000
01E00007800000
01E0000F0000E0
01E0001F0001E0
01E0001E0003E0
01E0003C0007E0
01E0003C000FE0
01E00078000FE0
01E000F8001FE0
01E000F0003DE0
000001E0007DE0
000003E000F9E0
000003C000F1E0
0000078001E1E0
0000078003E1E0
00000F0007C1E0
00001F000F81E0
00001E001F01E0
00003C001F01E0
00007C003E01E0
000078007C01E0
0000F0007FFFFF
0000F0007FFFFF
0001E0007FFFFF
0003E0007FFFFF
0003C0000001E0
000780000001E0
000F80000001E0
000F00000001E0
001E00000001E0
001E00000001E0
003C00000001E0
007C0000000000
ENDCHAR
STARTCHAR 00BD
ENCODING 189
SWIDTH 875 0
DWIDTH 63 0
BBX 55 53 5 -1
BITMAP
00E00000000000
00E0000003E000
01E0000003C000
01E0000007C000
03E00000078000
0FE000000F0000
FFE000001F0000
FFE000001E0000
FFE000003E0000
01E000003C0000
01E00000780000
01E00000F80000
01E00000F00000
01E00001E00000
01E00001E00000
01E00003C00000
01E00007C00000
01E00007800000
01E0000F000000
01E0000F000000
01E0001E000000
01E0003E007F00
01E0003C03FFE0
01E0007807FFF0
01E000780FFFF8
01E000F01F81FC
01E001F01F007C
01E001E03E003E
01E003C03C001E
01E003C03C001E
000007803C001E
00000F0000001E
00000F0000001E
00001E0000003C
00001E0000007C
00003C000000FC
000078000003F8
00007800000FF0
0000F000003FE0
0000F00000FF80
0001E00001FE00
0003C00003F800
0003C00007E000
000780000F8000
000F00001F0000
000F00001E0000
001E00003E0000
001E00003C0000
003C00003FFFFE
007800007FFFFE
007800007FFFFE
00F000007FFFFE
00F00000000000
ENDCHAR
STARTCHAR 00BE
ENCODING 190
SWIDTH 875 0
DWIDTH 63 0
BBX 58 53 2 -2
BITMAP
01FC000000000000
07FF8000000F0000
0FFFC000001E0000
1FFFE000003E0000
3F07E000003C0000
3C01F000007C0000
7C00F00000780000
7800F00000F00000
7800F00001F00000
7800F00001E00000
0001F00003C00000
0003E00007C00000
00FFC00007800000
00FF80000F000000
00FFC0000F000000
00FFE0001E000000
0003F0003E000000
0000F0003C000000
0000F80078000000
00007800F8000000
00007800F0000000
F0007801E0000000
F0007801E0003800
F0007803C0007800
F800F807C000F800
7C01F0078001F800
7E03F00F0003F800
3FFFE01F0003F800
1FFFC01E0007F800
0FFF803C000FF800
01FC003C001F7800
00000078003E7800
000000F8003C7800
000000F000787800
000001E000F87800
000003E001F07800
000003C003E07800
0000078007C07800
0000078007807800
00000F000F807800
00001F001F007800
00001E001FFFFFC0
00003C001FFFFFC0
00007C001FFFFFC0
000078001FFFFFC0
0000F00000007800
0000F00000007800
0001E00000007800
0003C00000007800
0003C00000007800
0007800000007800
000F800000007800
000F000000000000
ENDCHAR
STARTCHAR 00BF
ENCODING 191
SWIDTH 555 0
DWIDTH 40 0
BBX 31 53 7 -15
BITMAP
000FE000
000FE000
000FE000
000FE000
000FE000
000FE000
000FE000
00000000
00000000
00000000
00000000
00000000
00000000
00000000
000FE000
000FE000
000FE000
000FE000
000FE000
000FE000
001FE000
001FC000
003FC000
003F8000
007F0000
00FE0000
01FC0000
07F80000
0FF00000
1FE00000
1FC00000
3FC00000
7F800000
7F000000
7F000000
FF000000
FE000000
FE0000FE
FE0000FE
FE0000FE
FE0000FE
FE0001FE
FF0001FC
7F0001FC
7F8003FC
7FC007F8
3FF01FF8
1FFFFFF0
1FFFFFE0
0FFFFFC0
03FFFF80
01FFFE00
003FF000
ENDCHAR
STARTCHAR 00C0
ENCODING 192
SWIDTH 666 0
DWIDTH 48 0
BBX 46 65 1 0
BITMAP
0003FC000000
0001FE000000
0000FF000000
00007F000000
00001F800000
00000FC00000
000007E00000
000001F00000
000000F80000
000000000000
000000000000
000000000000
000000000000
00001FF00000
00003FF00000
00003FF00000
00003FF80000
00007FF80000
00007FF80000
0000FFFC0000
0000FFFC0000
0000FEFC0000
0001FCFE0000
0001FCFE0000
0001FC7F0000
0003F87F0000
0003F87F0000
0003F03F8000
0007F03F8000
0007F03F8000
000FE01FC000
000FE01FC000
000FE01FC000
001FC00FE000
001FC00FE000
001FC00FE000
003F8007F000
003F8007F000
003F0007F000
007F0003F800
007F0003F800
007E0003FC00
00FE0001FC00
00FE0001FC00
01FFFFFFFE00
01FFFFFFFE00
01FFFFFFFE00
03FFFFFFFF00
03FFFFFFFF00
03FFFFFFFF00
07F800007F80
07F000003F80
07F000003F80
0FE000003FC0
0FE000001FC0
1FE000001FE0
1FC000001FE0
1FC000000FE0
3FC000000FF0
3F8000000FF0
3F80000007F0
7F80000007F8
7F00000007F8
7F00000003F8
FE00000003FC
ENDCHAR
STARTCHAR 00C1
ENCODING 193
SWIDTH 666 0
DWIDTH 48 0
BBX 46 65 1 0
BITMAP
0000003FC000
0000007F8000
000000FF0000
000000FE0000
000001F80000
000003F00000
000007E00000
00000F800000
00001F000000
000000000000
000000000000
000000000000
000000000000
00001FF00000
00003FF00000
00003FF00000
00003FF80000
00007FF80000
00007FF80000
0000FFFC0000
0000FFFC0000
0000FEFC0000
0001FCFE0000
0001FCFE0000
0001FC7F0000
0003F87F0000
0003F87F0000
0003F03F8000
0007F03F8000
0007F03F8000
000FE01FC000
000FE01FC000
000FE01FC000
001FC00FE000
001FC00FE000
001FC00FE000
003F8007F000
003F8007F000
003F0007F000
007F0003F800
007F0003F800
007E0003FC00
00FE0001FC00
00FE0001FC00
01FFFFFFFE00
01FFFFFFFE00
01FFFFFFFE00
03FFFFFFFF00
03FFFFFFFF00
03FFFFFFFF00
07F800007F80
07F000003F80
07F000003F80
0FE000003FC0
0FE000001FC0
1FE000001FE0
1FC000001FE0
1FC000000FE0
3FC000000FF0
3F8000000FF0
3F80000007F0
7F80000007F8
7F00000007F8
7F00000003F8
FE00000003FC
ENDCHAR
STARTCHAR 00C2
ENCODING 194
SWIDTH 666 0
DWIDTH 48 0
BBX 46 65 1 0
BITMAP
00003FC00000
00003FC00000
00007FE00000
0000FFF00000
0001FFF80000
0001F9F80000
0003F0FC0000
0007C03E0000
000F801F0000
000000000000
000000000000
000000000000
000000000000
00001FF00000
00003FF00000
00003FF00000
00003FF80000
00007FF80000
00007FF80000
0000FFFC0000
0000FFFC0000
0000FEFC0000
0001FCFE0000
0001FCFE0000
0001FC7F0000
0003F87F0000
0003F87F0000
0003F03F8000
0007F03F8000
0007F03F8000
000FE01FC000
000FE01FC000
000FE01FC000
001FC00FE000
001FC00FE000
001FC00FE000
003F8007F000
003F8007F000
003F0007F000
007F0003F800
007F0003F800
007E0003FC00
00FE0001FC00
00FE0001FC00
01FFFFFFFE00
01FFFFFFFE00
01FFFFFFFE00
03FFFFFFFF00
03FFFFFFFF00
03FFFFFFFF00
07F800007F80
07F000003F80
07F000003F80
0FE000003FC0
0FE000001FC0
1FE000001FE0
1FC000001FE0
1FC000000FE0
3FC000000FF0
3F8000000FF0
3F80000007F0
7F80000007F8
7F00000007F8
7F00000003F8
FE00000003FC
ENDCHAR
STARTCHAR 00C3
ENCODING 195
SWIDTH 666 0
DWIDTH 48 0
BBX 46 64 1 1
BITMAP
0001F8078000
0003FE078000
0007FFCF8000
0007FFFF8000
000FFFFF0000
000F87FF0000
000F01FE0000
000F00380000
000000000000
000000000000
000000000000
000000000000
00001FF00000
00003FF00000
00003FF00000
00003FF80000
00007FF80000
00007FF80000
0000FFFC0000
0000FFFC0000
0000FEFC0000
0001FCFE0000
0001FCFE0000
0001FC7F0000
0003F87F0000
0003F87F0000
0003F03F8000
0007F03F8000
0007F03F8000
000FE01FC000
000FE01FC000
000FE01FC000
001FC00FE000
001FC00FE000
001FC00FE000
003F8007F000
003F8007F000
003F0007F000
007F0003F800
007F0003F800
007E0003FC00
00FE0001FC00
00FE0001FC00
01FFFFFFFE00
01FFFFFFFE00
01FFFFFFFE00
03FFFFFFFF00
03FFFFFFFF00
03FFFFFFFF00
07F800007F80
07F000003F80
07F000003F80
0FE000003FC0
0FE000001FC0
1FE000001FE0
1FC000001FE0
1FC000000FE0
3FC000000FF0
3F8000000FF0
3F80000007F0
7F80000007F8
7F00000007F8
7F00000003F8
FE00000003FC
ENDCHAR
STARTCHAR 00C4
ENCODING 196
SWIDTH 666 0
DWIDTH 48 0
BBX 46 63 1 0
BITMAP
0003F83F8000
0003F83F8000
0003F83F8000
0003F83F8000
0003F83F8000
0003F83F8000
0003F83F8000
000000000000
000000000000
000000000000
000000000000
00001FF00000
00003FF00000
00003FF00000
00007FF80000
00007FF80000
00007FF80000
0000FFFC0000
0000FFFC0000
0000FEFC0000
0001FCFE0000
0001FCFE0000
0001F87F0000
0003F87F0000
0003F87F0000
0003F03F8000
0007F03F8000
0007F03F8000
000FE01FC000
000FE01FC000
000FE01FC000
001FC00FE000
001FC00FE000
001F800FE000
003F8007F000
003F8007F000
003F0007F800
007F0003F800
007F0003F800
00FE0003FC00
00FE0001FC00
00FE0001FC00
01FFFFFFFE00
01FFFFFFFE00
01FFFFFFFE00
03FFFFFFFF00
03FFFFFFFF00
03FFFFFFFF00
07F800007F80
07F000003F80
07F000003F80
0FE000003FC0
0FE000001FC0
1FE000001FE0
1FC000001FE0
1FC000000FE0
3FC000000FF0
3F8000000FF0
3F80000007F0
7F00000007F8
7F00000003F8
7F00000003F8
FE00000003FC
ENDCHAR
STARTCHAR 00C5
ENCODING 197
SWIDTH 666 0
DWIDTH 48 0
BBX 46 69 1 0
BITMAP
00000F800000
00003FE00000
00007FF00000
0000FFF80000
0000F8F80000
0001F07C0000
0001E03C0000
0001E03C0000
0001E03C0000
0001F07C0000
0000F8FC0000
0000FFF80000
00007FF00000
00003FE00000
00000FC00000
000000000000
000000000000
00001FF00000
00003FF00000
00003FF00000
00003FF80000
00007FF80000
00007FF80000
0000FFFC0000
0000FFFC0000
0000FEFC0000
0001FCFE0000
0001FCFE0000
0001FC7F0000
0003F87F0000
0003F87F0000
0003F03F8000
0007F03F8000
0007F03F8000
000FE01FC000
000FE01FC000
000FE01FC000
001FC00FE000
001FC00FE000
001FC00FE000
003F8007F000
003F8007F000
003F0007F000
007F0003F800
007F0003F800
007E0003FC00
00FE0001FC00
00FE0001FC00
01FFFFFFFE00
01FFFFFFFE00
01FFFFFFFE00
03FFFFFFFF00
03FFFFFFFF00
03FFFFFFFF00
07F800007F80
07F000003F80
07F000003F80
0FE000003FC0
0FE000001FC0
1FE000001FE0
1FC000001FE0
1FC000000FE0
3FC000000FF0
3F8000000FF0
3F80000007F0
7F80000007F8
7F00000007F8
7F00000003F8
FE00000003FC
ENDCHAR
STARTCHAR 00C6
ENCODING 198
SWIDTH 986 0
DWIDTH 71 0
BBX 67 52 1 0
BITMAP
000007FFFFFFFFFFC0
000007FFFFFFFFFFC0
000007FFFFFFFFFFC0
00000FFFFFFFFFFFC0
00000FFFFFFFFFFFC0
00001FFFFFFFFFFFC0
00001FC07F00000000
00001F807F00000000
00003F807F00000000
00003F007F00000000
00007F007F00000000
00007F007F00000000
0000FE007F00000000
0000FE007F00000000
0000FC007F00000000
0001FC007F00000000
0001FC007F00000000
0003F8007F00000000
0003F8007F00000000
0003F0007F00000000
0007F0007F00000000
0007F0007F00000000
000FE0007FFFFFFF80
000FE0007FFFFFFF80
001FC0007FFFFFFF80
001FC0007FFFFFFF80
001FC0007FFFFFFF80
003F80007FFFFFFF80
003F80007F00000000
007F00007F00000000
007F00007F00000000
007FFFFFFF00000000
00FFFFFFFF00000000
00FFFFFFFF00000000
01FFFFFFFF00000000
01FFFFFFFF00000000
03FFFFFFFF00000000
03F800007F00000000
03F800007F00000000
07F800007F00000000
07F000007F00000000
0FF000007F00000000
0FE000007F00000000
0FE000007F00000000
1FE000007F00000000
1FC000007F00000000
3FC000007FFFFFFFE0
3F8000007FFFFFFFE0
3F8000007FFFFFFFE0
7F8000007FFFFFFFE0
7F0000007FFFFFFFE0
FF0000007FFFFFFFE0
ENDCHAR
STARTCHAR 00C7
ENCODING 199
SWIDTH 708 0
DWIDTH 51 0
BBX 45 68 3 -15
BITMAP
00001FF80000
0001FFFF8000
0007FFFFE000
001FFFFFF000
007FFFFFFC00
00FFFFFFFE00
01FFE00FFF00
03FF0001FF00
03FE0000FF80
07F800007FC0
0FF000003FC0
0FF000001FC0
1FE000001FE0
1FC000000FE0
3FC000000FE0
3F80000007F0
3F80000007F0
7F0000000000
7F0000000000
7F0000000000
7F0000000000
FE0000000000
FE0000000000
FE0000000000
FE0000000000
FE0000000000
FE0000000000
FE0000000000
FE0000000000
FE0000000000
FE0000000000
FE0000000000
FE0000000000
FE0000000000
7F0000000000
7F00000003F8
7F00000003F8
7F00000007F8
3F80000007F0
3F80000007F0
3FC000000FF0
1FC000000FF0
1FE000000FE0
0FF000001FE0
0FF800003FC0
07FC00007FC0
03FE0000FF80
03FF8001FF80
01FFE00FFF00
00FFFFFFFE00
007FFFFFFC00
001FFFFFF800
000FFFFFE000
0003FFFF8000
00003FF80000
000006000000
00000E000000
00000FE00000
00001FF80000
00001FFC0000
000000FC0000
0000007C0000
0000007C0000
0003007C0000
0007C1F80000
0007FFF80000
0001FFF00000
00003F800000
ENDCHAR
STARTCHAR 00C8
ENCODING 200
SWIDTH 638 0
DWIDTH 46 0
BBX 37 65 6 0
BITMAP
003FC00000
001FE00000
000FF00000
0007F00000
0001F80000
0000FC0000
00007E0000
00001F0000
00000F8000
0000000000
0000000000
0000000000
0000000000
FFFFFFFFF0
FFFFFFFFF0
FFFFFFFFF0
FFFFFFFFF0
FFFFFFFFF0
FFFFFFFFF0
FE00000000
FE00000000
FE00000000
FE00000000
FE00000000
FE00000000
FE00000000
FE00000000
FE00000000
FE00000000
FE00000000
FE00000000
FE00000000
FE00000000
FE00000000
FE00000000
FFFFFFFFE0
FFFFFFFFE0
FFFFFFFFE0
FFFFFFFFE0
FFFFFFFFE0
FFFFFFFFE0
FE00000000
FE00000000
FE00000000
FE00000000
FE00000000
FE00000000
FE00000000
FE00000000
FE00000000
FE00000000
FE00000000
FE00000000
FE00000000
FE00000000
FE00000000
FE00000000
FE00000000
FE00000000
FFFFFFFFF8
FFFFFFFFF8
FFFFFFFFF8
FFFFFFFFF8
FFFFFFFFF8
FFFFFFFFF8
ENDCHAR
STARTCHAR 00C9
ENCODING 201
SWIDTH 638 0
DWIDTH 46 0
BBX 37 65 6 0
BITMAP
00001FE000
00003FC000
00007F8000
00007F0000
0000FC0000
0001F80000
0003F00000
0007C00000
000F800000
0000000000
0000000000
0000000000
0000000000
FFFFFFFFF0
FFFFFFFFF0
FFFFFFFFF0
FFFFFFFFF0
FFFFFFFFF0
FFFFFFFFF0
FE00000000
FE00000000
FE00000000
FE00000000
FE00000000
FE00000000
FE00000000
FE00000000
FE00000000
FE00000000
FE00000000
FE00000000
FE00000000
FE00000000
FE00000000
FE00000000
FFFFFFFFE0
FFFFFFFFE0
FFFFFFFFE0
FFFFFFFFE0
FFFFFFFFE0
FFFFFFFFE0
FE00000000
FE00000000
FE00000000
FE00000000
FE00000000
FE00000000
FE00000000
FE00000000
FE00000000
FE00000000
FE00000000
FE00000000
FE00000000
FE00000000
FE00000000
FE00000000
FE00000000
FE00000000
FFFFFFFFF8
FFFFFFFFF8
FFFFFFFFF8
FFFFFFFFF8
FFFFFFFFF8
FFFFFFFFF8
ENDCHAR
STARTCHAR 00CA
ENCODING 202
SWIDTH 638 0
DWIDTH 46 0
BBX 37 65 6 0
BITMAP
0007F80000
0007F80000
000FFC0000
001FFE0000
003FFF0000
003F3F0000
007E1F8000
00F807C000
01F003E000
0000000000
0000000000
0000000000
0000000000
FFFFFFFFF0
FFFFFFFFF0
FFFFFFFFF0
FFFFFFFFF0
FFFFFFFFF0
FFFFFFFFF0
FE00000000
FE00000000
FE00000000
FE00000000
FE00000000
FE00000000
FE00000000
FE00000000
FE00000000
FE00000000
FE00000000
FE00000000
FE00000000
FE00000000
FE00000000
FE00000000
FFFFFFFFE0
FFFFFFFFE0
FFFFFFFFE0
FFFFFFFFE0
FFFFFFFFE0
FFFFFFFFE0
FE00000000
FE00000000
FE00000000
FE00000000
FE00000000
FE00000000
FE00000000
FE00000000
FE00000000
FE00000000
FE00000000
FE00000000
FE00000000
FE00000000
FE00000000
FE00000000
FE00000000
FE00000000
FFFFFFFFF8
FFFFFFFFF8
FFFFFFFFF8
FFFFFFFFF8
FFFFFFFFF8
FFFFFFFFF8
ENDCHAR
STARTCHAR 00CB
ENCODING 203
SWIDTH 638 0
DWIDTH 46 0
BBX 37 63 6 1
BITMAP
00FE0FE000
00FE0FE000
00FE0FE000
00FE0FE000
00FE0FE000
00FE0FE000
00FE0FE000
0000000000
0000000000
0000000000
0000000000
FFFFFFFFF0
FFFFFFFFF0
FFFFFFFFF0
FFFFFFFFF0
FFFFFFFFF0
FFFFFFFFF0
FE00000000
FE00000000
FE00000000
FE00000000
FE00000000
FE00000000
FE00000000
FE00000000
FE00000000
FE00000000
FE00000000
FE00000000
FE00000000
FE00000000
FE00000000
FE00000000
FFFFFFFFE0
FFFFFFFFE0
FFFFFFFFE0
FFFFFFFFE0
FFFFFFFFE0
FFFFFFFFE0
FE00000000
FE00000000
FE00000000
FE00000000
FE00000000
FE00000000
FE00000000
FE00000000
FE00000000
FE00000000
FE00000000
FE00000000
FE00000000
FE00000000
FE00000000
FE00000000
FE00000000
FE00000000
FFFFFFFFF8
FFFFFFFFF8
FFFFFFFFF8
FFFFFFFFF8
FFFFFFFFF8
FFFFFFFFF8
ENDCHAR
STARTCHAR 00CC
ENCODING 204
SWIDTH 277 0
DWIDTH 20 0
BBX 15 65 1 0
BITMAP
FF00
7F80
3FC0
1FC0
07E0
03F0
01F8
007C
003E
0000
0000
0000
0000
03F8
03F8
03F8
03F8
03F8
03F8
03F8
03F8
03F8
03F8
03F8
03F8
03F8
03F8
03F8
03F8
03F8
03F8
03F8
03F8
03F8
03F8
03F8
03F8
03F8
03F8
03F8
03F8
03F8
03F8
03F8
03F8
03F8
03F8
03F8
03F8
03F8
03F8
03F8
03F8
03F8
03F8
03F8
03F8
03F8
03F8
03F8
03F8
03F8
03F8
03F8
03F8
ENDCHAR
STARTCHAR 00CD
ENCODING 205
SWIDTH 277 0
DWIDTH 20 0
BBX 15 65 4 0
BITMAP
01FE
03FC
07F8
07F0
0FC0
1F80
3F00
7C00
F800
0000
0000
0000
0000
1FC0
1FC0
1FC0
1FC0
1FC0
1FC0
1FC0
1FC0
1FC0
1FC0
1FC0
1FC0
1FC0
1FC0
1FC0
1FC0
1FC0
1FC0
1FC0
1FC0
1FC0
1FC0
1FC0
1FC0
1FC0
1FC0
1FC0
1FC0
1FC0
1FC0
1FC0
1FC0
1FC0
1FC0
1FC0
1FC0
1FC0
1FC0
1FC0
1FC0
1FC0
1FC0
1FC0
1FC0
1FC0
1FC0
1FC0
1FC0
1FC0
1FC0
1FC0
1FC0
ENDCHAR
STARTCHAR 00CE
ENCODING 206
SWIDTH 305 0
DWIDTH 22 0
BBX 20 65 0 0
BITMAP
03FC00
03FC00
07FE00
0FFF00
1FFF80
1F9F80
3F0FC0
7C03E0
F801F0
000000
000000
000000
000000
01FC00
01FC00
01FC00
01FC00
01FC00
01FC00
01FC00
01FC00
01FC00
01FC00
01FC00
01FC00
01FC00
01FC00
01FC00
01FC00
01FC00
01FC00
01FC00
01FC00
01FC00
01FC00
01FC00
01FC00
01FC00
01FC00
01FC00
01FC00
01FC00
01FC00
01FC00
01FC00
01FC00
01FC00
01FC00
01FC00
01FC00
01FC00
01FC00
01FC00
01FC00
01FC00
01FC00
01FC00
01FC00
01FC00
01FC00
01FC00
01FC00
01FC00
01FC00
01FC00
ENDCHAR
STARTCHAR 00CF
ENCODING 207
SWIDTH 305 0
DWIDTH 22 0
BBX 19 63 1 0
BITMAP
FE0FE0
FE0FE0
FE0FE0
FE0FE0
FE0FE0
FE0FE0
FE0FE0
000000
000000
000000
000000
03F800
03F800
03F800
03F800
03F800
03F800
03F800
03F800
03F800
03F800
03F800
03F800
03F800
03F800
03F800
03F800
03F800
03F800
03F800
03F800
03F800
03F800
03F800
03F800
03F800
03F800
03F800
03F800
03F800
03F800
03F800
03F800
03F800
03F800
03F800
03F800
03F800
03F800
03F800
03F800
03F800
03F800
03F800
03F800
03F800
03F800
03F800
03F800
03F800
03F800
03F800
03F800
ENDCHAR
STARTCHAR 00D0
ENCODING 208
SWIDTH 708 0
DWIDTH 51 0
BBX 46 52 2 0
BITMAP
0FFFFFFC0000
0FFFFFFF8000
0FFFFFFFE000
0FFFFFFFF000
0FFFFFFFFC00
0FFFFFFFFE00
0FE0000FFF00
0FE00001FF80
0FE00000FF80
0FE000003FC0
0FE000001FE0
0FE000001FE0
0FE000000FF0
0FE0000007F0
0FE0000007F0
0FE0000007F8
0FE0000003F8
0FE0000003F8
0FE0000003F8
0FE0000003FC
0FE0000001FC
0FE0000001FC
0FE0000001FC
FFFFFE0001FC
FFFFFE0001FC
FFFFFE0001FC
FFFFFE0001FC
FFFFFE0001FC
0FE0000001FC
0FE0000001FC
0FE0000001FC
0FE0000001FC
0FE0000003FC
0FE0000003F8
0FE0000003F8
0FE0000003F8
0FE0000007F8
0FE0000007F0
0FE0000007F0
0FE000000FF0
0FE000001FE0
0FE000001FE0
0FE000003FC0
0FE00000FF80
0FE00001FF80
0FE0000FFF00
0FFFFFFFFE00
0FFFFFFFFC00
0FFFFFFFF800
0FFFFFFFE000
0FFFFFFF8000
0FFFFFFC0000
ENDCHAR
STARTCHAR 00D1
ENCODING 209
SWIDTH 736 0
DWIDTH 53 0
BBX 41 63 6 1
BITMAP
000F803C0000
001FE03C0000
003FFC7C0000
003FFFFC0000
007FFFF80000
007C7FF80000
00781FF00000
00F803C00000
000000000000
000000000000
000000000000
FF0000003F80
FF8000003F80
FF8000003F80
FFC000003F80
FFE000003F80
FFE000003F80
FFF000003F80
FFF000003F80
FFF800003F80
FFFC00003F80
FFFC00003F80
FEFE00003F80
FE7F00003F80
FE7F00003F80
FE3F80003F80
FE3F80003F80
FE1FC0003F80
FE0FE0003F80
FE0FE0003F80
FE07F0003F80
FE03F0003F80
FE03F8003F80
FE01FC003F80
FE01FC003F80
FE00FE003F80
FE007F003F80
FE007F003F80
FE003F803F80
FE003F803F80
FE001FC03F80
FE000FE03F80
FE000FE03F80
FE0007F03F80
FE0007F03F80
FE0003F83F80
FE0001FC3F80
FE0001FC3F80
FE0000FE3F80
FE00007F3F80
FE00007F3F80
FE00003FBF80
FE00003FBF80
FE00001FFF80
FE00000FFF80
FE00000FFF80
FE000007FF80
FE000007FF80
FE000003FF80
FE000001FF80
FE000001FF80
FE000000FF80
FE0000007F80
ENDCHAR
STARTCHAR 00D2
ENCODING 210
SWIDTH 777 0
DWIDTH 56 0
BBX 51 67 3 -2
BITMAP
0000FF00000000
00007F80000000
00003FC0000000
00001FC0000000
000007E0000000
000003F0000000
000001F8000000
0000007C000000
0000003E000000
00000000000000
00000000000000
00000000000000
00000FFE000000
0000FFFFE00000
0003FFFFF80000
000FFFFFFE0000
001FFFFFFF0000
007FFFFFFFC000
00FFF803FFE000
01FFC0007FF000
03FF00001FF800
07FE00000FFC00
07F8000007FC00
0FF0000003FE00
1FF0000001FE00
1FE0000000FF00
3FC00000007F00
3FC00000007F80
3F800000003F80
7F800000003FC0
7F000000001FC0
7F000000001FC0
7F000000001FC0
FF000000001FC0
FE000000000FE0
FE000000000FE0
FE000000000FE0
FE000000000FE0
FE000000000FE0
FE000000000FE0
FE000000000FE0
FE000000000FE0
FE000000000FE0
FE000000000FE0
FE000000000FE0
FF000000001FE0
7F000000001FC0
7F000000001FC0
7F000000001FC0
7F800000003FC0
3F800000003F80
3FC00000007F80
3FC00000007F00
1FE0000000FF00
1FF0000001FE00
0FF0000001FE00
07F8000003FC00
07FE00000FFC00
03FF00001FF800
01FFC0007FF000
00FFF803FFE000
007FFFFFFFC000
003FFFFFFF8000
000FFFFFFE0000
0003FFFFF80000
0000FFFFE00000
00000FFE000000
ENDCHAR
STARTCHAR 00D3
ENCODING 211
SWIDTH 777 0
DWIDTH 56 0
BBX 51 67 3 -2
BITMAP
0000001FE00000
0000003FC00000
0000007F800000
0000007F000000
000000FC000000
000001F8000000
000003F0000000
000007C0000000
00000F80000000
00000000000000
00000000000000
00000000000000
00000FFE000000
0000FFFFE00000
0003FFFFF80000
000FFFFFFE0000
001FFFFFFF0000
007FFFFFFFC000
00FFF803FFE000
01FFC0007FF000
03FF00001FF800
07FE00000FFC00
07F8000007FC00
0FF0000003FE00
1FF0000001FE00
1FE0000000FF00
3FC00000007F00
3FC00000007F80
3F800000003F80
7F800000003FC0
7F000000001FC0
7F000000001FC0
7F000000001FC0
FF000000001FC0
FE000000000FE0
FE000000000FE0
FE000000000FE0
FE000000000FE0
FE000000000FE0
FE000000000FE0
FE000000000FE0
FE000000000FE0
FE000000000FE0
FE000000000FE0
FE000000000FE0
FF000000001FE0
7F000000001FC0
7F000000001FC0
7F000000001FC0
7F800000003FC0
3F800000003F80
3FC00000007F80
3FC00000007F00
1FE0000000FF00
1FF0000001FE00
0FF0000001FE00
07F8000003FC00
07FE00000FFC00
03FF00001FF800
01FFC0007FF000
00FFF803FFE000
007FFFFFFFC000
003FFFFFFF8000
000FFFFFFE0000
0003FFFFF80000
0000FFFFE00000
00000FFE000000
ENDCHAR
STARTCHAR 00D4
ENCODING 212
SWIDTH 777 0
DWIDTH 56 0
BBX 51 67 3 -2
BITMAP
000007F8000000
000007F8000000
00000FFC000000
00001FFE000000
00003FFF000000
00003F3F000000
00007E1F800000
0000F807C00000
0001F003E00000
00000000000000
00000000000000
00000000000000
00000FFE000000
0000FFFFE00000
0003FFFFF80000
000FFFFFFE0000
001FFFFFFF0000
007FFFFFFFC000
00FFF803FFE000
01FFC0007FF000
03FF00001FF800
07FE00000FFC00
07F8000007FC00
0FF0000003FE00
1FF0000001FE00
1FE0000000FF00
3FC00000007F00
3FC00000007F80
3F800000003F80
7F800000003FC0
7F000000001FC0
7F000000001FC0
7F000000001FC0
FF000000001FC0
FE000000000FE0
FE000000000FE0
FE000000000FE0
FE000000000FE0
FE000000000FE0
FE000000000FE0
FE000000000FE0
FE000000000FE0
FE000000000FE0
FE000000000FE0
FE000000000FE0
FF000000001FE0
7F000000001FC0
7F000000001FC0
7F000000001FC0
7F800000003FC0
3F800000003F80
3FC00000007F80
3FC00000007F00
1FE0000000FF00
1FF0000001FE00
0FF0000001FE00
07F8000003FC00
07FE00000FFC00
03FF00001FF800
01FFC0007FF000
00FFF803FFE000
007FFFFFFFC000
003FFFFFFF8000
000FFFFFFE0000
0003FFFFF80000
0000FFFFE00000
00000FFE000000
ENDCHAR
STARTCHAR 00D5
ENCODING 213
SWIDTH 777 0
DWIDTH 56 0
BBX 51 66 3 -2
BITMAP
00003801E00000
0000FF01E00000
0001FFC3E00000
0001FFFFE00000
0003FFFFC00000
0003E7FFC00000
0003C0FF800000
0007C03F000000
00000000000000
00000000000000
00000000000000
00000FFE000000
0000FFFFE00000
0003FFFFF80000
000FFFFFFE0000
001FFFFFFF0000
007FFFFFFFC000
00FFF803FFE000
01FFC0007FF000
03FF00001FF800
07FE00000FFC00
07F8000007FC00
0FF0000003FE00
1FF0000001FE00
1FE0000000FF00
3FC00000007F00
3FC00000007F80
3F800000003F80
7F800000003FC0
7F000000001FC0
7F000000001FC0
7F000000001FC0
FF000000001FC0
FE000000000FE0
FE000000000FE0
FE000000000FE0
FE000000000FE0
FE000000000FE0
FE000000000FE0
FE000000000FE0
FE000000000FE0
FE000000000FE0
FE000000000FE0
FE000000000FE0
FF000000001FE0
7F000000001FC0
7F000000001FC0
7F000000001FC0
7F800000003FC0
3F800000003F80
3FC00000007F80
3FC00000007F00
1FE0000000FF00
1FF0000001FE00
0FF0000001FE00
07F8000003FC00
07FE00000FFC00
03FF00001FF800
01FFC0007FF000
00FFF803FFE000
007FFFFFFFC000
003FFFFFFF8000
000FFFFFFE0000
0003FFFFF80000
0000FFFFE00000
00000FFE000000
ENDCHAR
STARTCHAR 00D6
ENCODING 214
SWIDTH 777 0
DWIDTH 56 0
BBX 51 65 3 -1
BITMAP
0001FC1FC00000
0001FC1FC00000
0001FC1FC00000
0001FC1FC00000
0001FC1FC00000
0001FC1FC00000
0001FC1FC00000
00000000000000
00000000000000
00000000000000
00000FFE000000
0000FFFFE00000
0003FFFFF80000
000FFFFFFE0000
001FFFFFFF0000
007FFFFFFFC000
00FFF803FFE000
01FFC0007FF000
03FF00001FF800
07FE00000FFC00
07F8000007FC00
0FF0000003FE00
1FF0000001FE00
1FE0000000FF00
3FC00000007F00
3FC00000007F80
3F800000003F80
7F800000003FC0
7F000000001FC0
7F000000001FC0
7F000000001FC0
FF000000001FC0
FE000000000FE0
FE000000000FE0
FE000000000FE0
FE000000000FE0
FE000000000FE0
FE000000000FE0
FE000000000FE0
FE000000000FE0
FE000000000FE0
FE000000000FE0
FE000000000FE0
FF000000001FE0
7F000000001FC0
7F000000001FC0
7F000000001FC0
7F800000003FC0
3F800000003F80
3FC00000007F80
3FC00000007F00
1FE0000000FF00
1FF0000001FE00
0FF0000001FE00
07F8000003FC00
07FE00000FFC00
03FF00001FF800
01FFC0007FF000
00FFF803FFE000
007FFFFFFFC000
003FFFFFFF8000
000FFFFFFE0000
0003FFFFF80000
0000FFFFE00000
00000FFE000000
ENDCHAR
STARTCHAR 00D7
ENCODING 215
SWIDTH 583 0
DWIDTH 42 0
BBX 28 29 7 2
BITMAP
10000080
380001C0
7C0003E0
FE0007F0
7F000FE0
3F801FC0
1FC03F80
0FE07F00
07F0FE00
03F9FC00
01FFF800
00FFF000
007FE000
003FC000
003FC000
007FE000
00FFF000
01FFF800
03FBFC00
07F1FE00
0FE0FF00
1FC07F80
3F803FC0
7F001FE0
FE000FF0
FC0007F0
780003E0
300001C0
00000080
ENDCHAR
STARTCHAR 00D8
ENCODING 216
SWIDTH 791 0
DWIDTH 57 0
BBX 51 56 3 -2
BITMAP
00000000000080
00000FFE0001C0
0000FFFFE003E0
0003FFFFF807C0
000FFFFFFE0FC0
001FFFFFFF1F80
007FFFFFFFBF00
00FFF803FFFE00
01FFC0007FFC00
03FF00001FF800
07FE00000FF800
07F8000003FC00
0FF8000007FE00
1FF000000FFE00
1FE000001FFF00
3FC000003E7F00
3FC000007C7F80
3F800000FC3F80
7F800001F83F80
7F000003F01FC0
7F000003E01FC0
7F000007C01FC0
FF00000F801FC0
FE00001F000FE0
FE00003E000FE0
FE00007C000FE0
FE0000F8000FE0
FE0001F0000FE0
FE0003E0000FE0
FE0007E0000FE0
FE000FC0000FE0
FE000F80000FE0
FE001F00000FE0
FE003E00000FE0
FF007C00001FE0
7F00F800001FC0
7F01F000001FC0
7F03E000001FC0
3F87C000003FC0
3F8F8000003F80
3FDF0000007F80
1FFF0000007F00
1FFE000000FF00
0FFC000001FE00
0FF8000001FE00
07F8000003FC00
03FE00000FFC00
07FF00001FF800
0FFFC0007FF000
1FFFF803FFE000
3E7FFFFFFFC000
7C1FFFFFFF0000
F80FFFFFFE0000
F803FFFFF80000
7000FFFFE00000
20000FFE000000
ENDCHAR
STARTCHAR 00D9
ENCODING 217
SWIDTH 722 0
DWIDTH 52 0
BBX 40 67 6 -2
BITMAP
001FE00000
000FF00000
0007F80000
0003F80000
0000FC0000
00007E0000
00003F0000
00000F8000
000007C000
0000000000
0000000000
0000000000
0000000000
FE0000007F
FE0000007F
FE0000007F
FE0000007F
FE0000007F
FE0000007F
FE0000007F
FE0000007F
FE0000007F
FE0000007F
FE0000007F
FE0000007F
FE0000007F
FE0000007F
FE0000007F
FE0000007F
FE0000007F
FE0000007F
FE0000007F
FE0000007F
FE0000007F
FE0000007F
FE0000007F
FE0000007F
FE0000007F
FE0000007F
FE0000007F
FE0000007F
FE0000007F
FE0000007F
FE0000007F
FE0000007F
FE0000007F
FE0000007F
FE0000007F
FE0000007F
FE0000007F
FE0000007F
FE0000007F
FE0000007F
FE000000FF
7F000000FE
7F000000FE
7F800001FE
3FC00003FC
3FE00007FC
1FF8001FF8
1FFE00FFF0
0FFFFFFFE0
07FFFFFFC0
01FFFFFF80
00FFFFFE00
001FFFF800
0003FF8000
ENDCHAR
STARTCHAR 00DA
ENCODING 218
SWIDTH 722 0
DWIDTH 52 0
BBX 40 67 6 -2
BITMAP
000007F800
00000FF000
00001FE000
00001FC000
00003F0000
00007E0000
0000FC0000
0001F00000
0003E00000
0000000000
0000000000
0000000000
0000000000
FE0000007F
FE0000007F
FE0000007F
FE0000007F
FE0000007F
FE0000007F
FE0000007F
FE0000007F
FE0000007F
FE0000007F
FE0000007F
FE0000007F
FE0000007F
FE0000007F
FE0000007F
FE0000007F
FE0000007F
FE0000007F
FE0000007F
FE0000007F
FE0000007F
FE0000007F
FE0000007F
FE0000007F
FE0000007F
FE0000007F
FE0000007F
FE0000007F
FE0000007F
FE0000007F
FE0000007F
FE0000007F
FE0000007F
FE0000007F
FE0000007F
FE0000007F
FE0000007F
FE0000007F
FE0000007F
FE0000007F
FE000000FF
7F000000FE
7F000000FE
7F800001FE
3FC00003FC
3FE00007FC
1FF8001FF8
1FFE00FFF0
0FFFFFFFE0
07FFFFFFC0
01FFFFFF80
00FFFFFE00
001FFFF800
0003FF8000
ENDCHAR
STARTCHAR 00DB
ENCODING 219
SWIDTH 722 0
DWIDTH 52 0
BBX 40 67 6 -2
BITMAP
0001FE0000
0001FE0000
0003FF0000
0007FF8000
000FFFC000
000FCFC000
001F87E000
003E01F000
007C00F800
0000000000
0000000000
0000000000
0000000000
FE0000007F
FE0000007F
FE0000007F
FE0000007F
FE0000007F
FE0000007F
FE0000007F
FE0000007F
FE0000007F
FE0000007F
FE0000007F
FE0000007F
FE0000007F
FE0000007F
FE0000007F
FE0000007F
FE0000007F
FE0000007F
FE0000007F
FE0000007F
FE0000007F
FE0000007F
FE0000007F
FE0000007F
FE0000007F
FE0000007F
FE0000007F
FE0000007F
FE0000007F
FE0000007F
FE0000007F
FE0000007F
FE0000007F
FE0000007F
FE0000007F
FE0000007F
FE0000007F
FE0000007F
FE0000007F
FE0000007F
FE000000FF
7F000000FE
7F000000FE
7F800001FE
3FC00003FC
3FE00007FC
1FF8001FF8
1FFE00FFF0
0FFFFFFFE0
07FFFFFFC0
01FFFFFF80
00FFFFFE00
001FFFF800
0003FF8000
ENDCHAR
STARTCHAR 00DC
ENCODING 220
SWIDTH 722 0
DWIDTH 52 0
BBX 40 65 6 -2
BITMAP
001FC1FC00
001FC1FC00
001FC1FC00
001FC1FC00
001FC1FC00
001FC1FC00
001FC1FC00
0000000000
0000000000
0000000000
0000000000
FE0000007F
FE0000007F
FE0000007F
FE0000007F
FE0000007F
FE0000007F
FE0000007F
FE0000007F
FE0000007F
FE0000007F
FE0000007F
FE0000007F
FE0000007F
FE0000007F
FE0000007F
FE0000007F
FE0000007F
FE0000007F
FE0000007F
FE0000007F
FE0000007F
FE0000007F
FE0000007F
FE0000007F
FE0000007F
FE0000007F
FE0000007F
FE0000007F
FE0000007F
FE0000007F
FE0000007F
FE0000007F
FE0000007F
FE0000007F
FE0000007F
FE0000007F
FE0000007F
FE0000007F
FE0000007F
FE0000007F
FE000000FF
7F000000FE
7F000000FE
7F800001FE
3FC00003FC
3FE00007FC
1FF8001FF8
1FFE00FFF0
0FFFFFFFE0
07FFFFFFC0
01FFFFFF80
00FFFFFE00
001FFFF800
0003FF8000
ENDCHAR
STARTCHAR 00DD
ENCODING 221
SWIDTH 680 0
DWIDTH 49 0
BBX 46 65 1 0
BITMAP
0000007F8000
000000FF0000
000001FE0000
000001FC0000
000003F00000
000007E00000
00000FC00000
00001F000000
00003E000000
000000000000
000000000000
000000000000
000000000000
FF00000003FC
7F80000003FC
7FC0000007F8
3FC0000007F8
1FE000000FF0
1FE000001FE0
0FF000001FE0
07F800003FC0
07F800003F80
03FC00007F80
01FC0000FF00
01FE0000FF00
00FF0001FE00
00FF0001FC00
007F8003FC00
003FC007F800
003FC007F000
001FE00FF000
000FE00FE000
000FF01FE000
0007F83FC000
0003F83F8000
0003FC7F8000
0001FC7F0000
0001FEFE0000
0000FFFE0000
00007FFC0000
00007FFC0000
00003FF80000
00001FF00000
00001FF00000
00000FE00000
00000FE00000
00000FE00000
00000FE00000
00000FE00000
00000FE00000
00000FE00000
00000FE00000
00000FE00000
00000FE00000
00000FE00000
00000FE00000
00000FE00000
00000FE00000
00000FE00000
00000FE00000
00000FE00000
00000FE00000
00000FE00000
00000FE00000
00000FE00000
ENDCHAR
STARTCHAR 00DE
ENCODING 222
SWIDTH 638 0
DWIDTH 46 0
BBX 37 52 6 0
BITMAP
FE00000000
FE00000000
FE00000000
FE00000000
FE00000000
FE00000000
FE00000000
FE00000000
FFFFFFC000
FFFFFFF800
FFFFFFFE00
FFFFFFFF00
FFFFFFFF80
FFFFFFFFC0
FE0000FFE0
FE00003FE0
FE00000FF0
FE00000FF0
FE000007F0
FE000007F8
FE000003F8
FE000003F8
FE000003F8
FE000003F8
FE000003F8
FE000003F8
FE000007F8
FE000007F0
FE00000FF0
FE00000FF0
FE00003FE0
FE0000FFE0
FFFFFFFFC0
FFFFFFFF80
FFFFFFFF00
FFFFFFFE00
FFFFFFFC00
FFFFFFE000
FE00000000
FE00000000
FE00000000
FE00000000
FE00000000
FE00000000
FE00000000
FE00000000
FE00000000
FE00000000
FE00000000
FE00000000
FE00000000
FE00000000
ENDCHAR
STARTCHAR 00DF
ENCODING 223
SWIDTH 597 0
DWIDTH 43 0
BBX 34 55 6 -2
BITMAP
001FF80000
00FFFF0000
03FFFFC000
07FFFFE000
0FFFFFF000
1FFFFFF800
3FF81FFC00
3FC007FE00
7F8001FE00
7F8001FE00
FF0000FF00
FF00007F00
FE00007F00
FE00007F00
FE00007F00
FE00007F00
FE00007F00
FE00007F00
FE0000FE00
FE0000FE00
FE0001FC00
FE0003FC00
FE001FF800
FE01FFE000
FE01FFC000
FE01FFE000
FE01FFF800
FE01FFFC00
FE000FFE00
FE0001FF00
FE0000FF00
FE00007F80
FE00003F80
FE00003FC0
FE00001FC0
FE00001FC0
FE00001FC0
FE00001FC0
FE00001FC0
FE00001FC0
FE00001FC0
FE00001FC0
FE00003F80
FE00003F80
FE00007F80
FE00007F00
FE0000FF00
FE0003FE00
FE000FFE00
FE07FFFC00
FE07FFF800
FE07FFF000
FE07FFE000
0007FF8000
0003FC0000
ENDCHAR
STARTCHAR 00E0
ENCODING 224
SWIDTH 541 0
DWIDTH 39 0
BBX 36 55 2 -2
BITMAP
00FF000000
007F800000
003F800000
001FC00000
000FE00000
0007E00000
0003F00000
0001F80000
0000F80000
00007C0000
00003C0000
0000000000
0000000000
0000000000
001FFC0000
00FFFF8000
03FFFFE000
07FFFFF000
0FFFFFF800
1FFFFFFC00
3FF807FC00
3FC001FE00
7F8000FE00
7F80007E00
7F00007E00
7F00007E00
0000007E00
0000007E00
0000007E00
000000FE00
000003FE00
0000FFFE00
003FFFFE00
01FFFFFE00
0FFFFFFE00
1FFFFC7E00
3FFF807E00
7FF0007E00
7FC0007E00
7F80007E00
FF00007E00
FE00007E00
FE00007E00
FE00007E00
FE0000FE00
FE0001FE00
FF0001FE00
7F0007FE00
7F800FFE00
7FF07FFF00
3FFFFF7FF0
1FFFFE3FF0
0FFFF83FF0
03FFE01FF0
00FF000FE0
ENDCHAR
STARTCHAR 00E1
ENCODING 225
SWIDTH 541 0
DWIDTH 39 0
BBX 36 55 2 -2
BITMAP
00003FC000
00003F8000
00007F0000
0000FE0000
0000FC0000
0001F80000
0003F00000
0003E00000
0007C00000
0007800000
000F000000
0000000000
0000000000
0000000000
001FFC0000
00FFFF8000
03FFFFE000
07FFFFF000
0FFFFFF800
1FFFFFFC00
3FF807FC00
3FC001FE00
7F8000FE00
7F80007E00
7F00007E00
7F00007E00
0000007E00
0000007E00
0000007E00
000000FE00
000003FE00
0000FFFE00
003FFFFE00
01FFFFFE00
0FFFFFFE00
1FFFFC7E00
3FFF807E00
7FF0007E00
7FC0007E00
7F80007E00
FF00007E00
FE00007E00
FE00007E00
FE00007E00
FE0000FE00
FE0001FE00
FF0001FE00
7F0007FE00
7F800FFE00
7FF07FFF00
3FFFFF7FF0
1FFFFE3FF0
0FFFF83FF0
03FFE01FF0
00FF000FE0
ENDCHAR
STARTCHAR 00E2
ENCODING 226
SWIDTH 541 0
DWIDTH 39 0
BBX 36 54 2 -2
BITMAP
0007F80000
0007F80000
000FFC0000
000FFC0000
001FFE0000
003F3F0000
003E1F0000
007C0F8000
007C07C000
00F807C000
01F003E000
0000000000
0000000000
001FFC0000
00FFFF8000
03FFFFE000
07FFFFF000
0FFFFFF800
1FFFFFFC00
3FF807FC00
3FC001FE00
7F8000FE00
7F80007E00
7F00007E00
7F00007E00
0000007E00
0000007E00
0000007E00
000000FE00
000003FE00
0000FFFE00
003FFFFE00
01FFFFFE00
0FFFFFFE00
1FFFFC7E00
3FFF807E00
7FF0007E00
7FC0007E00
7F80007E00
FF00007E00
FE00007E00
FE00007E00
FE00007E00
FE0000FE00
FE0001FE00
FF0001FE00
7F0007FE00
7F800FFE00
7FF07FFF00
3FFFFF7FF0
1FFFFE3FF0
0FFFF83FF0
03FFE01FF0
00FF000FE0
ENDCHAR
STARTCHAR 00E3
ENCODING 227
SWIDTH 541 0
DWIDTH 39 0
BBX 36 53 2 -1
BITMAP
007F00F000
00FFC1F000
00FFFBF000
01FFFFE000
01FFFFE000
01E0FFC000
03C03F8000
03C0020000
0000000000
0000000000
0000000000
0000000000
001FFC0000
00FFFF8000
03FFFFE000
07FFFFF000
0FFFFFF800
1FFFFFFC00
3FF807FC00
3FC001FE00
7F8000FE00
7F80007E00
7F00007E00
7F00007E00
0000007E00
0000007E00
0000007E00
000000FE00
000003FE00
0000FFFE00
003FFFFE00
01FFFFFE00
0FFFFFFE00
1FFFFC7E00
3FFF807E00
7FF0007E00
7FC0007E00
7F80007E00
FF00007E00
FE00007E00
FE00007E00
FE00007E00
FE0000FE00
FE0001FE00
FF0001FE00
7F0007FE00
7F800FFE00
7FF07FFF00
3FFFFF7FF0
1FFFFE3FF0
0FFFF83FF0
03FFE01FF0
00FF000FE0
ENDCHAR
STARTCHAR 00E4
ENCODING 228
SWIDTH 541 0
DWIDTH 39 0
BBX 36 54 2 -2
BITMAP
00FE0FE000
00FE0FE000
00FE0FE000
00FE0FE000
00FE0FE000
00FE0FE000
00FE0FE000
0000000000
0000000000
0000000000
0000000000
0000000000
0000000000
001FFC0000
00FFFF8000
03FFFFE000
07FFFFF000
0FFFFFF800
1FFFFFFC00
3FF807FC00
3FC001FE00
7F8000FE00
7F80007E00
7F00007E00
7F00007E00
0000007E00
0000007E00
0000007E00
000000FE00
000003FE00
0000FFFE00
003FFFFE00
01FFFFFE00
0FFFFFFE00
1FFFFC7E00
3FFF807E00
7FF0007E00
7FC0007E00
7F80007E00
FF00007E00
FE00007E00
FE00007E00
FE00007E00
FE0000FE00
FE0001FE00
FF0001FE00
7F0007FE00
7F800FFE00
7FF07FFF00
3FFFFF7FF0
1FFFFE3FF0
0FFFF83FF0
03FFE01FF0
00FF000FE0
ENDCHAR
STARTCHAR 00E5
ENCODING 229
SWIDTH 541 0
DWIDTH 39 0
BBX 36 57 2 -2
BITMAP
0001F00000
0007FC0000
000FFE0000
001FFF0000
003F1F0000
003C0F0000
003C078000
003C078000
003C078000
003C0F8000
003E1F0000
001FFF0000
000FFE0000
0007FC0000
0003F00000
0000000000
001FFC0000
00FFFF8000
03FFFFE000
07FFFFF000
0FFFFFF800
1FFFFFFC00
3FF807FC00
3FC001FE00
7F8000FE00
7F80007E00
7F00007E00
7F00007E00
0000007E00
0000007E00
0000007E00
000000FE00
000003FE00
0000FFFE00
003FFFFE00
01FFFFFE00
0FFFFFFE00
1FFFFC7E00
3FFF807E00
7FF0007E00
7FC0007E00
7F80007E00
FF00007E00
FE00007E00
FE00007E00
FE00007E00
FE0000FE00
FE0001FE00
FF0001FE00
7F0007FE00
7F800FFE00
7FF07FFF00
3FFFFF7FF0
1FFFFE3FF0
0FFFF83FF0
03FFE01FF0
00FF000FE0
ENDCHAR
STARTCHAR 00E6
ENCODING 230
SWIDTH 875 0
DWIDTH 63 0
BBX 59 41 2 -2
BITMAP
001FF80007FC0000
00FFFF001FFF8000
03FFFFC07FFFE000
07FFFFE1FFFFF000
0FFFFFF3FFFFFC00
1FFFFFF7FFFFFE00
3FF807FFFC07FE00
3FE001FFE001FF00
7F8000FFC000FF80
7F80007F80007F80
7F00007F00003FC0
7F00007F00001FC0
0000007E00001FC0
0000007E00000FC0
0000007E00000FE0
000000FC00000FE0
000003FC00000FE0
0003FFFFFFFFFFE0
007FFFFFFFFFFFE0
03FFFFFFFFFFFFE0
0FFFFF7FFFFFFFE0
1FFFF87FFFFFFFE0
3FFE007C00000000
3FE0007C00000000
7F80007C00000000
7F00007C00000000
FF00007C00000000
FE00007E00000000
FE00007E00001FC0
FE00007E00001FC0
FE0000FF00001FC0
FE0001FF80003F80
FF0003FF80007F80
7F0007EFE000FF00
7F800FCFF001FE00
7FE07F87FE1FFE00
3FFFFF03FFFFFC00
1FFFFE01FFFFF800
0FFFF800FFFFE000
03FFE0003FFF8000
00FF000007FC0000
ENDCHAR
STARTCHAR 00E7
ENCODING 231
SWIDTH 500 0
DWIDTH 36 0
BBX 33 54 2 -15
BITMAP
0007FC0000
003FFF8000
00FFFFE000
01FFFFF000
03FFFFF800
07FFFFFC00
0FFC0FFE00
1FF003FE00
1FE001FE00
3FC000FF00
3F80007F00
7F80007F00
7F00007F80
7F00000000
7F00000000
FE00000000
FE00000000
FE00000000
FE00000000
FE00000000
FE00000000
FE00000000
FE00000000
FE00000000
FE00000000
FE00000000
7F00000000
7F00003F80
7F00003F80
7F80007F80
3F80007F00
3FC000FF00
3FE001FF00
1FF003FE00
0FFC0FFE00
0FFFFFFC00
07FFFFF800
03FFFFF000
00FFFFC000
003FFF8000
000FFC0000
0003800000
0007000000
0007F00000
0007FC0000
000FFC0000
00007E0000
00003E0000
00003E0000
00803E0000
01F0FC0000
03FFFC0000
00FFF80000
000FC00000
ENDCHAR
STARTCHAR 00E8
ENCODING 232
SWIDTH 527 0
DWIDTH 38 0
BBX 35 55 2 -2
BITMAP
00FF000000
007F800000
003FC00000
001FC00000
000FE00000
0007F00000
0003F00000
0001F80000
0000F80000
00007C0000
00003E0000
0000000000
0000000000
0000000000
0007FC0000
003FFFC000
007FFFE000
01FFFFF800
03FFFFFC00
07FFFFFE00
0FFC07FE00
1FF001FF00
1FE000FF80
3FC0007F80
3F80003F80
7F80001FC0
7F00001FC0
7F00001FC0
7F00000FC0
FE00000FE0
FE00000FE0
FFFFFFFFE0
FFFFFFFFE0
FFFFFFFFE0
FFFFFFFFE0
FFFFFFFFE0
FE00000000
FE00000000
FE00000000
FE00000000
7F00000000
7F00000000
7F00001FC0
7F80001FC0
3F80003F80
3FC0003F80
1FE0007F80
1FF000FF00
0FFC07FF00
07FFFFFE00
03FFFFFC00
01FFFFF800
00FFFFE000
003FFF8000
0007FC0000
ENDCHAR
STARTCHAR 00E9
ENCODING 233
SWIDTH 527 0
DWIDTH 38 0
BBX 35 55 2 -2
BITMAP
00001FE000
00001FC000
00003F8000
00007F0000
00007E0000
0000FC0000
0001F80000
0001F00000
0003E00000
0003C00000
0007800000
0000000000
0000000000
0000000000
0007FC0000
003FFFC000
007FFFE000
01FFFFF800
03FFFFFC00
07FFFFFE00
0FFC07FE00
1FF001FF00
1FE000FF80
3FC0007F80
3F80003F80
7F80001FC0
7F00001FC0
7F00001FC0
7F00000FC0
FE00000FE0
FE00000FE0
FFFFFFFFE0
FFFFFFFFE0
FFFFFFFFE0
FFFFFFFFE0
FFFFFFFFE0
FE00000000
FE00000000
FE00000000
FE00000000
7F00000000
7F00000000
7F00001FC0
7F80001FC0
3F80003F80
3FC0003F80
1FE0007F80
1FF000FF00
0FFC07FF00
07FFFFFE00
03FFFFFC00
01FFFFF800
00FFFFE000
003FFF8000
0007FC0000
ENDCHAR
STARTCHAR 00EA
ENCODING 234
SWIDTH 527 0
DWIDTH 38 0
BBX 35 54 2 -2
BITMAP
0003F80000
0007F80000
000FFC0000
000FFE0000
001FBE0000
003F3F0000
003E1F0000
007C0F8000
007C07C000
00F803C000
01F003E000
0000000000
0000000000
0007FC0000
003FFFC000
007FFFE000
01FFFFF800
03FFFFFC00
07FFFFFE00
0FFC07FE00
1FF001FF00
1FE000FF80
3FC0007F80
3F80003F80
7F80001FC0
7F00001FC0
7F00001FC0
7F00000FC0
FE00000FE0
FE00000FE0
FFFFFFFFE0
FFFFFFFFE0
FFFFFFFFE0
FFFFFFFFE0
FFFFFFFFE0
FE00000000
FE00000000
FE00000000
FE00000000
7F00000000
7F00000000
7F00001FC0
7F80001FC0
3F80003F80
3FC0003F80
1FE0007F80
1FF000FF00
0FFC07FF00
07FFFFFE00
03FFFFFC00
01FFFFF800
00FFFFE000
003FFF8000
0007FC0000
ENDCHAR
STARTCHAR 00EB
ENCODING 235
SWIDTH 527 0
DWIDTH 38 0
BBX 35 54 2 -2
BITMAP
00FE0FE000
00FE0FE000
00FE0FE000
00FE0FE000
00FE0FE000
00FE0FE000
00FE0FE000
0000000000
0000000000
0000000000
0000000000
0000000000
0000000000
0007FC0000
003FFFC000
007FFFE000
01FFFFF800
03FFFFFC00
07FFFFFE00
0FFC07FE00
1FF001FF00
1FE000FF80
3FC0007F80
3F80003F80
7F80001FC0
7F00001FC0
7F00001FC0
7F00000FC0
FE00000FE0
FE00000FE0
FFFFFFFFE0
FFFFFFFFE0
FFFFFFFFE0
FFFFFFFFE0
FFFFFFFFE0
FE00000000
FE00000000
FE00000000
FE00000000
7F00000000
7F00000000
7F00001FC0
7F80001FC0
3F80003F80
3FC0003F80
1FE0007F80
1FF000FF00
0FFC07FF00
07FFFFFE00
03FFFFFC00
01FFFFF800
00FFFFE000
003FFF8000
0007FC0000
ENDCHAR
STARTCHAR 00EC
ENCODING 236
SWIDTH 222 0
DWIDTH 16 0
BBX 14 53 1 0
BITMAP
FF00
7F00
3F80
1FC0
0FC0
07E0
03F0
01F0
00F8
0078
003C
0000
0000
0000
0000
0FC0
0FC0
0FC0
0FC0
0FC0
0FC0
0FC0
0FC0
0FC0
0FC0
0FC0
0FC0
0FC0
0FC0
0FC0
0FC0
0FC0
0FC0
0FC0
0FC0
0FC0
0FC0
0FC0
0FC0
0FC0
0FC0
0FC0
0FC0
0FC0
0FC0
0FC0
0FC0
0FC0
0FC0
0FC0
0FC0
0FC0
0FC0
ENDCHAR
STARTCHAR 00ED
ENCODING 237
SWIDTH 222 0
DWIDTH 16 0
BBX 14 53 2 0
BITMAP
03FC
07F8
07F0
0FE0
1FC0
1F80
3F00
7E00
7C00
F800
F000
0000
0000
0000
0000
1F80
1F80
1F80
1F80
1F80
1F80
1F80
1F80
1F80
1F80
1F80
1F80
1F80
1F80
1F80
1F80
1F80
1F80
1F80
1F80
1F80
1F80
1F80
1F80
1F80
1F80
1F80
1F80
1F80
1F80
1F80
1F80
1F80
1F80
1F80
1F80
1F80
1F80
ENDCHAR
STARTCHAR 00EE
ENCODING 238
SWIDTH 263 0
DWIDTH 19 0
BBX 19 52 -1 0
BITMAP
03F800
07FC00
07FE00
0FFE00
0FBF00
1F1F00
3F0F80
3E0FC0
7C07C0
7803E0
F801E0
000000
000000
000000
01F800
01F800
01F800
01F800
01F800
01F800
01F800
01F800
01F800
01F800
01F800
01F800
01F800
01F800
01F800
01F800
01F800
01F800
01F800
01F800
01F800
01F800
01F800
01F800
01F800
01F800
01F800
01F800
01F800
01F800
01F800
01F800
01F800
01F800
01F800
01F800
01F800
01F800
ENDCHAR
STARTCHAR 00EF
ENCODING 239
SWIDTH 263 0
DWIDTH 19 0
BBX 19 52 -1 0
BITMAP
FE0FE0
FE0FE0
FE0FE0
FE0FE0
FE0FE0
FE0FE0
FE0FE0
000000
000000
000000
000000
000000
000000
000000
01F800
01F800
01F800
01F800
01F800
01F800
01F800
01F800
01F800
01F800
01F800
01F800
01F800
01F800
01F800
01F800
01F800
01F800
01F800
01F800
01F800
01F800
01F800
01F800
01F800
01F800
01F800
01F800
01F800
01F800
01F800
01F800
01F800
01F800
01F800
01F800
01F800
01F800
ENDCHAR
STARTCHAR 00F0
ENCODING 240
SWIDTH 527 0
DWIDTH 38 0
BBX 35 56 2 -2
BITMAP
0100000000
03C0000000
07F00E0000
07FC3F0000
03FEFF0000
00FFFC0000
003FF00000
007FE00000
01FFF80000
07FFFC0000
07F1FE0000
03C0FF0000
01007F8000
00003FC000
00001FE000
000FEFF000
003FFFF800
00FFFFF800
03FFFFFC00
07FFFFFE00
0FFFFFFE00
0FFC07FF00
1FF001FF00
3FE000FF80
3FC0007F80
3F80003F80
7F80003FC0
7F00001FC0
7F00001FC0
FF00001FC0
FE00001FE0
FE00000FE0
FE00000FE0
FE00000FE0
FE00000FE0
FE00000FE0
FE00000FE0
FE00000FE0
FE00000FE0
FE00000FE0
FE00000FE0
7F00001FC0
7F00001FC0
7F00001FC0
7F80003FC0
3F80003F80
3FC0007F80
1FE000FF00
1FF001FF00
0FFC07FE00
07FFFFFC00
03FFFFF800
01FFFFF000
00FFFFE000
003FFF8000
0007FC0000
ENDCHAR
STARTCHAR 00F1
ENCODING 241
SWIDTH 541 0
DWIDTH 39 0
BBX 30 51 4 1
BITMAP
00F803C0
01FF03C0
03FFC7C0
03FFFF80
07FFFF80
0787FF00
0780FF00
0F001C00
00000000
00000000
00000000
00000000
0003FC00
F81FFF80
F87FFFC0
F8FFFFE0
F9FFFFF0
FBFC0FF8
FFF007F8
FFE003FC
FFC001FC
FF8000FC
FF0000FC
FF0000FC
FF0000FC
FE0000FC
FE0000FC
FE0000FC
FE0000FC
FE0000FC
FE0000FC
FE0000FC
FE0000FC
FE0000FC
FE0000FC
FE0000FC
FE0000FC
FE0000FC
FE0000FC
FE0000FC
FE0000FC
FE0000FC
FE0000FC
FE0000FC
FE0000FC
FE0000FC
FE0000FC
FE0000FC
FE0000FC
FE0000FC
FE0000FC
ENDCHAR
STARTCHAR 00F2
ENCODING 242
SWIDTH 527 0
DWIDTH 38 0
BBX 35 55 2 -2
BITMAP
007F000000
003F800000
003FC00000
001FC00000
000FE00000
0007F00000
0003F00000
0001F80000
0000F80000
00007C0000
00003E0000
0000000000
0000000000
0000000000
0007FC0000
003FFF8000
00FFFFE000
01FFFFF000
03FFFFF800
07FFFFFC00
0FFC07FE00
1FF001FF00
1FE000FF00
3FC0007F80
3F80003F80
7F80003FC0
7F00001FC0
7F00001FC0
7F00001FC0
FE00001FE0
FE00000FE0
FE00000FE0
FE00000FE0
FE00000FE0
FE00000FE0
FE00000FE0
FE00000FE0
FE00000FE0
FE00000FE0
FE00000FE0
7F00001FC0
7F00001FC0
7F00001FC0
7F80003FC0
3F80003F80
3FC0007F80
1FE000FF00
1FF001FF00
0FFC07FE00
07FFFFFC00
03FFFFF800
01FFFFF000
00FFFFE000
003FFF8000
0007FC0000
ENDCHAR
STARTCHAR 00F3
ENCODING 243
SWIDTH 527 0
DWIDTH 38 0
BBX 35 55 2 -2
BITMAP
00001FE000
00003FC000
00007F8000
00007F0000
0000FE0000
0001FC0000
0001F80000
0003F00000
0003E00000
0007C00000
000F800000
0000000000
0000000000
0000000000
0007FC0000
003FFF8000
00FFFFE000
01FFFFF000
03FFFFF800
07FFFFFC00
0FFC07FE00
1FF001FF00
1FE000FF00
3FC0007F80
3F80003F80
7F80003FC0
7F00001FC0
7F00001FC0
7F00001FC0
FE00001FE0
FE00000FE0
FE00000FE0
FE00000FE0
FE00000FE0
FE00000FE0
FE00000FE0
FE00000FE0
FE00000FE0
FE00000FE0
FE00000FE0
7F00001FC0
7F00001FC0
7F00001FC0
7F80003FC0
3F80003F80
3FC0007F80
1FE000FF00
1FF001FF00
0FFC07FE00
07FFFFFC00
03FFFFF800
01FFFFF000
00FFFFE000
003FFF8000
0007FC0000
ENDCHAR
STARTCHAR 00F4
ENCODING 244
SWIDTH 527 0
DWIDTH 38 0
BBX 35 54 2 -1
BITMAP
000FF00000
000FF80000
001FF80000
001FFC0000
003F7C0000
007E3E0000
007C3F0000
00F81F0000
00F00F8000
01F0078000
03E003C000
0000000000
0000000000
0007FC0000
003FFF8000
00FFFFE000
01FFFFF000
03FFFFF800
07FFFFFC00
0FFC07FE00
1FF001FF00
1FE000FF00
3FC0007F80
3F80003F80
7F80003FC0
7F00001FC0
7F00001FC0
7F00001FC0
FE00001FE0
FE00000FE0
FE00000FE0
FE00000FE0
FE00000FE0
FE00000FE0
FE00000FE0
FE00000FE0
FE00000FE0
FE00000FE0
FE00000FE0
7F00001FC0
7F00001FC0
7F00001FC0
7F80003FC0
3F80003F80
3FC0007F80
1FE000FF00
1FF001FF00
0FFC07FE00
07FFFFFC00
03FFFFF800
01FFFFF000
00FFFFE000
003FFF8000
0007FC0000
ENDCHAR
STARTCHAR 00F5
ENCODING 245
SWIDTH 527 0
DWIDTH 38 0
BBX 35 53 2 -1
BITMAP
007E00F000
00FFC1F000
00FFFBE000
01FFFFE000
01FFFFE000
03E1FFC000
03C03F8000
03C0060000
0000000000
0000000000
0000000000
0000000000
0007FC0000
003FFF8000
00FFFFE000
01FFFFF000
03FFFFF800
07FFFFFC00
0FFC07FE00
1FF001FF00
1FE000FF00
3FC0007F80
3F80003F80
7F80003FC0
7F00001FC0
7F00001FC0
7F00001FC0
FE00001FE0
FE00000FE0
FE00000FE0
FE00000FE0
FE00000FE0
FE00000FE0
FE00000FE0
FE00000FE0
FE00000FE0
FE00000FE0
FE00000FE0
7F00001FC0
7F00001FC0
7F00001FC0
7F80003FC0
3F80003F80
3FC0007F80
1FE000FF00
1FF001FF00
0FFC07FE00
07FFFFFC00
03FFFFF800
01FFFFF000
00FFFFE000
003FFF8000
0007FC0000
ENDCHAR
STARTCHAR 00F6
ENCODING 246
SWIDTH 527 0
DWIDTH 38 0
BBX 35 54 2 -2
BITMAP
01FC1FC000
01FC1FC000
01FC1FC000
01FC1FC000
01FC1FC000
01FC1FC000
01FC1FC000
0000000000
0000000000
0000000000
0000000000
0000000000
0000000000
0007FC0000
003FFF8000
00FFFFE000
01FFFFF000
03FFFFF800
07FFFFFC00
0FFC07FE00
1FF001FF00
1FE000FF00
3FC0007F80
3F80003F80
7F80003FC0
7F00001FC0
7F00001FC0
7F00001FC0
FE00001FE0
FE00000FE0
FE00000FE0
FE00000FE0
FE00000FE0
FE00000FE0
FE00000FE0
FE00000FE0
FE00000FE0
FE00000FE0
FE00000FE0
7F00001FC0
7F00001FC0
7F00001FC0
7F80003FC0
3F80003F80
3FC0007F80
1FE000FF00
1FF001FF00
0FFC07FE00
07FFFFFC00
03FFFFF800
01FFFFF000
00FFFFE000
003FFF8000
0007FC0000
ENDCHAR
STARTCHAR 00F7
ENCODING 247
SWIDTH 583 0
DWIDTH 42 0
BBX 34 34 4 0
BITMAP
0007F00000
0007F00000
0007F00000
0007F00000
0007F00000
0007F00000
0007F00000
0000000000
0000000000
0000000000
0000000000
0000000000
0000000000
0000000000
0000000000
FFFFFFFFC0
FFFFFFFFC0
FFFFFFFFC0
FFFFFFFFC0
FFFFFFFFC0
0000000000
0000000000
0000000000
0000000000
0000000000
0000000000
0000000000
0007F00000
0007F00000
0007F00000
0007F00000
0007F00000
0007F00000
0007F00000
ENDCHAR
STARTCHAR 00F8
ENCODING 248
SWIDTH 527 0
DWIDTH 38 0
BBX 37 41 1 -3
BITMAP
0003FE0020
001FFF8038
007FFFE078
00FFFFF8F0
01FFFFFDE0
03FFFFFFC0
07FE03FF80
0FF800FF80
0FF0007F80
1FE0003FC0
1FC0007FC0
3FC0007FC0
3F8000FFE0
3F8001EFE0
7F8003CFE0
7F000787F0
7F000F07F0
7F001E07F0
7F003E07F0
7F003C07F0
7F007807F0
7F00F007F0
7F01E007F0
7F03C007F0
7F078007F0
7F0F0007F0
3F9F000FE0
3F9E000FE0
3FBC000FE0
3FF8001FE0
1FF0001FC0
1FE0003FC0
0FF0007F80
07F800FF80
0FFE03FF00
1FFFFFFE00
3FFFFFFE00
7CFFFFF800
F83FFFF000
F01FFFC000
2003FE0000
ENDCHAR
STARTCHAR 00F9
ENCODING 249
SWIDTH 541 0
DWIDTH 39 0
BBX 30 55 4 -2
BITMAP
03FC0000
01FC0000
00FE0000
007F0000
003F0000
001F8000
000F8000
0007C000
0003E000
0001E000
0001F000
00000000
00000000
00000000
00000000
FC0000FC
FC0000FC
FC0000FC
FC0000FC
FC0000FC
FC0000FC
FC0000FC
FC0000FC
FC0000FC
FC0000FC
FC0000FC
FC0000FC
FC0000FC
FC0000FC
FC0000FC
FC0000FC
FC0000FC
FC0000FC
FC0000FC
FC0000FC
FC0000FC
FC0000FC
FC0000FC
FC0000FC
FC0000FC
FC0000FC
FC0001FC
FC0001FC
FC0001FC
FC0003FC
FE0003FC
FE0007FC
FF000FFC
7F801FFC
7FE07F7C
3FFFFE7C
1FFFFC7C
0FFFF87C
07FFE000
00FF0000
ENDCHAR
STARTCHAR 00FA
ENCODING 250
SWIDTH 541 0
DWIDTH 39 0
BBX 30 55 4 -2
BITMAP
00003FC0
00007F80
00007F00
0000FE00
0001FC00
0001F800
0003F000
0007E000
0007C000
000F8000
000F0000
00000000
00000000
00000000
00000000
FC0000FC
FC0000FC
FC0000FC
FC0000FC
FC0000FC
FC0000FC
FC0000FC
FC0000FC
FC0000FC
FC0000FC
FC0000FC
FC0000FC
FC0000FC
FC0000FC
FC0000FC
FC0000FC
FC0000FC
FC0000FC
FC0000FC
FC0000FC
FC0000FC
FC0000FC
FC0000FC
FC0000FC
FC0000FC
FC0000FC
FC0001FC
FC0001FC
FC0001FC
FC0003FC
FE0003FC
FE0007FC
FF000FFC
7F801FFC
7FE07F7C
3FFFFE7C
1FFFFC7C
0FFFF87C
07FFE000
00FF0000
ENDCHAR
STARTCHAR 00FB
ENCODING 251
SWIDTH 541 0
DWIDTH 39 0
BBX 30 54 4 -1
BITMAP
001FC000
003FE000
003FE000
007FF000
00FDF800
00F8F800
01F07C00
01F07E00
03E03E00
07C01F00
07800F00
00000000
00000000
00000000
FC0000FC
FC0000FC
FC0000FC
FC0000FC
FC0000FC
FC0000FC
FC0000FC
FC0000FC
FC0000FC
FC0000FC
FC0000FC
FC0000FC
FC0000FC
FC0000FC
FC0000FC
FC0000FC
FC0000FC
FC0000FC
FC0000FC
FC0000FC
FC0000FC
FC0000FC
FC0000FC
FC0000FC
FC0000FC
FC0000FC
FC0001FC
FC0001FC
FC0001FC
FC0003FC
FE0003FC
FE0007FC
FF000FFC
7F801FFC
7FE07F7C
3FFFFE7C
1FFFFC7C
0FFFF87C
07FFE000
00FF0000
ENDCHAR
STARTCHAR 00FC
ENCODING 252
SWIDTH 541 0
DWIDTH 39 0
BBX 30 54 4 -2
BITMAP
07F07F00
07F07F00
07F07F00
07F07F00
07F07F00
07F07F00
07F07F00
00000000
00000000
00000000
00000000
00000000
00000000
00000000
FC0000FC
FC0000FC
FC0000FC
FC0000FC
FC0000FC
FC0000FC
FC0000FC
FC0000FC
FC0000FC
FC0000FC
FC0000FC
FC0000FC
FC0000FC
FC0000FC
FC0000FC
FC0000FC
FC0000FC
FC0000FC
FC0000FC
FC0000FC
FC0000FC
FC0000FC
FC0000FC
FC0000FC
FC0000FC
FC0000FC
FC0001FC
FC0001FC
FC0001FC
FC0003FC
FE0003FC
FE0007FC
FF000FFC
7F801FFC
7FE07F7C
3FFFFE7C
1FFFFC7C
0FFFF87C
07FFE000
00FF0000
ENDCHAR
STARTCHAR 00FD
ENCODING 253
SWIDTH 472 0
DWIDTH 34 0
BBX 33 69 1 -16
BITMAP
00001FE000
00003FC000
00003F8000
00007F0000
0000FE0000
0000FC0000
0001F80000
0001F00000
0003E00000
0007C00000
0007800000
0000000000
0000000000
0000000000
0000000000
FC00003F80
FE00003F00
7E00007F00
7E00007F00
7F00007E00
3F0000FE00
3F0000FC00
3F8000FC00
1F8001FC00
1F8001F800
1FC001F800
0FC003F800
0FC003F000
0FE007F000
07E007F000
07E007E000
07F00FE000
03F00FC000
03F00FC000
03F01FC000
01F81F8000
01F81F8000
01F83F8000
00FC3F0000
00FC3F0000
00FC7F0000
007E7E0000
007E7E0000
007EFC0000
003FFC0000
003FFC0000
003FF80000
001FF80000
001FF80000
001FF00000
000FF00000
000FF00000
000FE00000
000FE00000
000FC00000
000FC00000
001FC00000
001F800000
003F800000
003F800000
003F000000
007F000000
00FE000000
3FFE000000
3FFC000000
3FFC000000
3FF8000000
3FE0000000
1F80000000
ENDCHAR
STARTCHAR 00FE
ENCODING 254
SWIDTH 555 0
DWIDTH 40 0
BBX 35 66 4 -15
BITMAP
FC00000000
FC00000000
FC00000000
FC00000000
FC00000000
FC00000000
FC00000000
FC00000000
FC00000000
FC00000000
FC00000000
FC00000000
FC03FC0000
FC1FFF8000
FC7FFFE000
FCFFFFF000
FDFFFFF800
FFFFFFFC00
FFFC0FFE00
FFF003FF00
FFC000FF00
FF80007F80
FF80007F80
FF00003FC0
FE00003FC0
FE00001FC0
FE00001FC0
FE00001FE0
FC00000FE0
FC00000FE0
FC00000FE0
FC00000FE0
FC00000FE0
FC00000FE0
FC00000FE0
FC00000FE0
FC00000FE0
FC00001FE0
FE00001FC0
FE00001FC0
FE00003FC0
FF00003FC0
FF80007F80
FF8000FF80
FFC000FF00
FFE003FF00
FFFC0FFE00
FFFFFFFC00
FDFFFFF800
FCFFFFF000
FC3FFFE000
FC1FFF8000
FC03FC0000
FC00000000
FC00000000
FC00000000
FC00000000
FC00000000
FC00000000
FC00000000
FC00000000
FC00000000
FC00000000
FC00000000
FC00000000
FC00000000
ENDCHAR
STARTCHAR 00FF
ENCODING 255
SWIDTH 472 0
DWIDTH 34 0
BBX 33 68 1 -16
BITMAP
01FC1FC000
01FC1FC000
01FC1FC000
01FC1FC000
01FC1FC000
01FC1FC000
01FC1FC000
0000000000
0000000000
0000000000
0000000000
0000000000
0000000000
0000000000
FC00003F80
FE00003F00
7E00007F00
7E00007F00
7F00007E00
3F0000FE00
3F0000FC00
3F8000FC00
1F8001FC00
1F8001F800
1FC001F800
0FC003F800
0FC003F000
0FE007F000
07E007F000
07E007E000
07F00FE000
03F00FC000
03F00FC000
03F01FC000
01F81F8000
01F81F8000
01F83F8000
00FC3F0000
00FC3F0000
00FC7F0000
007E7E0000
007E7E0000
007EFC0000
003FFC0000
003FFC0000
003FF80000
001FF80000
001FF80000
001FF00000
000FF00000
000FF00000
000FE00000
000FE00000
000FC00000
000FC00000
001FC00000
001F800000
003F800000
003F800000
003F000000
007F000000
00FE000000
3FFE000000
3FFC000000
3FFC000000
3FF8000000
3FE0000000
1F80000000
ENDCHAR
STARTCHAR 0100
ENCODING 256
SWIDTH 666 0
DWIDTH 48 0
BBX 46 62 1 1
BITMAP
0007FFFF0000
0007FFFF0000
0007FFFF0000
0007FFFF0000
0007FFFF0000
000000000000
000000000000
000000000000
000000000000
000000000000
00001FF00000
00003FF00000
00003FF00000
00003FF80000
00007FF80000
00007FF80000
0000FFFC0000
0000FFFC0000
0000FEFC0000
0001FCFE0000
0001FCFE0000
0001FC7F0000
0003F87F0000
0003F87F0000
0003F03F8000
0007F03F8000
0007F03F8000
000FE01FC000
000FE01FC000
000FE01FC000
001FC00FE000
001FC00FE000
001FC00FE000
003F8007F000
003F8007F000
003F0007F000
007F0003F800
007F0003F800
007E0003FC00
00FE0001FC00
00FE0001FC00
01FFFFFFFE00
01FFFFFFFE00
01FFFFFFFE00
03FFFFFFFF00
03FFFFFFFF00
03FFFFFFFF00
07F800007F80
07F000003F80
07F000003F80
0FE000003FC0
0FE000001FC0
1FE000001FE0
1FC000001FE0
1FC000000FE0
3FC000000FF0
3F8000000FF0
3F80000007F0
7F80000007F8
7F00000007F8
7F00000003F8
FE00000003FC
ENDCHAR
STARTCHAR 0101
ENCODING 257
SWIDTH 541 0
DWIDTH 39 0
BBX 36 51 2 -2
BITMAP
00FFFFE000
00FFFFE000
00FFFFE000
00FFFFE000
00FFFFE000
0000000000
0000000000
0000000000
0000000000
0000000000
001FFC0000
00FFFF8000
03FFFFE000
07FFFFF000
0FFFFFF800
1FFFFFFC00
3FF807FC00
3FC001FE00
7F8000FE00
7F80007E00
7F00007E00
7F00007E00
0000007E00
0000007E00
0000007E00
000000FE00
000003FE00
0000FFFE00
003FFFFE00
01FFFFFE00
0FFFFFFE00
1FFFFC7E00
3FFF807E00
7FF0007E00
7FC0007E00
7F80007E00
FF00007E00
FE00007E00
FE00007E00
FE00007E00
FE0000FE00
FE0001FE00
FF0001FE00
7F0007FE00
7F800FFE00
7FF07FFF00
3FFFFF7FF0
1FFFFE3FF0
0FFFF83FF0
03FFE01FF0
00FF000FE0
ENDCHAR
STARTCHAR 0102
ENCODING 258
SWIDTH 666 0
DWIDTH 48 0
BBX 46 64 1 1
BITMAP
000F8003C000
00078003C000
0007C007C000
0007F01FC000
0003FFFF8000
0003FFFF0000
0001FFFE0000
00007FFC0000
00000FE00000
000000000000
000000000000
000000000000
00001FF00000
00003FF00000
00003FF00000
00003FF80000
00007FF80000
00007FF80000
0000FFFC0000
0000FFFC0000
0000FEFC0000
0001FCFE0000
0001FCFE0000
0001FC7F0000
0003F87F0000
0003F87F0000
0003F03F8000
0007F03F8000
0007F03F8000
000FE01FC000
000FE01FC000
000FE01FC000
001FC00FE000
001FC00FE000
001FC00FE000
003F8007F000
003F8007F000
003F0007F000
007F0003F800
007F0003F800
007E0003FC00
00FE0001FC00
00FE0001FC00
01FFFFFFFE00
01FFFFFFFE00
01FFFFFFFE00
03FFFFFFFF00
03FFFFFFFF00
03FFFFFFFF00
07F800007F80
07F000003F80
07F000003F80
0FE000003FC0
0FE000001FC0
1FE000001FE0
1FC000001FE0
1FC000000FE0
3FC000000FF0
3F8000000FF0
3F80000007F0
7F80000007F8
7F00000007F8
7F00000003F8
FE00000003FC
ENDCHAR
STARTCHAR 0103
ENCODING 259
SWIDTH 541 0
DWIDTH 39 0
BBX 36 54 2 -2
BITMAP
01E0007800
01E0007800
01F000F800
01F803F000
00FFFFF000
00FFFFE000
007FFFC000
001FFF8000
000FFE0000
0000000000
0000000000
0000000000
0000000000
001FFC0000
00FFFF8000
03FFFFE000
07FFFFF000
0FFFFFF800
1FFFFFFC00
3FF807FC00
3FC001FE00
7F8000FE00
7F80007E00
7F00007E00
7F00007E00
0000007E00
0000007E00
0000007E00
000000FE00
000003FE00
0000FFFE00
003FFFFE00
01FFFFFE00
0FFFFFFE00
1FFFFC7E00
3FFF807E00
7FF0007E00
7FC0007E00
7F80007E00
FF00007E00
FE00007E00
FE00007E00
FE00007E00
FE0000FE00
FE0001FE00
FF0001FE00
7F0007FE00
7F800FFE00
7FF07FFF00
3FFFFF7FF0
1FFFFE3FF0
0FFFF83FF0
03FFE01FF0
00FF000FE0
ENDCHAR
STARTCHAR 0104
ENCODING 260
SWIDTH 666 0
DWIDTH 48 0
BBX 49 67 1 -15
BITMAP
00001FF0000000
00003FF0000000
00003FF0000000
00003FF8000000
00007FF8000000
00007FF8000000
0000FFFC000000
0000FFFC000000
0000FEFE000000
0001FCFE000000
0001FCFE000000
0001FC7F000000
0003F87F000000
0003F87F000000
0003F83F800000
0007F03F800000
0007F03F800000
0007E01FC00000
000FE01FC00000
000FE01FC00000
001FC00FE00000
001FC00FE00000
001FC00FE00000
003F8007F00000
003F8007F00000
003F8007F80000
007F0003F80000
007F0003F80000
007E0003FC0000
00FE0001FC0000
00FE0001FC0000
01FFFFFFFE0000
01FFFFFFFE0000
01FFFFFFFE0000
03FFFFFFFF0000
03FFFFFFFF0000
03FFFFFFFF0000
07F800007F8000
07F000003F8000
07F000003F8000
0FF000003FC000
0FE000001FC000
0FE000001FE000
1FC000001FE000
1FC000000FE000
3FC000000FF000
3F8000000FF000
3F80000007F000
7F80000007F800
7F00000003F800
7F00000003F800
FE00000003FC00
0000000000F800
0000000003E000
0000000007C000
000000000F8000
000000001F0000
000000001E0000
000000003E0000
000000003E0000
000000003E0000
000000003E0000
000000003F0000
000000001F8080
000000000FFF80
0000000007FF80
0000000001FF00
ENDCHAR
STARTCHAR 0105
ENCODING 261
SWIDTH 541 0
DWIDTH 39 0
BBX 40 54 2 -15
BITMAP
000FFE0000
007FFFC000
01FFFFF000
07FFFFF800
0FFFFFFC00
0FFFFFFE00
1FF807FE00
1FE001FF00
3FC000FF00
3FC0007F00
3F80007F00
3F80007F00
0000007F00
0000007F00
0000007F00
000000FF00
000003FF00
0000FFFF00
003FFFFF00
01FFFFFF00
07FFFFFF00
0FFFFC7F00
3FFF807F00
3FF0007F00
7FC0007F00
7F80007F00
FF00007F00
FE00007F00
FE00007F00
FE00007F00
FE0000FF00
FE0000FF00
FF0001FF00
FF0003FF00
7F800FFF00
7FE03FFF80
3FFFFF7FF8
1FFFFE3FF8
0FFFFC3FF8
03FFF01FF8
007F800FE0
0000000780
0000001F00
0000003E00
0000003E00
0000007C00
0000007C00
0000007C00
0000007C00
0000007E00
0000003F01
0000001FFF
0000000FFF
00000001FE
ENDCHAR
STARTCHAR 0106
ENCODING 262
SWIDTH 708 0
DWIDTH 51 0
BBX 45 67 3 -2
BITMAP
0000007F8000
000000FF0000
000001FE0000
000001FC0000
000003F00000
000007E00000
00000FC00000
00001F000000
00003E000000
000000000000
000000000000
000000000000
00001FF80000
0001FFFF8000
0007FFFFE000
001FFFFFF000
007FFFFFFC00
00FFFFFFFE00
01FFE00FFF00
03FF0001FF00
03FE0000FF80
07F800007FC0
0FF000003FC0
0FF000001FC0
1FE000001FE0
1FC000000FE0
3FC000000FE0
3F80000007F0
3F80000007F0
7F0000000000
7F0000000000
7F0000000000
7F0000000000
FE0000000000
FE0000000000
FE0000000000
FE0000000000
FE0000000000
FE0000000000
FE0000000000
FE0000000000
FE0000000000
FE0000000000
FE0000000000
FE0000000000
FE0000000000
7F0000000000
7F00000003F8
7F00000003F8
7F00000007F8
3F80000007F0
3F80000007F0
3FC0000007F0
1FC000000FF0
1FE000000FE0
0FF000001FE0
0FF800003FC0
07FC00007FC0
07FE0000FF80
03FF8001FF80
01FFE00FFF00
00FFFFFFFE00
007FFFFFFC00
001FFFFFF800
000FFFFFE000
0001FFFF8000
00003FF80000
ENDCHAR
STARTCHAR 0107
ENCODING 263
SWIDTH 500 0
DWIDTH 36 0
BBX 33 55 2 -2
BITMAP
00001FE000
00003FC000
00007F8000
00007F0000
0000FE0000
0001FC0000
0001F80000
0003F00000
0003E00000
0007C00000
000F800000
0000000000
0000000000
0000000000
0007FC0000
003FFF8000
00FFFFE000
01FFFFF000
03FFFFF800
07FFFFFC00
0FFC0FFE00
1FF003FE00
1FE000FF00
3FC000FF00
3F80007F00
7F80007F00
7F00007F80
7F00000000
7F00000000
FE00000000
FE00000000
FE00000000
FE00000000
FE00000000
FE00000000
FE00000000
FE00000000
FE00000000
FE00000000
FE00000000
FF00000000
7F00003F80
7F00003F80
7F80007F80
3F80007F00
3FC000FF00
1FE000FF00
1FF003FE00
0FFC0FFE00
07FFFFFC00
07FFFFF800
03FFFFF000
00FFFFE000
003FFF8000
0007FC0000
ENDCHAR
STARTCHAR 0108
ENCODING 264
SWIDTH 708 0
DWIDTH 51 0
BBX 45 67 3 -2
BITMAP
00001FE00000
00001FE00000
00003FF00000
00007FF80000
0000FFFC0000
0000FCFC0000
0001F87E0000
0003E01F0000
0007C00F8000
000000000000
000000000000
000000000000
00001FF80000
0001FFFF8000
0007FFFFE000
001FFFFFF000
007FFFFFFC00
00FFFFFFFE00
01FFE00FFF00
03FF0001FF00
03FE0000FF80
07F800007FC0
0FF000003FC0
0FF000001FC0
1FE000001FE0
1FC000000FE0
3FC000000FE0
3F80000007F0
3F80000007F0
7F0000000000
7F0000000000
7F0000000000
7F0000000000
FE0000000000
FE0000000000
FE0000000000
FE0000000000
FE0000000000
FE0000000000
FE0000000000
FE0000000000
FE0000000000
FE0000000000
FE0000000000
FE0000000000
FE0000000000
7F0000000000
7F00000003F8
7F00000003F8
7F00000007F8
3F80000007F0
3F80000007F0
3FC0000007F0
1FC000000FF0
1FE000000FE0
0FF000001FE0
0FF800003FC0
07FC00007FC0
07FE0000FF80
03FF8001FF80
01FFE00FFF00
00FFFFFFFE00
007FFFFFFC00
001FFFFFF800
000FFFFFE000
0001FFFF8000
00003FF80000
ENDCHAR
STARTCHAR 0109
ENCODING 265
SWIDTH 500 0
DWIDTH 36 0
BBX 33 53 2 -2
BITMAP
0007F00000
000FF00000
000FF80000
001FF80000
003FFC0000
003E7E0000
007C3E0000
00FC1F0000
00F81F0000
01F00F8000
01E007C000
0000000000
0007FC0000
003FFF8000
00FFFFE000
01FFFFF000
03FFFFF800
07FFFFFC00
0FFC0FFE00
1FF003FE00
1FE000FF00
3FC000FF00
3F80007F00
7F80007F00
7F00007F80
7F00000000
7F00000000
FE00000000
FE00000000
FE00000000
FE00000000
FE00000000
FE00000000
FE00000000
FE00000000
FE00000000
FE00000000
FE00000000
FF00000000
7F00003F80
7F00003F80
7F80007F80
3F80007F00
3FC000FF00
1FE000FF00
1FF003FE00
0FFC0FFE00
07FFFFFC00
07FFFFF800
03FFFFF000
00FFFFE000
003FFF8000
0007FC0000
ENDCHAR
STARTCHAR 010A
ENCODING 266
SWIDTH 708 0
DWIDTH 51 0
BBX 45 66 3 -1
BITMAP
000007F00000
000007F00000
000007F00000
000007F00000
000007F00000
000007F00000
000007F00000
000000000000
000000000000
000000000000
000000000000
00001FF80000
0001FFFF8000
0007FFFFE000
001FFFFFF000
007FFFFFFC00
00FFFFFFFE00
01FFE00FFF00
03FF0001FF00
03FE0000FF80
07F800007FC0
0FF000003FC0
0FF000001FC0
1FE000001FE0
1FC000000FE0
3FC000000FE0
3F80000007F0
3F80000007F0
7F0000000000
7F0000000000
7F0000000000
7F0000000000
FE0000000000
FE0000000000
FE0000000000
FE0000000000
FE0000000000
FE0000000000
FE0000000000
FE0000000000
FE0000000000
FE0000000000
FE0000000000
FE0000000000
FE0000000000
7F0000000000
7F00000003F8
7F00000003F8
7F00000007F8
3F80000007F0
3F80000007F0
3FC0000007F0
1FC000000FF0
1FE000000FE0
0FF000001FE0
0FF800003FC0
07FC00007FC0
07FE0000FF80
03FF8001FF80
01FFE00FFF00
00FFFFFFFE00
007FFFFFFC00
001FFFFFF800
000FFFFFE000
0001FFFF8000
00003FF80000
ENDCHAR
STARTCHAR 010B
ENCODING 267
SWIDTH 500 0
DWIDTH 36 0
BBX 33 54 2 -2
BITMAP
0007F00000
0007F00000
0007F00000
0007F00000
0007F00000
0007F00000
0007F00000
0000000000
0000000000
0000000000
0000000000
0000000000
0000000000
0007FC0000
003FFF8000
00FFFFE000
01FFFFF000
03FFFFF800
07FFFFFC00
0FFC0FFE00
1FF003FE00
1FE000FF00
3FC000FF00
3F80007F00
7F80007F00
7F00007F80
7F00000000
7F00000000
FE00000000
FE00000000
FE00000000
FE00000000
FE00000000
FE00000000
FE00000000
FE00000000
FE00000000
FE00000000
FE00000000
FF00000000
7F00003F80
7F00003F80
7F80007F80
3F80007F00
3FC000FF00
1FE000FF00
1FF003FE00
0FFC0FFE00
07FFFFFC00
07FFFFF800
03FFFFF000
00FFFFE000
003FFF8000
0007FC0000
ENDCHAR
STARTCHAR 010C
ENCODING 268
SWIDTH 708 0
DWIDTH 51 0
BBX 45 67 3 -2
BITMAP
0001F003E000
0000F807C000
00007E1F8000
00003F3F0000
00003FFF0000
00001FFE0000
00000FFC0000
000007F80000
000007F80000
000000000000
000000000000
000000000000
00001FF80000
0001FFFF8000
0007FFFFE000
001FFFFFF000
007FFFFFFC00
00FFFFFFFE00
01FFE00FFF00
03FF0001FF00
03FE0000FF80
07F800007FC0
0FF000003FC0
0FF000001FC0
1FE000001FE0
1FC000000FE0
3FC000000FE0
3F80000007F0
3F80000007F0
7F0000000000
7F0000000000
7F0000000000
7F0000000000
FE0000000000
FE0000000000
FE0000000000
FE0000000000
FE0000000000
FE0000000000
FE0000000000
FE0000000000
FE0000000000
FE0000000000
FE0000000000
FE0000000000
FE0000000000
7F0000000000
7F00000003F8
7F00000003F8
7F00000007F8
3F80000007F0
3F80000007F0
3FC0000007F0
1FC000000FF0
1FE000000FE0
0FF000001FE0
0FF800003FC0
07FC00007FC0
07FE0000FF80
03FF8001FF80
01FFE00FFF00
00FFFFFFFE00
007FFFFFFC00
001FFFFFF800
000FFFFFE000
0001FFFF8000
00003FF80000
ENDCHAR
STARTCHAR 010D
ENCODING 269
SWIDTH 500 0
DWIDTH 36 0
BBX 33 54 2 -1
BITMAP
01F007C000
00F00F8000
00F80F8000
007C1F0000
007E3E0000
003F7E0000
001F7C0000
001FFC0000
000FF80000
000FF00000
0007F00000
0000000000
0000000000
0007FC0000
003FFF8000
00FFFFE000
01FFFFF000
03FFFFF800
07FFFFFC00
0FFC0FFE00
1FF003FE00
1FE000FF00
3FC000FF00
3F80007F00
7F80007F00
7F00007F80
7F00000000
7F00000000
FE00000000
FE00000000
FE00000000
FE00000000
FE00000000
FE00000000
FE00000000
FE00000000
FE00000000
FE00000000
FE00000000
FF00000000
7F00003F80
7F00003F80
7F80007F80
3F80007F00
3FC000FF00
1FE000FF00
1FF003FE00
0FFC0FFE00
07FFFFFC00
07FFFFF800
03FFFFF000
00FFFFE000
003FFF8000
0007FC0000
ENDCHAR
STARTCHAR 010E
ENCODING 270
SWIDTH 694 0
DWIDTH 50 0
BBX 42 65 6 0
BITMAP
003E007C0000
001F00F80000
000FC3F00000
0007E7E00000
0007FFE00000
0003FFC00000
0001FF800000
0000FF000000
0000FF000000
000000000000
000000000000
000000000000
000000000000
FFFFFF800000
FFFFFFF80000
FFFFFFFE0000
FFFFFFFF0000
FFFFFFFFC000
FFFFFFFFE000
FE0000FFF000
FE00003FF800
FE00000FF800
FE000007FC00
FE000003FE00
FE000001FE00
FE000000FF00
FE000000FF00
FE0000007F00
FE0000007F80
FE0000003F80
FE0000003F80
FE0000003F80
FE0000003FC0
FE0000001FC0
FE0000001FC0
FE0000001FC0
FE0000001FC0
FE0000001FC0
FE0000001FC0
FE0000001FC0
FE0000001FC0
FE0000001FC0
FE0000001FC0
FE0000001FC0
FE0000001FC0
FE0000003FC0
FE0000003F80
FE0000003F80
FE0000003F80
FE0000007F80
FE0000007F00
FE0000007F00
FE000000FF00
FE000001FE00
FE000003FE00
FE000007FC00
FE00000FF800
FE00001FF800
FE0000FFF000
FFFFFFFFE000
FFFFFFFFC000
FFFFFFFF0000
FFFFFFFE0000
FFFFFFF80000
FFFFFF800000
ENDCHAR
STARTCHAR 010F
ENCODING 271
SWIDTH 750 0
DWIDTH 54 0
BBX 50 55 2 -2
BITMAP
00000000003FC0
0000000FC03F80
0000000FC03F00
0000000FC07E00
0000000FC07E00
0000000FC0FC00
0000000FC0F800
0000000FC1F000
0000000FC1E000
0000000FC1E000
0000000FC3C000
0000000FC00000
0000000FC00000
0000000FC00000
0007F80FC00000
003FFE0FC00000
00FFFF8FC00000
01FFFFCFC00000
07FFFFEFC00000
07FFFFFFC00000
0FFE07FFC00000
1FF801FFC00000
1FE000FFC00000
3FC0007FC00000
3FC0003FC00000
7F80003FC00000
7F00001FC00000
7F00001FC00000
FF00001FC00000
FF00001FC00000
FE00000FC00000
FE00000FC00000
FE00000FC00000
FE00000FC00000
FE00000FC00000
FE00000FC00000
FE00000FC00000
FE00000FC00000
FE00000FC00000
FE00000FC00000
7F00001FC00000
7F00001FC00000
7F00001FC00000
7F80003FC00000
3FC0003FC00000
3FC0007FC00000
1FE000FFC00000
1FF001FFC00000
0FFE07FFC00000
07FFFFF7C00000
07FFFFE7C00000
03FFFFC7C00000
00FFFF87C00000
003FFE00000000
0007F800000000
ENDCHAR
STARTCHAR 0110
ENCODING 272
SWIDTH 708 0
DWIDTH 51 0
BBX 46 52 2 0
BITMAP
0FFFFFFC0000
0FFFFFFF8000
0FFFFFFFE000
0FFFFFFFF000
0FFFFFFFFC00
0FFFFFFFFE00
0FE0000FFF00
0FE00001FF80
0FE00000FF80
0FE000003FC0
0FE000001FE0
0FE000001FE0
0FE000000FF0
0FE0000007F0
0FE0000007F0
0FE0000007F8
0FE0000003F8
0FE0000003F8
0FE0000003F8
0FE0000003FC
0FE0000001FC
0FE0000001FC
0FE0000001FC
FFFFFE0001FC
FFFFFE0001FC
FFFFFE0001FC
FFFFFE0001FC
FFFFFE0001FC
0FE0000001FC
0FE0000001FC
0FE0000001FC
0FE0000001FC
0FE0000003FC
0FE0000003F8
0FE0000003F8
0FE0000003F8
0FE0000007F8
0FE0000007F0
0FE0000007F0
0FE000000FF0
0FE000001FE0
0FE000001FE0
0FE000003FC0
0FE00000FF80
0FE00001FF80
0FE0000FFF00
0FFFFFFFFE00
0FFFFFFFFC00
0FFFFFFFF800
0FFFFFFFE000
0FFFFFFF8000
0FFFFFFC0000
ENDCHAR
STARTCHAR 0111
ENCODING 273
SWIDTH 569 0
DWIDTH 41 0
BBX 38 54 2 -2
BITMAP
0000000FC0
0000000FC0
0000000FC0
0000000FC0
0000000FC0
00003FFFFC
00003FFFFC
00003FFFFC
00003FFFFC
0000000FC0
0000000FC0
0000000FC0
0000000FC0
0007F00FC0
003FFE0FC0
00FFFF8FC0
01FFFFCFC0
07FFFFEFC0
07FFFFFFC0
0FFE07FFC0
1FF801FFC0
1FE000FFC0
3FC0007FC0
3FC0003FC0
7F80003FC0
7F00001FC0
7F00001FC0
FF00001FC0
FF00001FC0
FE00000FC0
FE00000FC0
FE00000FC0
FE00000FC0
FE00000FC0
FE00000FC0
FE00000FC0
FE00000FC0
FE00000FC0
FE00000FC0
7F00001FC0
7F00001FC0
7F00001FC0
7F80003FC0
3FC0003FC0
3FC0007FC0
1FE000FFC0
1FF801FFC0
0FFE07FFC0
07FFFFFFC0
03FFFFF7C0
01FFFFC7C0
00FFFF87C0
003FFE0000
0007F80000
ENDCHAR
STARTCHAR 0112
ENCODING 274
SWIDTH 638 0
DWIDTH 46 0
BBX 37 62 6 1
BITMAP
007FFFF000
007FFFF000
007FFFF000
007FFFF000
007FFFF000
0000000000
0000000000
0000000000
0000000000
0000000000
FFFFFFFFF0
FFFFFFFFF0
FFFFFFFFF0
FFFFFFFFF0
FFFFFFFFF0
FFFFFFFFF0
FE00000000
FE00000000
FE00000000
FE00000000
FE00000000
FE00000000
FE00000000
FE00000000
FE00000000
FE00000000
FE00000000
FE00000000
FE00000000
FE00000000
FE00000000
FE00000000
FFFFFFFFE0
FFFFFFFFE0
FFFFFFFFE0
FFFFFFFFE0
FFFFFFFFE0
FFFFFFFFE0
FE00000000
FE00000000
FE00000000
FE00000000
FE00000000
FE00000000
FE00000000
FE00000000
FE00000000
FE00000000
FE00000000
FE00000000
FE00000000
FE00000000
FE00000000
FE00000000
FE00000000
FE00000000
FFFFFFFFF8
FFFFFFFFF8
FFFFFFFFF8
FFFFFFFFF8
FFFFFFFFF8
FFFFFFFFF8
ENDCHAR
STARTCHAR 0113
ENCODING 275
SWIDTH 527 0
DWIDTH 38 0
BBX 35 51 2 -2
BITMAP
00FFFFE000
00FFFFE000
00FFFFE000
00FFFFE000
00FFFFE000
0000000000
0000000000
0000000000
0000000000
0000000000
0007FC0000
003FFFC000
007FFFE000
01FFFFF800
03FFFFFC00
07FFFFFE00
0FFC07FE00
1FF001FF00
1FE000FF80
3FC0007F80
3F80003F80
7F80001FC0
7F00001FC0
7F00001FC0
7F00000FC0
FE00000FE0
FE00000FE0
FFFFFFFFE0
FFFFFFFFE0
FFFFFFFFE0
FFFFFFFFE0
FFFFFFFFE0
FE00000000
FE00000000
FE00000000
FE00000000
7F00000000
7F00000000
7F00001FC0
7F80001FC0
3F80003F80
3FC0003F80
1FE0007F80
1FF000FF00
0FFC07FF00
07FFFFFE00
03FFFFFC00
01FFFFF800
00FFFFE000
003FFF8000
0007FC0000
ENDCHAR
STARTCHAR 0114
ENCODING 276
SWIDTH 638 0
DWIDTH 46 0
BBX 37 64 6 1
BITMAP
00F0003C00
00F0007C00
00F800F800
00FE03F800
007FFFF000
003FFFF000
001FFFE000
000FFF8000
0001FC0000
0000000000
0000000000
0000000000
FFFFFFFFF0
FFFFFFFFF0
FFFFFFFFF0
FFFFFFFFF0
FFFFFFFFF0
FFFFFFFFF0
FE00000000
FE00000000
FE00000000
FE00000000
FE00000000
FE00000000
FE00000000
FE00000000
FE00000000
FE00000000
FE00000000
FE00000000
FE00000000
FE00000000
FE00000000
FE00000000
FFFFFFFFE0
FFFFFFFFE0
FFFFFFFFE0
FFFFFFFFE0
FFFFFFFFE0
FFFFFFFFE0
FE00000000
FE00000000
FE00000000
FE00000000
FE00000000
FE00000000
FE00000000
FE00000000
FE00000000
FE00000000
FE00000000
FE00000000
FE00000000
FE00000000
FE00000000
FE00000000
FE00000000
FE00000000
FFFFFFFFF8
FFFFFFFFF8
FFFFFFFFF8
FFFFFFFFF8
FFFFFFFFF8
FFFFFFFFF8
ENDCHAR
STARTCHAR 0115
ENCODING 277
SWIDTH 527 0
DWIDTH 38 0
BBX 35 54 2 -2
BITMAP
01E0007800
01F0007800
01F000F800
00FC03F000
00FFFFF000
007FFFE000
003FFFE000
001FFF8000
0007FE0000
0000000000
0000000000
0000000000
0000000000
0007FC0000
003FFFC000
007FFFE000
01FFFFF800
03FFFFFC00
07FFFFFE00
0FFC07FE00
1FF001FF00
1FE000FF80
3FC0007F80
3F80003F80
7F80001FC0
7F00001FC0
7F00001FC0
7F00000FC0
FE00000FE0
FE00000FE0
FFFFFFFFE0
FFFFFFFFE0
FFFFFFFFE0
FFFFFFFFE0
FFFFFFFFE0
FE00000000
FE00000000
FE00000000
FE00000000
7F00000000
7F00000000
7F00001FC0
7F80001FC0
3F80003F80
3FC0003F80
1FE0007F80
1FF000FF00
0FFC07FF00
07FFFFFE00
03FFFFFC00
01FFFFF800
00FFFFE000
003FFF8000
0007FC0000
ENDCHAR
STARTCHAR 0116
ENCODING 278
SWIDTH 638 0
DWIDTH 46 0
BBX 37 64 6 1
BITMAP
0001FC0000
0001FC0000
0001FC0000
0001FC0000
0001FC0000
0001FC0000
0001FC0000
0000000000
0000000000
0000000000
0000000000
0000000000
FFFFFFFFF0
FFFFFFFFF0
FFFFFFFFF0
FFFFFFFFF0
FFFFFFFFF0
FFFFFFFFF0
FE00000000
FE00000000
FE00000000
FE00000000
FE00000000
FE00000000
FE00000000
FE00000000
FE00000000
FE00000000
FE00000000
FE00000000
FE00000000
FE00000000
FE00000000
FE00000000
FFFFFFFFE0
FFFFFFFFE0
FFFFFFFFE0
FFFFFFFFE0
FFFFFFFFE0
FFFFFFFFE0
FE00000000
FE00000000
FE00000000
FE00000000
FE00000000
FE00000000
FE00000000
FE00000000
FE00000000
FE00000000
FE00000000
FE00000000
FE00000000
FE00000000
FE00000000
FE00000000
FE00000000
FE00000000
FFFFFFFFF8
FFFFFFFFF8
FFFFFFFFF8
FFFFFFFFF8
FFFFFFFFF8
FFFFFFFFF8
ENDCHAR
STARTCHAR 0117
ENCODING 279
SWIDTH 527 0
DWIDTH 38 0
BBX 35 54 2 -2
BITMAP
0003F80000
0003F80000
0003F80000
0003F80000
0003F80000
0003F80000
0003F80000
0000000000
0000000000
0000000000
0000000000
0000000000
0000000000
0007FC0000
003FFFC000
007FFFE000
01FFFFF800
03FFFFFC00
07FFFFFE00
0FFC07FE00
1FF001FF00
1FE000FF80
3FC0007F80
3F80003F80
7F80001FC0
7F00001FC0
7F00001FC0
7F00000FC0
FE00000FE0
FE00000FE0
FFFFFFFFE0
FFFFFFFFE0
FFFFFFFFE0
FFFFFFFFE0
FFFFFFFFE0
FE00000000
FE00000000
FE00000000
FE00000000
7F00000000
7F00000000
7F00001FC0
7F80001FC0
3F80003F80
3FC0003F80
1FE0007F80
1FF000FF00
0FFC07FF00
07FFFFFE00
03FFFFFC00
01FFFFF800
00FFFFE000
003FFF8000
0007FC0000
ENDCHAR
STARTCHAR 0118
ENCODING 280
SWIDTH 638 0
DWIDTH 46 0
BBX 40 67 6 -15
BITMAP
FFFFFFFFE0
FFFFFFFFE0
FFFFFFFFE0
FFFFFFFFE0
FFFFFFFFE0
FFFFFFFFE0
FE00000000
FE00000000
FE00000000
FE00000000
FE00000000
FE00000000
FE00000000
FE00000000
FE00000000
FE00000000
FE00000000
FE00000000
FE00000000
FE00000000
FE00000000
FE00000000
FFFFFFFFC0
FFFFFFFFC0
FFFFFFFFC0
FFFFFFFFC0
FFFFFFFFC0
FFFFFFFFC0
FE00000000
FE00000000
FE00000000
FE00000000
FE00000000
FE00000000
FE00000000
FE00000000
FE00000000
FE00000000
FE00000000
FE00000000
FE00000000
FE00000000
FE00000000
FE00000000
FE00000000
FE00000000
FFFFFFFFF8
FFFFFFFFF8
FFFFFFFFF8
FFFFFFFFF8
FFFFFFFFF8
FFFFFFFFF8
00000001F0
00000007C0
0000000F80
0000001F00
0000003E00
0000003C00
0000007C00
0000007C00
0000007C00
0000007C00
0000007E00
0000003F01
0000001FFF
0000000FFF
00000003FE
ENDCHAR
STARTCHAR 0119
ENCODING 281
SWIDTH 527 0
DWIDTH 38 0
BBX 35 54 2 -15
BITMAP
0007FC0000
003FFF8000
00FFFFE000
01FFFFF000
03FFFFFC00
07FFFFFE00
0FFC0FFE00
1FF003FF00
1FE000FF00
3FC0007F80
3F80003F80
7F00001FC0
7F00001FC0
7F00001FC0
7F00000FC0
FE00000FE0
FE00000FE0
FFFFFFFFE0
FFFFFFFFE0
FFFFFFFFE0
FFFFFFFFE0
FFFFFFFFE0
FE00000000
FE00000000
FE00000000
FE00000000
FE00000000
7F00000FC0
7F00001FC0
7F00001FC0
3F80003F80
3FC0007F80
1FE000FF00
1FF001FF00
0FFC07FE00
07FFFFFC00
07FFFFF800
03FFFFF800
00FFFFE000
003FFFC000
0007FB8000
00000F0000
00001F0000
00003E0000
00003E0000
00007C0000
00007C0000
00007C0000
00007C0000
00007E0000
00003F8080
00001FFF80
00000FFF80
000001FF00
ENDCHAR
STARTCHAR 011A
ENCODING 282
SWIDTH 638 0
DWIDTH 46 0
BBX 37 65 6 0
BITMAP
003E007C00
001F00F800
000FC3F000
0007E7E000
0007FFE000
0003FFC000
0001FF8000
0000FF0000
0000FF0000
0000000000
0000000000
0000000000
0000000000
FFFFFFFFF0
FFFFFFFFF0
FFFFFFFFF0
FFFFFFFFF0
FFFFFFFFF0
FFFFFFFFF0
FE00000000
FE00000000
FE00000000
FE00000000
FE00000000
FE00000000
FE00000000
FE00000000
FE00000000
FE00000000
FE00000000
FE00000000
FE00000000
FE00000000
FE00000000
FE00000000
FFFFFFFFE0
FFFFFFFFE0
FFFFFFFFE0
FFFFFFFFE0
FFFFFFFFE0
FFFFFFFFE0
FE00000000
FE00000000
FE00000000
FE00000000
FE00000000
FE00000000
FE00000000
FE00000000
FE00000000
FE00000000
FE00000000
FE00000000
FE00000000
FE00000000
FE00000000
FE00000000
FE00000000
FE00000000
FFFFFFFFF8
FFFFFFFFF8
FFFFFFFFF8
FFFFFFFFF8
FFFFFFFFF8
FFFFFFFFF8
ENDCHAR
STARTCHAR 011B
ENCODING 283
SWIDTH 527 0
DWIDTH 38 0
BBX 35 54 2 -1
BITMAP
00F801F000
007C03E000
003C07C000
003E07C000
001F0F8000
001F9F0000
000FFF0000
0007FE0000
0007FE0000
0003FC0000
0003F80000
0000000000
0000000000
0007FC0000
003FFFC000
007FFFE000
01FFFFF800
03FFFFFC00
07FFFFFE00
0FFC07FE00
1FF001FF00
1FE000FF80
3FC0007F80
3F80003F80
7F80001FC0
7F00001FC0
7F00001FC0
7F00000FC0
FE00000FE0
FE00000FE0
FFFFFFFFE0
FFFFFFFFE0
FFFFFFFFE0
FFFFFFFFE0
FFFFFFFFE0
FE00000000
FE00000000
FE00000000
FE00000000
7F00000000
7F00000000
7F00001FC0
7F80001FC0
3F80003F80
3FC0003F80
1FE0007F80
1FF000FF00
0FFC07FF00
07FFFFFE00
03FFFFFC00
01FFFFF800
00FFFFE000
003FFF8000
0007FC0000
ENDCHAR
STARTCHAR 011C
ENCODING 284
SWIDTH 763 0
DWIDTH 55 0
BBX 48 67 3 -2
BITMAP
000007F80000
000007F80000
00000FFC0000
00001FFE0000
00003FFF0000
00003F3F0000
00007E1F8000
0000F807C000
0001F003E000
000000000000
000000000000
000000000000
00000FFE0000
0000FFFFE000
0003FFFFF800
000FFFFFFE00
003FFFFFFF00
007FFFFFFF80
00FFF803FFC0
01FFC0007FE0
03FF00001FF0
07FC00000FF8
07F8000007F8
0FF0000003FC
0FF0000001FC
1FE0000001FC
1FC0000000FE
3FC0000000FE
3F8000000000
3F8000000000
7F0000000000
7F0000000000
7F0000000000
7F0000000000
FE0000000000
FE0000000000
FE0000000000
FE0000000000
FE00001FFFFF
FE00001FFFFF
FE00001FFFFF
FE00001FFFFF
FE00001FFFFF
FE00001FFFFF
FE000000003F
FF000000003F
7F000000003F
7F000000003F
7F000000003F
7F800000003F
3F800000007F
3FC00000007F
3FC0000000FF
1FE0000000FF
1FE0000001FF
0FF0000003FF
0FF8000007FF
07FC00000FFF
03FF00001FFF
01FFC0007FBF
00FFF803FF1F
007FFFFFFE1F
003FFFFFFC1F
001FFFFFF00F
0007FFFFE00F
0001FFFF0000
00001FF80000
ENDCHAR
STARTCHAR 011D
ENCODING 285
SWIDTH 555 0
DWIDTH 40 0
BBX 34 67 2 -15
BITMAP
0003F80000
0007FC0000
000FFC0000
000FFE0000
001FBF0000
001F1F0000
003E0F8000
007C07C000
007C07C000
00F803E000
01F001E000
0000000000
000FF00000
003FFC1FC0
00FFFF1FC0
01FFFF9FC0
03FFFFDFC0
07FFFFFFC0
0FFC0FEFC0
1FF003FFC0
1FE001FFC0
3FC000FFC0
3F80007FC0
7F80007FC0
7F00003FC0
7F00003FC0
7F00003FC0
FE00001FC0
FE00001FC0
FE00001FC0
FE00001FC0
FE00001FC0
FE00001FC0
FE00001FC0
FE00001FC0
FE00001FC0
FE00001FC0
FE00001FC0
FF00003FC0
7F00003FC0
7F00003FC0
7F80007FC0
3F80007FC0
3FC000FFC0
1FE001FFC0
1FF003FFC0
0FFC0FFFC0
07FFFFDFC0
07FFFF9FC0
03FFFF1FC0
00FFFE1FC0
007FFC1FC0
000FE01FC0
0000001F80
0000003F80
0000003F80
7F00003F80
7F00007F00
7F80007F00
3FC000FF00
3FE001FE00
1FF807FC00
0FFFFFFC00
07FFFFF800
03FFFFE000
00FFFFC000
001FFC0000
ENDCHAR
STARTCHAR 011E
ENCODING 286
SWIDTH 763 0
DWIDTH 55 0
BBX 48 66 3 -1
BITMAP
0003C000F000
0003E001F000
0003E003F000
0001FC0FE000
0001FFFFE000
0000FFFFC000
00007FFF8000
00003FFF0000
000007F80000
000000000000
000000000000
00000FFE0000
0000FFFFE000
0003FFFFF800
000FFFFFFE00
003FFFFFFF00
007FFFFFFF80
00FFF803FFC0
01FFC0007FE0
03FF00001FF0
07FC00000FF8
07F8000007F8
0FF0000003FC
0FF0000001FC
1FE0000001FC
1FC0000000FE
3FC0000000FE
3F8000000000
3F8000000000
7F0000000000
7F0000000000
7F0000000000
7F0000000000
FE0000000000
FE0000000000
FE0000000000
FE0000000000
FE00001FFFFF
FE00001FFFFF
FE00001FFFFF
FE00001FFFFF
FE00001FFFFF
FE00001FFFFF
FE000000003F
FF000000003F
7F000000003F
7F000000003F
7F000000003F
7F800000003F
3F800000007F
3FC00000007F
3FC0000000FF
1FE0000000FF
1FE0000001FF
0FF0000003FF
0FF8000007FF
07FC00000FFF
03FF00001FFF
01FFC0007FBF
00FFF803FF1F
007FFFFFFE1F
003FFFFFFC1F
001FFFFFF00F
0007FFFFE00F
0001FFFF0000
00001FF80000
ENDCHAR
STARTCHAR 011F
ENCODING 287
SWIDTH 555 0
DWIDTH 40 0
BBX 34 68 2 -16
BITMAP
03C000F000
03C000F000
03E001F000
01F807E000
01FFFFE000
00FFFFC000
007FFF8000
003FFF0000
000FFC0000
0000000000
0000000000
0000000000
0000000000
000FF00000
003FFC1FC0
00FFFF1FC0
01FFFF9FC0
03FFFFDFC0
07FFFFFFC0
0FFC0FEFC0
1FF003FFC0
1FE001FFC0
3FC000FFC0
3F80007FC0
7F80007FC0
7F00003FC0
7F00003FC0
7F00003FC0
FE00001FC0
FE00001FC0
FE00001FC0
FE00001FC0
FE00001FC0
FE00001FC0
FE00001FC0
FE00001FC0
FE00001FC0
FE00001FC0
FE00001FC0
FF00003FC0
7F00003FC0
7F00003FC0
7F80007FC0
3F80007FC0
3FC000FFC0
1FE001FFC0
1FF003FFC0
0FFC0FFFC0
07FFFFDFC0
07FFFF9FC0
03FFFF1FC0
00FFFE1FC0
007FFC1FC0
000FE01FC0
0000001F80
0000003F80
0000003F80
7F00003F80
7F00007F00
7F80007F00
3FC000FF00
3FE001FE00
1FF807FC00
0FFFFFFC00
07FFFFF800
03FFFFE000
00FFFFC000
001FFC0000
ENDCHAR
STARTCHAR 0120
ENCODING 288
SWIDTH 763 0
DWIDTH 55 0
BBX 48 66 3 -1
BITMAP
000007F00000
000007F00000
000007F00000
000007F00000
000007F00000
000007F00000
000007F00000
000000000000
000000000000
000000000000
000000000000
00000FFE0000
0000FFFFE000
0003FFFFF800
000FFFFFFE00
003FFFFFFF00
007FFFFFFF80
00FFF803FFC0
01FFC0007FE0
03FF00001FF0
07FC00000FF8
07F8000007F8
0FF0000003FC
0FF0000001FC
1FE0000001FC
1FC0000000FE
3FC0000000FE
3F8000000000
3F8000000000
7F0000000000
7F0000000000
7F0000000000
7F0000000000
FE0000000000
FE0000000000
FE0000000000
FE0000000000
FE00001FFFFF
FE00001FFFFF
FE00001FFFFF
FE00001FFFFF
FE00001FFFFF
FE00001FFFFF
FE000000003F
FF000000003F
7F000000003F
7F000000003F
7F000000003F
7F800000003F
3F800000007F
3FC00000007F
3FC0000000FF
1FE0000000FF
1FE0000001FF
0FF0000003FF
0FF8000007FF
07FC00000FFF
03FF00001FFF
01FFC0007FBF
00FFF803FF1F
007FFFFFFE1F
003FFFFFFC1F
001FFFFFF00F
0007FFFFE00F
0001FFFF0000
00001FF80000
ENDCHAR
STARTCHAR 0121
ENCODING 289
SWIDTH 555 0
DWIDTH 40 0
BBX 34 68 2 -16
BITMAP
000FE00000
000FE00000
000FE00000
000FE00000
000FE00000
000FE00000
000FE00000
0000000000
0000000000
0000000000
0000000000
0000000000
0000000000
000FF00000
003FFC1FC0
00FFFF1FC0
01FFFF9FC0
03FFFFDFC0
07FFFFFFC0
0FFC0FEFC0
1FF003FFC0
1FE001FFC0
3FC000FFC0
3F80007FC0
7F80007FC0
7F00003FC0
7F00003FC0
7F00003FC0
FE00001FC0
FE00001FC0
FE00001FC0
FE00001FC0
FE00001FC0
FE00001FC0
FE00001FC0
FE00001FC0
FE00001FC0
FE00001FC0
FE00001FC0
FF00003FC0
7F00003FC0
7F00003FC0
7F80007FC0
3F80007FC0
3FC000FFC0
1FE001FFC0
1FF003FFC0
0FFC0FFFC0
07FFFFDFC0
07FFFF9FC0
03FFFF1FC0
00FFFE1FC0
007FFC1FC0
000FE01FC0
0000001F80
0000003F80
0000003F80
7F00003F80
7F00007F00
7F80007F00
3FC000FF00
3FE001FE00
1FF807FC00
0FFFFFFC00
07FFFFF800
03FFFFE000
00FFFFC000
001FFC0000
ENDCHAR
STARTCHAR 0122
ENCODING 290
SWIDTH 763 0
DWIDTH 55 0
BBX 48 75 3 -22
BITMAP
00000FFE0000
0000FFFFE000
0003FFFFF800
000FFFFFFE00
003FFFFFFF00
007FFFFFFF80
00FFF803FFC0
01FFC0007FE0
03FF00001FF0
07FC00000FF8
07F8000007F8
0FF0000003FC
0FF0000001FC
1FE0000001FC
1FC0000000FE
3FC0000000FE
3F8000000000
3F8000000000
7F0000000000
7F0000000000
7F0000000000
7F0000000000
FE0000000000
FE0000000000
FE0000000000
FE0000000000
FE00001FFFFF
FE00001FFFFF
FE00001FFFFF
FE00001FFFFF
FE00001FFFFF
FE00001FFFFF
FE000000003F
FF000000003F
7F000000003F
7F000000003F
7F000000003F
7F800000003F
3F800000007F
3FC00000007F
3FC0000000FF
1FE0000000FF
1FE0000001FF
0FF0000003FF
0FF8000007FF
07FC00000FFF
03FF00001FFF
01FFC0007FBF
00FFF803FF1F
007FFFFFFE1F
003FFFFFFC1F
001FFFFFF00F
0007FFFFE00F
0001FFFF0000
00001FF80000
000000000000
000000000000
000000000000
000000000000
000007F00000
000007F00000
000007F00000
000007F00000
000007F00000
000007F00000
000007F00000
000000700000
000000700000
000000700000
000000700000
000000E00000
000001E00000
000007C00000
000007800000
000007000000
ENDCHAR
STARTCHAR 0123
ENCODING 291
SWIDTH 555 0
DWIDTH 40 0
BBX 34 69 2 -15
BITMAP
0000E00000
0003E00000
0007E00000
0007000000
000E000000
000FE00000
000FE00000
000FE00000
000FE00000
000FE00000
000FE00000
0000000000
0000000000
0000000000
000FF00000
003FFC1FC0
00FFFF1FC0
01FFFF9FC0
03FFFFDFC0
07FFFFFFC0
0FFC0FEFC0
1FF003FFC0
1FE001FFC0
3FC000FFC0
3F80007FC0
7F80007FC0
7F00003FC0
7F00003FC0
7F00003FC0
FE00001FC0
FE00001FC0
FE00001FC0
FE00001FC0
FE00001FC0
FE00001FC0
FE00001FC0
FE00001FC0
FE00001FC0
FE00001FC0
FE00001FC0
FF00003FC0
7F00003FC0
7F00003FC0
7F80007FC0
3F80007FC0
3FC000FFC0
1FE001FFC0
1FF003FFC0
0FFC0FFFC0
07FFFFDFC0
07FFFF9FC0
03FFFF1FC0
00FFFE1FC0
007FFC1FC0
000FE01FC0
0000001F80
0000003F80
0000003F80
7F00003F80
7F00007F00
7F80007F00
3FC000FF00
3FE001FE00
1FF807FC00
0FFFFFFC00
07FFFFF800
03FFFFE000
00FFFFC000
001FFC0000
ENDCHAR
STARTCHAR 0124
ENCODING 292
SWIDTH 722 0
DWIDTH 52 0
BBX 40 65 6 0
BITMAP
0001FE0000
0001FE0000
0003FF0000
0007FF8000
000FFFC000
000FCFC000
001F87E000
003E01F000
007C00F800
0000000000
0000000000
0000000000
0000000000
FE0000007F
FE0000007F
FE0000007F
FE0000007F
FE0000007F
FE0000007F
FE0000007F
FE0000007F
FE0000007F
FE0000007F
FE0000007F
FE0000007F
FE0000007F
FE0000007F
FE0000007F
FE0000007F
FE0000007F
FE0000007F
FE0000007F
FE0000007F
FE0000007F
FE0000007F
FFFFFFFFFF
FFFFFFFFFF
FFFFFFFFFF
FFFFFFFFFF
FFFFFFFFFF
FFFFFFFFFF
FE0000007F
FE0000007F
FE0000007F
FE0000007F
FE0000007F
FE0000007F
FE0000007F
FE0000007F
FE0000007F
FE0000007F
FE0000007F
FE0000007F
FE0000007F
FE0000007F
FE0000007F
FE0000007F
FE0000007F
FE0000007F
FE0000007F
FE0000007F
FE0000007F
FE0000007F
FE0000007F
FE0000007F
ENDCHAR
STARTCHAR 0125
ENCODING 293
SWIDTH 541 0
DWIDTH 39 0
BBX 30 64 4 1
BITMAP
000FF000
000FF800
001FF800
001FFC00
003F7E00
007E3E00
007C1F00
00F80F80
00F00F80
01F007C0
03E003C0
00000000
FC000000
FC000000
FC000000
FC000000
FC000000
FC000000
FC000000
FC000000
FC000000
FC000000
FC000000
FC000000
FC000000
FC03FC00
FC1FFF80
FC3FFFC0
FCFFFFE0
FDFFFFF0
FFF81FF8
FFE007F8
FFC003FC
FF8001FC
FF0000FC
FF0000FC
FE0000FC
FE0000FC
FC0000FC
FC0000FC
FC0000FC
FC0000FC
FC0000FC
FC0000FC
FC0000FC
FC0000FC
FC0000FC
FC0000FC
FC0000FC
FC0000FC
FC0000FC
FC0000FC
FC0000FC
FC0000FC
FC0000FC
FC0000FC
FC0000FC
FC0000FC
FC0000FC
FC0000FC
FC0000FC
FC0000FC
FC0000FC
FC0000FC
ENDCHAR
STARTCHAR 0126
ENCODING 294
SWIDTH 722 0
DWIDTH 52 0
BBX 46 52 3 0
BITMAP
1FC000000FE0
1FC000000FE0
1FC000000FE0
1FC000000FE0
1FC000000FE0
1FC000000FE0
1FC000000FE0
1FC000000FE0
1FC000000FE0
1FC000000FE0
1FC000000FE0
FFFFFFFFFFFC
FFFFFFFFFFFC
FFFFFFFFFFFC
FFFFFFFFFFFC
FFFFFFFFFFFC
1FC000000FE0
1FC000000FE0
1FC000000FE0
1FC000000FE0
1FC000000FE0
1FC000000FE0
1FFFFFFFFFE0
1FFFFFFFFFE0
1FFFFFFFFFE0
1FFFFFFFFFE0
1FFFFFFFFFE0
1FFFFFFFFFE0
1FC000000FE0
1FC000000FE0
1FC000000FE0
1FC000000FE0
1FC000000FE0
1FC000000FE0
1FC000000FE0
1FC000000FE0
1FC000000FE0
1FC000000FE0
1FC000000FE0
1FC000000FE0
1FC000000FE0
1FC000000FE0
1FC000000FE0
1FC000000FE0
1FC000000FE0
1FC000000FE0
1FC000000FE0
1FC000000FE0
1FC000000FE0
1FC000000FE0
1FC000000FE0
1FC000000FE0
ENDCHAR
STARTCHAR 0127
ENCODING 295
SWIDTH 555 0
DWIDTH 40 0
BBX 34 52 2 0
BITMAP
0FC0000000
0FC0000000
0FC0000000
0FC0000000
0FC0000000
FFFFF00000
FFFFF00000
FFFFF00000
FFFFF00000
0FC0000000
0FC0000000
0FC0000000
0FC0000000
0FC03FC000
0FC1FFF800
0FC3FFFC00
0FCFFFFE00
0FDFFFFF00
0FFF81FF80
0FFE007F80
0FFC003FC0
0FF8001FC0
0FF0000FC0
0FF0000FC0
0FE0000FC0
0FE0000FC0
0FC0000FC0
0FC0000FC0
0FC0000FC0
0FC0000FC0
0FC0000FC0
0FC0000FC0
0FC0000FC0
0FC0000FC0
0FC0000FC0
0FC0000FC0
0FC0000FC0
0FC0000FC0
0FC0000FC0
0FC0000FC0
0FC0000FC0
0FC0000FC0
0FC0000FC0
0FC0000FC0
0FC0000FC0
0FC0000FC0
0FC0000FC0
0FC0000FC0
0FC0000FC0
0FC0000FC0
0FC0000FC0
0FC0000FC0
ENDCHAR
STARTCHAR 0128
ENCODING 296
SWIDTH 305 0
DWIDTH 22 0
BBX 22 63 -1 1
BITMAP
0F803C
1FE07C
3FFCFC
7FFFF8
7FFFF8
787FF0
F80FE0
F001C0
000000
000000
000000
00FE00
00FE00
00FE00
00FE00
00FE00
00FE00
00FE00
00FE00
00FE00
00FE00
00FE00
00FE00
00FE00
00FE00
00FE00
00FE00
00FE00
00FE00
00FE00
00FE00
00FE00
00FE00
00FE00
00FE00
00FE00
00FE00
00FE00
00FE00
00FE00
00FE00
00FE00
00FE00
00FE00
00FE00
00FE00
00FE00
00FE00
00FE00
00FE00
00FE00
00FE00
00FE00
00FE00
00FE00
00FE00
00FE00
00FE00
00FE00
00FE00
00FE00
00FE00
00FE00
ENDCHAR
STARTCHAR 0129
ENCODING 297
SWIDTH 263 0
DWIDTH 19 0
BBX 22 51 -2 0
BITMAP
04003C
1FC07C
3FF078
7FFFF8
7FFFF8
FDFFF0
F03FF0
F00FC0
000000
000000
000000
000000
000000
00FC00
00FC00
00FC00
00FC00
00FC00
00FC00
00FC00
00FC00
00FC00
00FC00
00FC00
00FC00
00FC00
00FC00
00FC00
00FC00
00FC00
00FC00
00FC00
00FC00
00FC00
00FC00
00FC00
00FC00
00FC00
00FC00
00FC00
00FC00
00FC00
00FC00
00FC00
00FC00
00FC00
00FC00
00FC00
00FC00
00FC00
00FC00
ENDCHAR
STARTCHAR 012A
ENCODING 298
SWIDTH 277 0
DWIDTH 20 0
BBX 19 62 0 1
BITMAP
FFFFE0
FFFFE0
FFFFE0
FFFFE0
FFFFE0
000000
000000
000000
000000
000000
01FC00
01FC00
01FC00
01FC00
01FC00
01FC00
01FC00
01FC00
01FC00
01FC00
01FC00
01FC00
01FC00
01FC00
01FC00
01FC00
01FC00
01FC00
01FC00
01FC00
01FC00
01FC00
01FC00
01FC00
01FC00
01FC00
01FC00
01FC00
01FC00
01FC00
01FC00
01FC00
01FC00
01FC00
01FC00
01FC00
01FC00
01FC00
01FC00
01FC00
01FC00
01FC00
01FC00
01FC00
01FC00
01FC00
01FC00
01FC00
01FC00
01FC00
01FC00
01FC00
ENDCHAR
STARTCHAR 012B
ENCODING 299
SWIDTH 263 0
DWIDTH 19 0
BBX 19 49 0 0
BITMAP
FFFFE0
FFFFE0
FFFFE0
FFFFE0
FFFFE0
000000
000000
000000
000000
000000
000000
03F000
03F000
03F000
03F000
03F000
03F000
03F000
03F000
03F000
03F000
03F000
03F000
03F000
03F000
03F000
03F000
03F000
03F000
03F000
03F000
03F000
03F000
03F000
03F000
03F000
03F000
03F000
03F000
03F000
03F000
03F000
03F000
03F000
03F000
03F000
03F000
03F000
03F000
ENDCHAR
STARTCHAR 012C
ENCODING 300
SWIDTH 305 0
DWIDTH 22 0
BBX 22 64 0 1
BITMAP
F0003C
F00078
F800F8
FE03F8
7FFFF0
3FFFF0
1FFFE0
0FFF80
01FC00
000000
000000
000000
01FC00
01FC00
01FC00
01FC00
01FC00
01FC00
01FC00
01FC00
01FC00
01FC00
01FC00
01FC00
01FC00
01FC00
01FC00
01FC00
01FC00
01FC00
01FC00
01FC00
01FC00
01FC00
01FC00
01FC00
01FC00
01FC00
01FC00
01FC00
01FC00
01FC00
01FC00
01FC00
01FC00
01FC00
01FC00
01FC00
01FC00
01FC00
01FC00
01FC00
01FC00
01FC00
01FC00
01FC00
01FC00
01FC00
01FC00
01FC00
01FC00
01FC00
01FC00
01FC00
ENDCHAR
STARTCHAR 012D
ENCODING 301
SWIDTH 263 0
DWIDTH 19 0
BBX 22 52 -1 0
BITMAP
F0003C
F0007C
F80078
FE01F8
7FFFF8
3FFFF0
3FFFE0
0FFFC0
03FF00
000000
000000
000000
000000
000000
01F800
01F800
01F800
01F800
01F800
01F800
01F800
01F800
01F800
01F800
01F800
01F800
01F800
01F800
01F800
01F800
01F800
01F800
01F800
01F800
01F800
01F800
01F800
01F800
01F800
01F800
01F800
01F800
01F800
01F800
01F800
01F800
01F800
01F800
01F800
01F800
01F800
01F800
ENDCHAR
STARTCHAR 012E
ENCODING 302
SWIDTH 277 0
DWIDTH 20 0
BBX 15 67 2 -15
BITMAP
07F0
07F0
07F0
07F0
07F0
07F0
07F0
07F0
07F0
07F0
07F0
07F0
07F0
07F0
07F0
07F0
07F0
07F0
07F0
07F0
07F0
07F0
07F0
07F0
07F0
07F0
07F0
07F0
07F0
07F0
07F0
07F0
07F0
07F0
07F0
07F0
07F0
07F0
07F0
07F0
07F0
07F0
07F0
07F0
07F0
07F0
07F0
07F0
07F0
07F0
07F0
07F0
01F0
07C0
1F80
3E00
7C00
7C00
F800
F800
F800
F800
FC00
7E02
3FFE
1FFE
03FC
ENDCHAR
STARTCHAR 012F
ENCODING 303
SWIDTH 263 0
DWIDTH 19 0
BBX 15 67 0 -15
BITMAP
03F0
03F0
03F0
03F0
03F0
03F0
03F0
03F0
0000
0000
0000
0000
0000
0000
0000
0000
03F0
03F0
03F0
03F0
03F0
03F0
03F0
03F0
03F0
03F0
03F0
03F0
03F0
03F0
03F0
03F0
03F0
03F0
03F0
03F0
03F0
03F0
03F0
03F0
03F0
03F0
03F0
03F0
03F0
03F0
03F0
03F0
03F0
03F0
03F0
03F0
03F0
07C0
1F80
3E00
7C00
7C00
F800
F800
F800
F800
FC00
7E02
3FFE
1FFE
03FC
ENDCHAR
STARTCHAR 0130
ENCODING 304
SWIDTH 277 0
DWIDTH 20 0
BBX 7 63 7 1
BITMAP
FE
FE
FE
FE
FE
FE
FE
00
00
00
00
FE
FE
FE
FE
FE
FE
FE
FE
FE
FE
FE
FE
FE
FE
FE
FE
FE
FE
FE
FE
FE
FE
FE
FE
FE
FE
FE
FE
FE
FE
FE
FE
FE
FE
FE
FE
FE
FE
FE
FE
FE
FE
FE
FE
FE
FE
FE
FE
FE
FE
FE
FE
ENDCHAR
STARTCHAR 0131
ENCODING 305
SWIDTH 222 0
DWIDTH 16 0
BBX 6 38 5 0
BITMAP
FC
FC
FC
FC
FC
FC
FC
FC
FC
FC
FC
FC
FC
FC
FC
FC
FC
FC
FC
FC
FC
FC
FC
FC
FC
FC
FC
FC
FC
FC
FC
FC
FC
FC
FC
FC
FC
FC
ENDCHAR
STARTCHAR 0132
ENCODING 306
SWIDTH 763 0
DWIDTH 55 0
BBX 42 54 7 -2
BITMAP
FE0000001FC0
FE0000001FC0
FE0000001FC0
FE0000001FC0
FE0000001FC0
FE0000001FC0
FE0000001FC0
FE0000001FC0
FE0000001FC0
FE0000001FC0
FE0000001FC0
FE0000001FC0
FE0000001FC0
FE0000001FC0
FE0000001FC0
FE0000001FC0
FE0000001FC0
FE0000001FC0
FE0000001FC0
FE0000001FC0
FE0000001FC0
FE0000001FC0
FE0000001FC0
FE0000001FC0
FE0000001FC0
FE0000001FC0
FE0000001FC0
FE0000001FC0
FE0000001FC0
FE0000001FC0
FE0000001FC0
FE0000001FC0
FE0000001FC0
FE0000001FC0
FE0000001FC0
FE0000001FC0
FE07F0001FC0
FE07F0001FC0
FE07F0003FC0
FE07F0003FC0
FE07F0003FC0
FE07F0003F80
FE07F0003F80
FE07F0003F80
FE07F8007F80
FE07F8007F80
FE03FC00FF00
FE03FF03FF00
FE01FFFFFE00
FE00FFFFFC00
FE007FFFF800
FE003FFFF000
00001FFFC000
000003FE0000
ENDCHAR
STARTCHAR 0133
ENCODING 307
SWIDTH 388 0
DWIDTH 28 0
BBX 19 68 5 -16
BITMAP
FC07E0
FC07E0
FC07E0
FC07E0
FC07E0
FC07E0
FC07E0
FC07E0
000000
000000
000000
000000
000000
000000
FC07E0
FC07E0
FC07E0
FC07E0
FC07E0
FC07E0
FC07E0
FC07E0
FC07E0
FC07E0
FC07E0
FC07E0
FC07E0
FC07E0
FC07E0
FC07E0
FC07E0
FC07E0
FC07E0
FC07E0
FC07E0
FC07E0
FC07E0
FC07E0
FC07E0
FC07E0
FC07E0
FC07E0
FC07E0
FC07E0
FC07E0
FC07E0
FC07E0
FC07E0
FC07E0
FC07E0
FC07E0
FC07E0
0007E0
0007E0
0007E0
0007E0
0007E0
0007E0
0007E0
0007E0
000FE0
000FE0
001FC0
03FFC0
03FF80
03FF80
03FE00
03F800
ENDCHAR
STARTCHAR 0134
ENCODING 308
SWIDTH 527 0
DWIDTH 38 0
BBX 34 67 3 -2
BITMAP
00000FF000
00000FF000
00001FF800
00003FFC00
00007FFE00
00007E7E00
0000FC3F00
0001F00F80
0003E007C0
0000000000
0000000000
0000000000
0000000000
000003F800
000003F800
000003F800
000003F800
000003F800
000003F800
000003F800
000003F800
000003F800
000003F800
000003F800
000003F800
000003F800
000003F800
000003F800
000003F800
000003F800
000003F800
000003F800
000003F800
000003F800
000003F800
000003F800
000003F800
000003F800
000003F800
000003F800
000003F800
000003F800
000003F800
000003F800
000003F800
000003F800
000003F800
000003F800
000003F800
FE0003F800
FE0003F800
FE0003F800
FE0003F800
FE0003F800
FE0003F800
FE0007F800
FF0007F800
FF0007F000
7F800FF000
7FC01FF000
3FE07FE000
3FFFFFC000
1FFFFFC000
0FFFFF8000
07FFFE0000
01FFFC0000
003FE00000
ENDCHAR
STARTCHAR 0135
ENCODING 309
SWIDTH 263 0
DWIDTH 19 0
BBX 20 67 -1 -15
BITMAP
03F800
07FC00
07FE00
0FFE00
1FBF00
1F1F80
3E0F80
7E07C0
7C03C0
F803E0
F001F0
000000
000000
01F800
01F800
01F800
01F800
01F800
01F800
01F800
01F800
01F800
01F800
01F800
01F800
01F800
01F800
01F800
01F800
01F800
01F800
01F800
01F800
01F800
01F800
01F800
01F800
01F800
01F800
01F800
01F800
01F800
01F800
01F800
01F800
01F800
01F800
01F800
01F800
01F800
01F800
01F800
01F800
01F800
01F800
01F800
01F800
01F800
01F800
01F800
03F800
07F800
7FF000
7FF000
7FE000
7FC000
7E0000
ENDCHAR
STARTCHAR 0136
ENCODING 310
SWIDTH 680 0
DWIDTH 49 0
BBX 42 74 6 -22
BITMAP
FE0000007F80
FE000000FF00
FE000001FE00
FE000003FC00
FE000007F800
FE00000FF000
FE00001FE000
FE00003FC000
FE00007F8000
FE0000FF0000
FE0001FE0000
FE0003FC0000
FE0007F80000
FE000FF00000
FE001FE00000
FE003FC00000
FE007F800000
FE00FF000000
FE01FE000000
FE03FC000000
FE07F8000000
FE0FF8000000
FE1FF8000000
FE3FFC000000
FE7FFE000000
FEFEFE000000
FFFCFF000000
FFF87F800000
FFF03FC00000
FFE03FC00000
FFC01FE00000
FF800FF00000
FF0007F00000
FE0007F80000
FE0003FC0000
FE0001FC0000
FE0001FE0000
FE0000FF0000
FE00007F8000
FE00007F8000
FE00003FC000
FE00001FE000
FE00001FE000
FE00000FF000
FE000007F800
FE000003F800
FE000003FC00
FE000001FE00
FE000000FF00
FE000000FF00
FE0000007F80
FE0000003FC0
000000000000
000000000000
000000000000
000000000000
000000000000
000000000000
0000FE000000
0000FE000000
0000FE000000
0000FE000000
0000FE000000
0000FE000000
0000FE000000
00000E000000
00000E000000
00000E000000
00000E000000
00001C000000
00003C000000
0000F8000000
0000F0000000
0000E0000000
ENDCHAR
STARTCHAR 0137
ENCODING 311
SWIDTH 513 0
DWIDTH 37 0
BBX 32 74 4 -22
BITMAP
FC000000
FC000000
FC000000
FC000000
FC000000
FC000000
FC000000
FC000000
FC000000
FC000000
FC000000
FC000000
FC000000
FC000000
FC0007F8
FC000FF0
FC001FE0
FC003FC0
FC007F80
FC00FF00
FC00FE00
FC01FC00
FC03F800
FC07F000
FC0FE000
FC1FC000
FC3F8000
FC7F8000
FCFF8000
FDFFC000
FFFFE000
FFFFE000
FFE7F000
FFC7F800
FF83F800
FF03FC00
FE01FC00
FC00FE00
FC00FF00
FC007F00
FC007F80
FC003F80
FC001FC0
FC001FE0
FC000FE0
FC0007F0
FC0007F8
FC0003F8
FC0003FC
FC0001FC
FC0000FE
FC0000FF
00000000
00000000
00000000
00000000
00000000
00000000
0007F000
0007F000
0007F000
0007F000
0007F000
0007F000
0007F000
00007000
00007000
00007000
00007000
0000E000
0001E000
0007C000
00078000
00070000
ENDCHAR
STARTCHAR 0138
ENCODING 312
SWIDTH 513 0
DWIDTH 37 0
BBX 31 38 4 0
BITMAP
FC0007F8
FC000FF0
FC001FE0
FC003FC0
FC007F80
FC00FF00
FC00FE00
FC01FC00
FC03F800
FC07F000
FC0FE000
FC1FC000
FC3F8000
FC7F0000
FCFE0000
FDFC0000
FFF80000
FFF00000
FFC00000
FFE00000
FFF00000
FFF80000
FFFC0000
FDFE0000
FC7F8000
FC3FC000
FC1FE000
FC0FF000
FC07F800
FC03FC00
FC00FE00
FC007F80
FC003FC0
FC001FE0
FC000FF0
FC0003F8
FC0001FC
FC0000FE
ENDCHAR
STARTCHAR 0139
ENCODING 313
SWIDTH 569 0
DWIDTH 41 0
BBX 32 65 6 0
BITMAP
003FC000
007F8000
00FF0000
00FE0000
01F80000
03F00000
07E00000
0F800000
1F000000
00000000
00000000
00000000
00000000
FE000000
FE000000
FE000000
FE000000
FE000000
FE000000
FE000000
FE000000
FE000000
FE000000
FE000000
FE000000
FE000000
FE000000
FE000000
FE000000
FE000000
FE000000
FE000000
FE000000
FE000000
FE000000
FE000000
FE000000
FE000000
FE000000
FE000000
FE000000
FE000000
FE000000
FE000000
FE000000
FE000000
FE000000
FE000000
FE000000
FE000000
FE000000
FE000000
FE000000
FE000000
FE000000
FE000000
FE000000
FE000000
FE000000
FFFFFFFF
FFFFFFFF
FFFFFFFF
FFFFFFFF
FFFFFFFF
FFFFFFFF
ENDCHAR
STARTCHAR 013A
ENCODING 314
SWIDTH 236 0
DWIDTH 17 0
BBX 15 65 1 0
BITMAP
01FE
03FC
07F8
07F0
0FC0
1F80
3F00
7C00
F800
0000
0000
0000
0000
1FC0
1FC0
1FC0
1FC0
1FC0
1FC0
1FC0
1FC0
1FC0
1FC0
1FC0
1FC0
1FC0
1FC0
1FC0
1FC0
1FC0
1FC0
1FC0
1FC0
1FC0
1FC0
1FC0
1FC0
1FC0
1FC0
1FC0
1FC0
1FC0
1FC0
1FC0
1FC0
1FC0
1FC0
1FC0
1FC0
1FC0
1FC0
1FC0
1FC0
1FC0
1FC0
1FC0
1FC0
1FC0
1FC0
1FC0
1FC0
1FC0
1FC0
1FC0
1FC0
ENDCHAR
STARTCHAR 013B
ENCODING 315
SWIDTH 569 0
DWIDTH 41 0
BBX 32 74 6 -22
BITMAP
FE000000
FE000000
FE000000
FE000000
FE000000
FE000000
FE000000
FE000000
FE000000
FE000000
FE000000
FE000000
FE000000
FE000000
FE000000
FE000000
FE000000
FE000000
FE000000
FE000000
FE000000
FE000000
FE000000
FE000000
FE000000
FE000000
FE000000
FE000000
FE000000
FE000000
FE000000
FE000000
FE000000
FE000000
FE000000
FE000000
FE000000
FE000000
FE000000
FE000000
FE000000
FE000000
FE000000
FE000000
FE000000
FE000000
FFFFFFFF
FFFFFFFF
FFFFFFFF
FFFFFFFF
FFFFFFFF
FFFFFFFF
00000000
00000000
00000000
00000000
00000000
00000000
0007F000
0007F000
0007F000
0007F000
0007F000
0007F000
0007F000
00007000
00007000
00007000
00007000
0000E000
0001E000
0007C000
00078000
00070000
ENDCHAR
STARTCHAR 013C
ENCODING 316
SWIDTH 208 0
DWIDTH 15 0
BBX 8 74 4 -22
BITMAP
FE
FE
FE
FE
FE
FE
FE
FE
FE
FE
FE
FE
FE
FE
FE
FE
FE
FE
FE
FE
FE
FE
FE
FE
FE
FE
FE
FE
FE
FE
FE
FE
FE
FE
FE
FE
FE
FE
FE
FE
FE
FE
FE
FE
FE
FE
FE
FE
FE
FE
FE
FE
00
00
00
00
00
00
7F
7F
7F
7F
7F
7F
7F
07
07
07
07
0E
1E
7C
78
70
ENDCHAR
STARTCHAR 013D
ENCODING 317
SWIDTH 569 0
DWIDTH 41 0
BBX 32 53 6 0
BITMAP
00003FC0
FE003F80
FE003F00
FE007E00
FE007E00
FE00FC00
FE00F800
FE01F000
FE01E000
FE01E000
FE03C000
FE000000
FE000000
FE000000
FE000000
FE000000
FE000000
FE000000
FE000000
FE000000
FE000000
FE000000
FE000000
FE000000
FE000000
FE000000
FE000000
FE000000
FE000000
FE000000
FE000000
FE000000
FE000000
FE000000
FE000000
FE000000
FE000000
FE000000
FE000000
FE000000
FE000000
FE000000
FE000000
FE000000
FE000000
FE000000
FE000000
FFFFFFFF
FFFFFFFF
FFFFFFFF
FFFFFFFF
FFFFFFFF
FFFFFFFF
ENDCHAR
STARTCHAR 013E
ENCODING 318
SWIDTH 388 0
DWIDTH 28 0
BBX 22 53 4 0
BITMAP
0003FC
FE03F8
FE03F0
FE07E0
FE07E0
FE0FC0
FE0F80
FE1F00
FE1E00
FE1E00
FE3C00
FE0000
FE0000
FE0000
FE0000
FE0000
FE0000
FE0000
FE0000
FE0000
FE0000
FE0000
FE0000
FE0000
FE0000
FE0000
FE0000
FE0000
FE0000
FE0000
FE0000
FE0000
FE0000
FE0000
FE0000
FE0000
FE0000
FE0000
FE0000
FE0000
FE0000
FE0000
FE0000
FE0000
FE0000
FE0000
FE0000
FE0000
FE0000
FE0000
FE0000
FE0000
FE0000
ENDCHAR
STARTCHAR 013F
ENCODING 319
SWIDTH 569 0
DWIDTH 41 0
BBX 32 52 6 0
BITMAP
FE000000
FE000000
FE000000
FE000000
FE000000
FE000000
FE000000
FE000000
FE000000
FE000000
FE000000
FE000000
FE000000
FE000000
FE000000
FE000000
FE000000
FE000000
FE000000
FE000000
FE000000
FE000000
FE000000
FE000000
FE000000
FE000000
FE000000
FE000000
FE000000
FE0000FE
FE0000FE
FE0000FE
FE0000FE
FE0000FE
FE0000FE
FE0000FE
FE000000
FE000000
FE000000
FE000000
FE000000
FE000000
FE000000
FE000000
FE000000
FE000000
FFFFFFFF
FFFFFFFF
FFFFFFFF
FFFFFFFF
FFFFFFFF
FFFFFFFF
ENDCHAR
STARTCHAR 0140
ENCODING 320
SWIDTH 361 0
DWIDTH 26 0
BBX 19 52 4 0
BITMAP
FE0000
FE0000
FE0000
FE0000
FE0000
FE0000
FE0000
FE0000
FE0000
FE0000
FE0000
FE0000
FE0000
FE0000
FE0000
FE0000
FE0000
FE0000
FE0000
FE0000
FE0000
FE0000
FE0000
FE0000
FE0000
FE0000
FE0000
FE0000
FE0000
FE0FE0
FE0FE0
FE0FE0
FE0FE0
FE0FE0
FE0FE0
FE0FE0
FE0000
FE0000
FE0000
FE0000
FE0000
FE0000
FE0000
FE0000
FE0000
FE0000
FE0000
FE0000
FE0000
FE0000
FE0000
FE0000
ENDCHAR
STARTCHAR 0141
ENCODING 321
SWIDTH 611 0
DWIDTH 44 0
BBX 38 52 3 0
BITMAP
07F0000000
07F0000000
07F0000000
07F0000000
07F0000000
07F0000000
07F0000000
07F0000000
07F0000000
07F0000000
07F0000000
07F0000000
07F0000000
07F0000000
07F0000000
07F0030000
07F0070000
07F01F0000
07F03F0000
07F07F0000
07F1FE0000
07F3F80000
07FFF00000
07FFE00000
07FF800000
07FF000000
07FC000000
1FF8000000
3FF0000000
7FF0000000
FFF0000000
FFF0000000
F7F0000000
E7F0000000
C7F0000000
07F0000000
07F0000000
07F0000000
07F0000000
07F0000000
07F0000000
07F0000000
07F0000000
07F0000000
07F0000000
07F0000000
07FFFFFFFC
07FFFFFFFC
07FFFFFFFC
07FFFFFFFC
07FFFFFFFC
07FFFFFFFC
ENDCHAR
STARTCHAR 0142
ENCODING 322
SWIDTH 250 0
DWIDTH 18 0
BBX 14 52 2 0
BITMAP
0FC0
0FC0
0FC0
0FC0
0FC0
0FC0
0FC0
0FC0
0FC0
0FC0
0FC0
0FC0
0FC0
0FC0
0FC0
0FC0
0FC0
0FC0
0FC0
0FC4
0FCC
0FFC
0FFC
0FF8
0FF0
0FE0
3FC0
7FC0
FFC0
FFC0
EFC0
CFC0
8FC0
0FC0
0FC0
0FC0
0FC0
0FC0
0FC0
0FC0
0FC0
0FC0
0FC0
0FC0
0FC0
0FC0
0FC0
0FC0
0FC0
0FC0
0FC0
0FC0
ENDCHAR
STARTCHAR 0143
ENCODING 323
SWIDTH 736 0
DWIDTH 53 0
BBX 41 65 6 0
BITMAP
000003FC0000
000007F80000
00000FF00000
00000FE00000
00001F800000
00003F000000
00007E000000
0000F8000000
0001F0000000
000000000000
000000000000
000000000000
000000000000
FF0000003F80
FF8000003F80
FF8000003F80
FFC000003F80
FFE000003F80
FFE000003F80
FFF000003F80
FFF000003F80
FFF800003F80
FFFC00003F80
FFFC00003F80
FEFE00003F80
FE7F00003F80
FE7F00003F80
FE3F80003F80
FE3F80003F80
FE1FC0003F80
FE0FE0003F80
FE0FE0003F80
FE07F0003F80
FE03F0003F80
FE03F8003F80
FE01FC003F80
FE01FC003F80
FE00FE003F80
FE007F003F80
FE007F003F80
FE003F803F80
FE003F803F80
FE001FC03F80
FE000FE03F80
FE000FE03F80
FE0007F03F80
FE0007F03F80
FE0003F83F80
FE0001FC3F80
FE0001FC3F80
FE0000FE3F80
FE00007F3F80
FE00007F3F80
FE00003FBF80
FE00003FBF80
FE00001FFF80
FE00000FFF80
FE00000FFF80
FE000007FF80
FE000007FF80
FE000003FF80
FE000001FF80
FE000001FF80
FE000000FF80
FE0000007F80
ENDCHAR
STARTCHAR 0144
ENCODING 324
SWIDTH 541 0
DWIDTH 39 0
BBX 30 53 4 0
BITMAP
00001FE0
00003FC0
00007F80
00007F00
0000FE00
0001FC00
0001F800
0003F000
0003E000
0007C000
000F8000
00000000
00000000
00000000
0003FC00
F81FFF80
F87FFFC0
F8FFFFE0
F9FFFFF0
FBFC0FF8
FFF007F8
FFE003FC
FFC001FC
FF8000FC
FF0000FC
FF0000FC
FF0000FC
FE0000FC
FE0000FC
FE0000FC
FE0000FC
FE0000FC
FE0000FC
FE0000FC
FE0000FC
FE0000FC
FE0000FC
FE0000FC
FE0000FC
FE0000FC
FE0000FC
FE0000FC
FE0000FC
FE0000FC
FE0000FC
FE0000FC
FE0000FC
FE0000FC
FE0000FC
FE0000FC
FE0000FC
FE0000FC
FE0000FC
ENDCHAR
STARTCHAR 0145
ENCODING 325
SWIDTH 736 0
DWIDTH 53 0
BBX 41 74 6 -22
BITMAP
FF0000003F80
FF8000003F80
FF8000003F80
FFC000003F80
FFE000003F80
FFE000003F80
FFF000003F80
FFF800003F80
FFF800003F80
FFFC00003F80
FFFC00003F80
FEFE00003F80
FE7F00003F80
FE7F00003F80
FE3F80003F80
FE3F80003F80
FE1FC0003F80
FE0FE0003F80
FE0FE0003F80
FE07F0003F80
FE03F0003F80
FE03F8003F80
FE01FC003F80
FE01FC003F80
FE00FE003F80
FE007F003F80
FE007F003F80
FE003F803F80
FE003F803F80
FE001FC03F80
FE000FE03F80
FE000FE03F80
FE0007F03F80
FE0003F03F80
FE0003F83F80
FE0001FC3F80
FE0001FC3F80
FE0000FE3F80
FE00007F3F80
FE00007F3F80
FE00003FBF80
FE00003FBF80
FE00001FFF80
FE00000FFF80
FE00000FFF80
FE000007FF80
FE000007FF80
FE000003FF80
FE000001FF80
FE000001FF80
FE000000FF80
FE0000007F80
000000000000
000000000000
000000000000
000000000000
000000000000
000000000000
0000FE000000
0000FE000000
0000FE000000
0000FE000000
0000FE000000
0000FE000000
0000FE000000
00000E000000
00000E000000
00000E000000
00000E000000
00001C000000
00003C000000
0000F8000000
0000F0000000
0000E0000000
ENDCHAR
STARTCHAR 0146
ENCODING 326
SWIDTH 541 0
DWIDTH 39 0
BBX 30 61 4 -22
BITMAP
0003FC00
F81FFF80
F87FFFC0
F8FFFFE0
F9FFFFF0
FBFC0FF8
FFF007F8
FFE003FC
FFC001FC
FF8000FC
FF0000FC
FF0000FC
FF0000FC
FE0000FC
FE0000FC
FE0000FC
FE0000FC
FE0000FC
FE0000FC
FE0000FC
FE0000FC
FE0000FC
FE0000FC
FE0000FC
FE0000FC
FE0000FC
FE0000FC
FE0000FC
FE0000FC
FE0000FC
FE0000FC
FE0000FC
FE0000FC
FE0000FC
FE0000FC
FE0000FC
FE0000FC
FE0000FC
FE0000FC
00000000
00000000
00000000
00000000
00000000
00000000
0007F000
0007F000
0007F000
0007F000
0007F000
0007F000
0007F000
00007000
00007000
00007000
00007000
0000E000
0001E000
0007C000
00078000
00070000
ENDCHAR
STARTCHAR 0147
ENCODING 327
SWIDTH 736 0
DWIDTH 53 0
BBX 41 65 6 0
BITMAP
001F003E0000
000F807C0000
0007E1F80000
0003F3F00000
0003FFF00000
0001FFE00000
0000FFC00000
00007F800000
00007F800000
000000000000
000000000000
000000000000
000000000000
FF0000003F80
FF8000003F80
FF8000003F80
FFC000003F80
FFE000003F80
FFE000003F80
FFF000003F80
FFF000003F80
FFF800003F80
FFFC00003F80
FFFC00003F80
FEFE00003F80
FE7F00003F80
FE7F00003F80
FE3F80003F80
FE3F80003F80
FE1FC0003F80
FE0FE0003F80
FE0FE0003F80
FE07F0003F80
FE03F0003F80
FE03F8003F80
FE01FC003F80
FE01FC003F80
FE00FE003F80
FE007F003F80
FE007F003F80
FE003F803F80
FE003F803F80
FE001FC03F80
FE000FE03F80
FE000FE03F80
FE0007F03F80
FE0007F03F80
FE0003F83F80
FE0001FC3F80
FE0001FC3F80
FE0000FE3F80
FE00007F3F80
FE00007F3F80
FE00003FBF80
FE00003FBF80
FE00001FFF80
FE00000FFF80
FE00000FFF80
FE000007FF80
FE000007FF80
FE000003FF80
FE000001FF80
FE000001FF80
FE000000FF80
FE0000007F80
ENDCHAR
STARTCHAR 0148
ENCODING 328
SWIDTH 541 0
DWIDTH 39 0
BBX 30 52 4 1
BITMAP
03C00F80
03E01F00
01F01F00
00F83E00
00FC7C00
007CFC00
007EF800
003FF800
001FF000
001FE000
000FE000
00000000
00000000
0003FC00
F81FFF80
F87FFFC0
F8FFFFE0
F9FFFFF0
FBFC0FF8
FFF007F8
FFE003FC
FFC001FC
FF8000FC
FF0000FC
FF0000FC
FF0000FC
FE0000FC
FE0000FC
FE0000FC
FE0000FC
FE0000FC
FE0000FC
FE0000FC
FE0000FC
FE0000FC
FE0000FC
FE0000FC
FE0000FC
FE0000FC
FE0000FC
FE0000FC
FE0000FC
FE0000FC
FE0000FC
FE0000FC
FE0000FC
FE0000FC
FE0000FC
FE0000FC
FE0000FC
FE0000FC
FE0000FC
ENDCHAR
STARTCHAR 0149
ENCODING 329
SWIDTH 652 0
DWIDTH 47 0
BBX 39 52 3 0
BITMAP
FE00000000
FE00000000
FE00000000
FE00000000
FE00000000
FE00000000
FE00000000
0E00000000
0E00000000
0E00000000
0E00000000
0E00000000
0E00000000
1C0001FE00
3C7C0FFFC0
F87C3FFFE0
F07C7FFFF0
E07CFFFFF8
007DFE07FC
007FF803FC
007FE001FE
007FE000FE
007FC000FE
007F80007E
007F80007E
007F80007E
007F00007E
007F00007E
007F00007E
007F00007E
007F00007E
007F00007E
007F00007E
007F00007E
007F00007E
007F00007E
007F00007E
007F00007E
007F00007E
007F00007E
007F00007E
007F00007E
007F00007E
007F00007E
007F00007E
007F00007E
007F00007E
007F00007E
007F00007E
007F00007E
007F00007E
007F00007E
ENDCHAR
STARTCHAR 014A
ENCODING 330
SWIDTH 680 0
DWIDTH 49 0
BBX 40 54 6 -1
BITMAP
0000FF8000
FE07FFF000
FE1FFFF800
FE7FFFFE00
FEFFFFFF00
FEFF03FFC0
FFFC007FE0
FFF0003FE0
FFE0001FF0
FFC0000FF8
FF800007F8
FF800003FC
FF000003FC
FF000001FE
FE000001FE
FE000000FE
FE000000FE
FE000000FF
FE000000FF
FE0000007F
FE0000007F
FE0000007F
FE0000007F
FE0000007F
FE0000007F
FE0000007F
FE0000007F
FE0000007F
FE0000007F
FE0000007F
FE0000007F
FE0000007E
FE000000FE
FE000000FE
FE000000FE
FE000000FE
FE000000FE
FE000001FC
FE000001FC
FE000001FC
FE000003F8
FE000003F8
FE000007F8
FE00000FF0
FE00000FF0
FE00001FE0
FE00003FC0
FE00007FC0
FE0381FF80
FE03FFFF00
FE03FFFE00
FE03FFF800
FE03FFF000
0000FF8000
ENDCHAR
STARTCHAR 014B
ENCODING 331
SWIDTH 541 0
DWIDTH 39 0
BBX 30 55 4 -16
BITMAP
0003FC00
F81FFF80
F87FFFC0
F8FFFFE0
F9FFFFF0
FBFC0FF8
FFF007F8
FFE003FC
FFC001FC
FF8000FC
FF0000FC
FF0000FC
FF0000FC
FE0000FC
FE0000FC
FE0000FC
FE0000FC
FE0000FC
FE0000FC
FE0000FC
FE0000FC
FE0000FC
FE0000FC
FE0000FC
FE0000FC
FE0000FC
FE0000FC
FE0000FC
FE0000FC
FE0000FC
FE0000FC
FE0000FC
FE0000FC
FE0000FC
FE0000FC
FE0000FC
FE0000FC
FE0000FC
FE0000FC
000000FC
000000FC
000000FC
000000FC
000000FC
000000FC
000000FC
000000FC
000000FC
000001FC
000003FC
00003FF8
00003FF8
00003FF0
00003FE0
00003F00
ENDCHAR
STARTCHAR 014C
ENCODING 332
SWIDTH 777 0
DWIDTH 56 0
BBX 51 64 3 -1
BITMAP
0001FFFFC00000
0001FFFFC00000
0001FFFFC00000
0001FFFFC00000
0001FFFFC00000
00000000000000
00000000000000
00000000000000
00000000000000
00000FFE000000
0000FFFFE00000
0003FFFFF80000
000FFFFFFE0000
001FFFFFFF0000
007FFFFFFFC000
00FFF803FFE000
01FFC0007FF000
03FF00001FF800
07FE00000FFC00
07F8000007FC00
0FF0000003FE00
1FF0000001FE00
1FE0000000FF00
3FC00000007F00
3FC00000007F80
3F800000003F80
7F800000003FC0
7F000000001FC0
7F000000001FC0
7F000000001FC0
FF000000001FC0
FE000000000FE0
FE000000000FE0
FE000000000FE0
FE000000000FE0
FE000000000FE0
FE000000000FE0
FE000000000FE0
FE000000000FE0
FE000000000FE0
FE000000000FE0
FE000000000FE0
FF000000001FE0
7F000000001FC0
7F000000001FC0
7F000000001FC0
7F800000003FC0
3F800000003F80
3FC00000007F80
3FC00000007F00
1FE0000000FF00
1FF0000001FE00
0FF0000001FE00
07F8000003FC00
07FE00000FFC00
03FF00001FF800
01FFC0007FF000
00FFF803FFE000
007FFFFFFFC000
003FFFFFFF8000
000FFFFFFE0000
0003FFFFF80000
0000FFFFE00000
00000FFE000000
ENDCHAR
STARTCHAR 014D
ENCODING 333
SWIDTH 527 0
DWIDTH 38 0
BBX 35 51 2 -2
BITMAP
00FFFFE000
00FFFFE000
00FFFFE000
00FFFFE000
00FFFFE000
0000000000
0000000000
0000000000
0000000000
0000000000
0007FC0000
003FFF8000
00FFFFE000
01FFFFF000
03FFFFF800
07FFFFFC00
0FFC07FE00
1FF001FF00
1FE000FF00
3FC0007F80
3F80003F80
7F80003FC0
7F00001FC0
7F00001FC0
7F00001FC0
FE00001FE0
FE00000FE0
FE00000FE0
FE00000FE0
FE00000FE0
FE00000FE0
FE00000FE0
FE00000FE0
FE00000FE0
FE00000FE0
FE00000FE0
7F00001FC0
7F00001FC0
7F00001FC0
7F80003FC0
3F80003F80
3FC0007F80
1FE000FF00
1FF001FF00
0FFC07FE00
07FFFFFC00
03FFFFF800
01FFFFF000
00FFFFE000
003FFF8000
0007FC0000
ENDCHAR
STARTCHAR 014E
ENCODING 334
SWIDTH 777 0
DWIDTH 56 0
BBX 51 66 3 -1
BITMAP
0003C000F00000
0003E000F00000
0003F001F00000
0001FC0FE00000
0001FFFFE00000
0000FFFFC00000
00007FFF800000
00003FFF000000
000007F8000000
00000000000000
00000000000000
00000FFE000000
0000FFFFE00000
0003FFFFF80000
000FFFFFFE0000
001FFFFFFF0000
007FFFFFFFC000
00FFF803FFE000
01FFC0007FF000
03FF00001FF800
07FE00000FFC00
07F8000007FC00
0FF0000003FE00
1FF0000001FE00
1FE0000000FF00
3FC00000007F00
3FC00000007F80
3F800000003F80
7F800000003FC0
7F000000001FC0
7F000000001FC0
7F000000001FC0
FF000000001FC0
FE000000000FE0
FE000000000FE0
FE000000000FE0
FE000000000FE0
FE000000000FE0
FE000000000FE0
FE000000000FE0
FE000000000FE0
FE000000000FE0
FE000000000FE0
FE000000000FE0
FF000000001FE0
7F000000001FC0
7F000000001FC0
7F000000001FC0
7F800000003FC0
3F800000003F80
3FC00000007F80
3FC00000007F00
1FE0000000FF00
1FF0000001FE00
0FF0000001FE00
07F8000003FC00
07FE00000FFC00
03FF00001FF800
01FFC0007FF000
00FFF803FFE000
007FFFFFFFC000
003FFFFFFF8000
000FFFFFFE0000
0003FFFFF80000
0000FFFFE00000
00000FFE000000
ENDCHAR
STARTCHAR 014F
ENCODING 335
SWIDTH 527 0
DWIDTH 38 0
BBX 35 54 2 -2
BITMAP
01E0007800
01E000F800
01F000F000
01F803F000
00FFFFF000
00FFFFE000
007FFFC000
001FFF8000
0007FE0000
0000000000
0000000000
0000000000
0000000000
0007FC0000
003FFF8000
00FFFFE000
01FFFFF000
03FFFFF800
07FFFFFC00
0FFC07FE00
1FF001FF00
1FE000FF00
3FC0007F80
3F80003F80
7F80003FC0
7F00001FC0
7F00001FC0
7F00001FC0
FE00001FE0
FE00000FE0
FE00000FE0
FE00000FE0
FE00000FE0
FE00000FE0
FE00000FE0
FE00000FE0
FE00000FE0
FE00000FE0
FE00000FE0
7F00001FC0
7F00001FC0
7F00001FC0
7F80003FC0
3F80003F80
3FC0007F80
1FE000FF00
1FF001FF00
0FFC07FE00
07FFFFFC00
03FFFFF800
01FFFFF000
00FFFFE000
003FFF8000
0007FC0000
ENDCHAR
STARTCHAR 0150
ENCODING 336
SWIDTH 777 0
DWIDTH 56 0
BBX 51 67 3 -2
BITMAP
00001FF1FE0000
00001FE3FC0000
00003FC3F80000
00003F87F00000
00003F07E00000
00007F0FC00000
00007E0F800000
00007C1F000000
0000F83E000000
00000000000000
00000000000000
00000000000000
00000FFE000000
0000FFFFE00000
0003FFFFF80000
000FFFFFFE0000
001FFFFFFF0000
007FFFFFFFC000
00FFF803FFE000
01FFC0007FF000
03FF00001FF800
07FE00000FFC00
07F8000007FC00
0FF0000003FE00
1FF0000001FE00
1FE0000000FF00
3FC00000007F00
3FC00000007F80
3F800000003F80
7F800000003FC0
7F000000001FC0
7F000000001FC0
7F000000001FC0
FF000000001FC0
FE000000000FE0
FE000000000FE0
FE000000000FE0
FE000000000FE0
FE000000000FE0
FE000000000FE0
FE000000000FE0
FE000000000FE0
FE000000000FE0
FE000000000FE0
FE000000000FE0
FF000000001FE0
7F000000001FC0
7F000000001FC0
7F000000001FC0
7F800000003FC0
3F800000003F80
3FC00000007F80
3FC00000007F00
1FE0000000FF00
1FF0000001FE00
0FF0000001FE00
07F8000003FC00
07FE00000FFC00
03FF00001FF800
01FFC0007FF000
00FFF803FFE000
007FFFFFFFC000
003FFFFFFF8000
000FFFFFFE0000
0003FFFFF80000
0000FFFFE00000
00000FFE000000
ENDCHAR
STARTCHAR 0151
ENCODING 337
SWIDTH 527 0
DWIDTH 38 0
BBX 35 55 2 -2
BITMAP
0007F87F80
000FF0FF00
000FE0FE00
000FE1FC00
001FC1F800
001F83F800
001F83F000
003F07E000
003E07C000
003E0F8000
007C0F0000
0000000000
0000000000
0000000000
0007FC0000
003FFF8000
00FFFFE000
01FFFFF000
03FFFFF800
07FFFFFC00
0FFC07FE00
1FF001FF00
1FE000FF00
3FC0007F80
3F80003F80
7F80003FC0
7F00001FC0
7F00001FC0
7F00001FC0
FE00001FE0
FE00000FE0
FE00000FE0
FE00000FE0
FE00000FE0
FE00000FE0
FE00000FE0
FE00000FE0
FE00000FE0
FE00000FE0
FE00000FE0
7F00001FC0
7F00001FC0
7F00001FC0
7F80003FC0
3F80003F80
3FC0007F80
1FE000FF00
1FF001FF00
0FFC07FE00
07FFFFFC00
03FFFFF800
01FFFFF000
00FFFFE000
003FFF8000
0007FC0000
ENDCHAR
STARTCHAR 0152
ENCODING 338
SWIDTH 986 0
DWIDTH 71 0
BBX 66 54 3 -1
BITMAP
00007FC00000000000
0003FFF81FFFFFFFC0
000FFFFE1FFFFFFFC0
003FFFFF1FFFFFFFC0
007FFFFF9FFFFFFFC0
01FFFFFFDFFFFFFFC0
03FFC03FFFFFFFFFC0
03FE0007FFC0000000
07FC0003FFC0000000
0FF00001FFC0000000
0FE00000FFC0000000
1FE000007FC0000000
1FC000003FC0000000
3F8000001FC0000000
3F8000001FC0000000
3F8000001FC0000000
7F0000001FC0000000
7F0000001FC0000000
7F0000001FC0000000
7F0000001FC0000000
FE0000001FC0000000
FE0000001FC0000000
FE0000001FC0000000
FE0000001FFFFFFF80
FE0000001FFFFFFF80
FE0000001FFFFFFF80
FE0000001FFFFFFF80
FE0000001FFFFFFF80
FE0000001FFFFFFF80
FE0000001FC0000000
FE0000001FC0000000
FE0000001FC0000000
FE0000001FC0000000
FE0000001FC0000000
7F0000001FC0000000
7F0000001FC0000000
7F0000001FC0000000
7F0000001FC0000000
3F8000001FC0000000
3F8000001FC0000000
3F8000001FC0000000
1FC000003FC0000000
1FE000007FC0000000
0FE00000FFC0000000
0FF00001FFC0000000
07FC0003FFC0000000
03FE0007FFC0000000
03FFC03FFFFFFFFFC0
01FFFFFFDFFFFFFFC0
007FFFFF9FFFFFFFC0
003FFFFF1FFFFFFFC0
000FFFFE1FFFFFFFC0
0003FFF81FFFFFFFC0
00007FC00000000000
ENDCHAR
STARTCHAR 0153
ENCODING 339
SWIDTH 916 0
DWIDTH 66 0
BBX 63 41 2 -2
BITMAP
0007FC00003FC000
003FFF8001FFF800
00FFFFE007FFFE00
03FFFFF00FFFFF80
07FFFFF83FFFFFC0
0FFFFFFC3FFFFFE0
0FFC07FE7FC07FF0
1FF001FEFF001FF0
3FE000FFFE0007F8
3FC0007FFC0003F8
3F80003FF80003FC
7F80003FF80001FC
7F00001FF00001FC
7F00001FF00000FC
FF00001FF00000FE
FE00000FE00000FE
FE00000FE00000FE
FE00000FFFFFFFFE
FE00000FFFFFFFFE
FE00000FFFFFFFFE
FE00000FFFFFFFFE
FE00000FFFFFFFFE
FE00000FE0000000
FE00000FE0000000
FE00000FE0000000
FE00001FE0000000
7F00001FF0000000
7F00001FF0000000
7F00001FF00001FC
7F80003FF80001FC
3F80003FF80003F8
3FC0007FFC0003F8
1FE000FFFE0007F8
1FF001FEFF000FF0
0FFC07FEFFE07FF0
07FFFFFC7FFFFFE0
07FFFFF83FFFFFC0
03FFFFF01FFFFF80
00FFFFE00FFFFE00
003FFF8003FFFC00
0007FC00007FC000
ENDCHAR
STARTCHAR 0154
ENCODING 340
SWIDTH 708 0
DWIDTH 51 0
BBX 42 65 6 0
BITMAP
000007F80000
00000FF00000
00001FE00000
00001FC00000
00003F000000
00007E000000
0000FC000000
0001F0000000
0003E0000000
000000000000
000000000000
000000000000
000000000000
FFFFFFF80000
FFFFFFFF0000
FFFFFFFFC000
FFFFFFFFF000
FFFFFFFFF800
FFFFFFFFFC00
FE00001FFC00
FE000003FE00
FE000001FE00
FE000000FE00
FE000000FF00
FE0000007F00
FE0000007F00
FE0000007F00
FE0000007F00
FE0000007F00
FE0000007F00
FE0000007F00
FE0000007E00
FE000000FE00
FE000000FE00
FE000001FC00
FE000003F800
FE00001FF000
FFFFFFFFE000
FFFFFFFFC000
FFFFFFFF0000
FFFFFFFF8000
FFFFFFFFE000
FFFFFFFFF000
FE00001FF800
FE000007FC00
FE000003FC00
FE000001FC00
FE000001FE00
FE000000FE00
FE000000FE00
FE000000FE00
FE000000FE00
FE000000FE00
FE000000FE00
FE000000FE00
FE000000FE00
FE000000FE00
FE000000FE00
FE000000FE00
FE000000FE00
FE000000FF00
FE000000FF00
FE0000007F80
FE0000007FC0
FE0000003FC0
ENDCHAR
STARTCHAR 0155
ENCODING 341
SWIDTH 333 0
DWIDTH 24 0
BBX 20 53 4 0
BITMAP
000FF0
001FE0
003FC0
003F80
007F00
007E00
00FC00
01F800
01F000
03E000
07C000
000000
000000
000000
0003E0
F80FE0
F81FE0
F87FE0
F8FFE0
F9FFE0
FBFE00
FFF000
FFC000
FF8000
FF8000
FF0000
FF0000
FF0000
FE0000
FE0000
FE0000
FE0000
FE0000
FE0000
FE0000
FE0000
FE0000
FE0000
FE0000
FE0000
FE0000
FE0000
FE0000
FE0000
FE0000
FE0000
FE0000
FE0000
FE0000
FE0000
FE0000
FE0000
FE0000
ENDCHAR
STARTCHAR 0156
ENCODING 342
SWIDTH 708 0
DWIDTH 51 0
BBX 42 74 6 -22
BITMAP
FFFFFFF80000
FFFFFFFF0000
FFFFFFFFC000
FFFFFFFFF000
FFFFFFFFF800
FFFFFFFFFC00
FE00001FFC00
FE000003FE00
FE000001FE00
FE000000FE00
FE000000FF00
FE0000007F00
FE0000007F00
FE0000007F00
FE0000007F00
FE0000007F00
FE0000007F00
FE0000007F00
FE0000007E00
FE000000FE00
FE000000FE00
FE000001FC00
FE000003F800
FE00001FF000
FFFFFFFFE000
FFFFFFFFC000
FFFFFFFF0000
FFFFFFFF8000
FFFFFFFFE000
FFFFFFFFF000
FE00001FF800
FE000007FC00
FE000003FC00
FE000001FC00
FE000001FE00
FE000000FE00
FE000000FE00
FE000000FE00
FE000000FE00
FE000000FE00
FE000000FE00
FE000000FE00
FE000000FE00
FE000000FE00
FE000000FE00
FE000000FE00
FE000000FE00
FE000000FF00
FE000000FF00
FE0000007F80
FE0000007FC0
FE0000003FC0
000000000000
000000000000
000000000000
000000000000
000000000000
000000000000
00007F000000
00007F000000
00007F000000
00007F000000
00007F000000
00007F000000
00007F000000
000007000000
000007000000
000007000000
000007000000
00000E000000
00001E000000
00007C000000
000078000000
000070000000
ENDCHAR
STARTCHAR 0157
ENCODING 343
SWIDTH 333 0
DWIDTH 24 0
BBX 19 61 4 -22
BITMAP
0003E0
F80FE0
F81FE0
F87FE0
F8FFE0
F9FFE0
FBFE00
FFF000
FFC000
FF8000
FF8000
FF0000
FF0000
FF0000
FE0000
FE0000
FE0000
FE0000
FE0000
FE0000
FE0000
FE0000
FE0000
FE0000
FE0000
FE0000
FE0000
FE0000
FE0000
FE0000
FE0000
FE0000
FE0000
FE0000
FE0000
FE0000
FE0000
FE0000
FE0000
000000
000000
000000
000000
000000
000000
7F0000
7F0000
7F0000
7F0000
7F0000
7F0000
7F0000
070000
070000
070000
070000
0E0000
1E0000
7C0000
780000
700000
ENDCHAR
STARTCHAR 0158
ENCODING 344
SWIDTH 708 0
DWIDTH 51 0
BBX 42 65 6 0
BITMAP
001F003E0000
000F807C0000
0007E1F80000
0003F3F00000
0003FFF00000
0001FFE00000
0000FFC00000
00007F800000
00007F800000
000000000000
000000000000
000000000000
000000000000
FFFFFFF80000
FFFFFFFF0000
FFFFFFFFC000
FFFFFFFFF000
FFFFFFFFF800
FFFFFFFFFC00
FE00001FFC00
FE000003FE00
FE000001FE00
FE000000FE00
FE000000FF00
FE0000007F00
FE0000007F00
FE0000007F00
FE0000007F00
FE0000007F00
FE0000007F00
FE0000007F00
FE0000007E00
FE000000FE00
FE000000FE00
FE000001FC00
FE000003F800
FE00001FF000
FFFFFFFFE000
FFFFFFFFC000
FFFFFFFF0000
FFFFFFFF8000
FFFFFFFFE000
FFFFFFFFF000
FE00001FF800
FE000007FC00
FE000003FC00
FE000001FC00
FE000001FE00
FE000000FE00
FE000000FE00
FE000000FE00
FE000000FE00
FE000000FE00
FE000000FE00
FE000000FE00
FE000000FE00
FE000000FE00
FE000000FE00
FE000000FE00
FE000000FE00
FE000000FF00
FE000000FF00
FE0000007F80
FE0000007FC0
FE0000003FC0
ENDCHAR
STARTCHAR 0159
ENCODING 345
SWIDTH 333 0
DWIDTH 24 0
BBX 20 53 3 0
BITMAP
F801F0
7803E0
7C07C0
3E07C0
1F0F80
1F9F80
0FBF00
0FFE00
07FE00
03FC00
03FC00
000000
000000
000000
0001F0
7C07F0
7C0FF0
7C3FF0
7C7FF0
7CFFF0
7DFF00
7FF800
7FE000
7FC000
7FC000
7F8000
7F8000
7F8000
7F0000
7F0000
7F0000
7F0000
7F0000
7F0000
7F0000
7F0000
7F0000
7F0000
7F0000
7F0000
7F0000
7F0000
7F0000
7F0000
7F0000
7F0000
7F0000
7F0000
7F0000
7F0000
7F0000
7F0000
7F0000
ENDCHAR
STARTCHAR 015A
ENCODING 346
SWIDTH 666 0
DWIDTH 48 0
BBX 42 67 3 -2
BITMAP
000001FE0000
000003FC0000
000007F80000
000007F00000
00000FC00000
00001F800000
00003F000000
00007C000000
0000F8000000
000000000000
000000000000
000000000000
0000FFE00000
000FFFFE0000
003FFFFF8000
00FFFFFFE000
01FFFFFFF000
03FFFFFFF800
07FF003FFC00
0FFC0007FE00
0FF00003FE00
1FE00001FF00
1FC00000FF00
3FC000007F00
3F8000007F80
3F8000003F80
3F8000003F80
3F8000003F80
3F8000000000
3FC000000000
3FC000000000
1FE000000000
1FF800000000
1FFF00000000
0FFFE0000000
07FFFE000000
03FFFFE00000
00FFFFFC0000
003FFFFF8000
0007FFFFE000
00007FFFF800
000007FFFC00
000000FFFE00
0000000FFF00
00000003FF00
00000000FF80
000000007F80
000000003FC0
000000003FC0
FE0000001FC0
FE0000001FC0
FE0000001FC0
FE0000001FC0
7F0000001FC0
7F0000003FC0
7F8000003F80
7F8000007F80
3FC000007F80
3FF00000FF00
1FF80003FE00
0FFF801FFE00
07FFFFFFFC00
03FFFFFFF800
01FFFFFFE000
007FFFFFC000
000FFFFE0000
0001FFE00000
ENDCHAR
STARTCHAR 015B
ENCODING 347
SWIDTH 500 0
DWIDTH 36 0
BBX 32 55 2 -2
BITMAP
00003FC0
00007F80
0000FF00
0000FE00
0001FC00
0001F800
0003F000
0007E000
0007C000
000F8000
001F0000
00000000
00000000
00000000
001FF800
00FFFF00
03FFFFC0
07FFFFE0
0FFFFFF0
1FFFFFF0
3FF01FF8
3FC007F8
7F8003FC
7F0001FC
7F0001FC
7F000000
7F000000
7F800000
7F800000
3FE00000
3FFC0000
1FFFC000
0FFFFC00
07FFFF80
01FFFFE0
007FFFF8
0007FFFC
00007FFE
000007FE
000001FF
000000FF
0000007F
0000007F
FE00007F
FE00007F
FF0000FF
7F0000FE
7F8003FE
7FF00FFC
3FFFFFFC
1FFFFFF8
1FFFFFF0
07FFFFC0
01FFFF00
003FF800
ENDCHAR
STARTCHAR 015C
ENCODING 348
SWIDTH 666 0
DWIDTH 48 0
BBX 42 67 3 -2
BITMAP
0000FF000000
0000FF000000
0001FF800000
0003FFC00000
0007FFE00000
0007E7E00000
000FC3F00000
001F00F80000
003E007C0000
000000000000
000000000000
000000000000
0000FFE00000
000FFFFE0000
003FFFFF8000
00FFFFFFE000
01FFFFFFF000
03FFFFFFF800
07FF003FFC00
0FFC0007FE00
0FF00003FE00
1FE00001FF00
1FC00000FF00
3FC000007F00
3F8000007F80
3F8000003F80
3F8000003F80
3F8000003F80
3F8000000000
3FC000000000
3FC000000000
1FE000000000
1FF800000000
1FFF00000000
0FFFE0000000
07FFFE000000
03FFFFE00000
00FFFFFC0000
003FFFFF8000
0007FFFFE000
00007FFFF800
000007FFFC00
000000FFFE00
0000000FFF00
00000003FF00
00000000FF80
000000007F80
000000003FC0
000000003FC0
FE0000001FC0
FE0000001FC0
FE0000001FC0
FE0000001FC0
7F0000001FC0
7F0000003FC0
7F8000003F80
7F8000007F80
3FC000007F80
3FF00000FF00
1FF80003FE00
0FFF801FFE00
07FFFFFFFC00
03FFFFFFF800
01FFFFFFE000
007FFFFFC000
000FFFFE0000
0001FFE00000
ENDCHAR
STARTCHAR 015D
ENCODING 349
SWIDTH 500 0
DWIDTH 36 0
BBX 32 53 2 -1
BITMAP
001FE000
001FF000
003FF000
007FF800
007CFC00
00FC7C00
00F83E00
01F03E00
03E01F00
03C00F80
07C00780
00000000
001FF800
00FFFF00
03FFFFC0
07FFFFE0
0FFFFFF0
1FFFFFF0
3FF01FF8
3FC007F8
7F8003FC
7F0001FC
7F0001FC
7F000000
7F000000
7F800000
7F800000
3FE00000
3FFC0000
1FFFC000
0FFFFC00
07FFFF80
01FFFFE0
007FFFF8
0007FFFC
00007FFE
000007FE
000001FF
000000FF
0000007F
0000007F
FE00007F
FE00007F
FF0000FF
7F0000FE
7F8003FE
7FF00FFC
3FFFFFFC
1FFFFFF8
1FFFFFF0
07FFFFC0
01FFFF00
003FF800
ENDCHAR
STARTCHAR 015E
ENCODING 350
SWIDTH 666 0
DWIDTH 48 0
BBX 42 68 3 -15
BITMAP
0001FFC00000
001FFFFC0000
007FFFFF8000
00FFFFFFC000
01FFFFFFF000
03FFFFFFF800
07FF007FFC00
0FF8000FFE00
1FF00003FE00
1FE00001FF00
1FC00000FF00
3FC000007F00
3F8000007F80
3F8000003F80
3F8000003F80
3F8000003F80
3F8000000000
3FC000000000
3FC000000000
1FE000000000
1FF800000000
1FFF00000000
0FFFE0000000
07FFFE000000
03FFFFE00000
00FFFFFC0000
003FFFFF8000
0007FFFFF000
00007FFFF800
000007FFFC00
000000FFFE00
0000000FFF00
00000003FF80
00000000FF80
000000007F80
000000003FC0
FE0000003FC0
FE0000001FC0
FE0000001FC0
FE0000001FC0
FF0000001FC0
7F0000001FC0
7F8000003F80
7F8000003F80
3FC000007F80
1FE00000FF00
1FF80003FF00
0FFF001FFE00
07FFFFFFFC00
03FFFFFFF800
01FFFFFFF000
007FFFFFC000
001FFFFE0000
0003FFF00000
000038000000
000030000000
000070000000
00007F000000
00007FC00000
0000FFE00000
000007E00000
000003E00000
000003E00000
001803E00000
001E0FC00000
003FFFC00000
000FFF800000
0001FC000000
ENDCHAR
STARTCHAR 015F
ENCODING 351
SWIDTH 500 0
DWIDTH 36 0
BBX 32 54 2 -15
BITMAP
001FF800
00FFFF00
03FFFF80
07FFFFE0
0FFFFFF0
1FFFFFF0
3FF01FF8
3FC007F8
7F8003FC
7F0001FC
7F0001FC
7F000000
7F000000
7F800000
7F800000
3FE00000
3FFC0000
1FFFC000
1FFFFC00
07FFFF80
01FFFFE0
007FFFF8
0007FFFC
00007FFE
000007FE
000001FF
000000FF
0000007F
FE00007F
FE00007F
FF00007F
FF0000FF
7F8000FE
7FC001FE
3FE007FC
3FFFFFFC
1FFFFFF8
0FFFFFF0
03FFFFC0
00FFFF00
000FE000
00060000
000E0000
000FE000
001FF800
001FFC00
0000FC00
00007C00
00007C00
02007C00
07C1F800
0FFFF800
01FFF000
003F8000
ENDCHAR
STARTCHAR 0160
ENCODING 352
SWIDTH 666 0
DWIDTH 48 0
BBX 42 67 3 -2
BITMAP
000F801F0000
0007C03E0000
0003F0FC0000
0001F9F80000
0001FFF80000
0000FFF00000
00007FE00000
00003FC00000
00003FC00000
000000000000
000000000000
000000000000
0000FFE00000
000FFFFE0000
003FFFFF8000
00FFFFFFE000
01FFFFFFF000
03FFFFFFF800
07FF003FFC00
0FFC0007FE00
0FF00003FE00
1FE00001FF00
1FC00000FF00
3FC000007F00
3F8000007F80
3F8000003F80
3F8000003F80
3F8000003F80
3F8000000000
3FC000000000
3FC000000000
1FE000000000
1FF800000000
1FFF00000000
0FFFE0000000
07FFFE000000
03FFFFE00000
00FFFFFC0000
003FFFFF8000
0007FFFFE000
00007FFFF800
000007FFFC00
000000FFFE00
0000000FFF00
00000003FF00
00000000FF80
000000007F80
000000003FC0
000000003FC0
FE0000001FC0
FE0000001FC0
FE0000001FC0
FE0000001FC0
7F0000001FC0
7F0000003FC0
7F8000003F80
7F8000007F80
3FC000007F80
3FF00000FF00
1FF80003FE00
0FFF801FFE00
07FFFFFFFC00
03FFFFFFF800
01FFFFFFE000
007FFFFFC000
000FFFFE0000
0001FFE00000
ENDCHAR
STARTCHAR 0161
ENCODING 353
SWIDTH 500 0
DWIDTH 36 0
BBX 32 54 2 -1
BITMAP
03C00F80
03E01F00
01F03E00
01F87E00
00F87C00
007CF800
007FF800
003FF000
003FF000
001FE000
000FC000
00000000
00000000
001FF800
00FFFF00
03FFFFC0
07FFFFE0
0FFFFFF0
1FFFFFF0
3FF01FF8
3FC007F8
7F8003FC
7F0001FC
7F0001FC
7F000000
7F000000
7F800000
7F800000
3FE00000
3FFC0000
1FFFC000
0FFFFC00
07FFFF80
01FFFFE0
007FFFF8
0007FFFC
00007FFE
000007FE
000001FF
000000FF
0000007F
0000007F
FE00007F
FE00007F
FF0000FF
7F0000FE
7F8003FE
7FF00FFC
3FFFFFFC
1FFFFFF8
1FFFFFF0
07FFFFC0
01FFFF00
003FF800
ENDCHAR
STARTCHAR 0162
ENCODING 354
SWIDTH 638 0
DWIDTH 46 0
BBX 39 67 3 -15
BITMAP
FFFFFFFFFE
FFFFFFFFFE
FFFFFFFFFE
FFFFFFFFFE
FFFFFFFFFE
FFFFFFFFFE
0000FE0000
0000FE0000
0000FE0000
0000FE0000
0000FE0000
0000FE0000
0000FE0000
0000FE0000
0000FE0000
0000FE0000
0000FE0000
0000FE0000
0000FE0000
0000FE0000
0000FE0000
0000FE0000
0000FE0000
0000FE0000
0000FE0000
0000FE0000
0000FE0000
0000FE0000
0000FE0000
0000FE0000
0000FE0000
0000FE0000
0000FE0000
0000FE0000
0000FE0000
0000FE0000
0000FE0000
0000FE0000
0000FE0000
0000FE0000
0000FE0000
0000FE0000
0000FE0000
0000FE0000
0000FE0000
0000FE0000
0000FE0000
0000FE0000
0000FE0000
0000FE0000
0000FE0000
0000380000
0000380000
0000700000
0000700000
0000FF0000
0000FFC000
0000FFC000
000007E000
000003E000
000003E000
000003E000
003807E000
003E0FC000
007FFF8000
000FFF0000
0001FC0000
ENDCHAR
STARTCHAR 0163
ENCODING 355
SWIDTH 277 0
DWIDTH 20 0
BBX 19 64 2 -16
BITMAP
07E000
07E000
07E000
07E000
07E000
07E000
07E000
07E000
07E000
07E000
FFFF80
FFFF80
FFFF80
FFFF80
FFFF80
07E000
07E000
07E000
07E000
07E000
07E000
07E000
07E000
07E000
07E000
07E000
07E000
07E000
07E000
07E000
07E000
07E000
07E000
07E000
07E000
07E000
07E000
07E000
07E000
07E000
07E000
07E000
07E000
07E000
07FF80
07FF80
07FF80
03FF80
01FF80
007800
001800
003000
003F00
007FC0
00FFC0
0007E0
0003E0
0003E0
0003E0
1C07E0
1F07C0
3FFFC0
0FFF00
00FE00
ENDCHAR
STARTCHAR 0164
ENCODING 356
SWIDTH 638 0
DWIDTH 46 0
BBX 39 65 3 0
BITMAP
003E007C00
001F00F800
000FC3F000
0007E7E000
0007FFE000
0003FFC000
0001FF8000
0000FF0000
0000FF0000
0000000000
0000000000
0000000000
0000000000
FFFFFFFFFE
FFFFFFFFFE
FFFFFFFFFE
FFFFFFFFFE
FFFFFFFFFE
FFFFFFFFFE
0000FE0000
0000FE0000
0000FE0000
0000FE0000
0000FE0000
0000FE0000
0000FE0000
0000FE0000
0000FE0000
0000FE0000
0000FE0000
0000FE0000
0000FE0000
0000FE0000
0000FE0000
0000FE0000
0000FE0000
0000FE0000
0000FE0000
0000FE0000
0000FE0000
0000FE0000
0000FE0000
0000FE0000
0000FE0000
0000FE0000
0000FE0000
0000FE0000
0000FE0000
0000FE0000
0000FE0000
0000FE0000
0000FE0000
0000FE0000
0000FE0000
0000FE0000
0000FE0000
0000FE0000
0000FE0000
0000FE0000
0000FE0000
0000FE0000
0000FE0000
0000FE0000
0000FE0000
0000FE0000
ENDCHAR
STARTCHAR 0165
ENCODING 357
SWIDTH 444 0
DWIDTH 32 0
BBX 28 55 2 -2
BITMAP
00000FF0
00000FE0
00000FC0
00001F80
00001F80
07E03F00
07E03E00
07E07C00
07E07800
07E07800
07E0F000
07E00000
07E00000
07E00000
07E00000
FFFF8000
FFFF8000
FFFF8000
FFFF8000
FFFF8000
07E00000
07E00000
07E00000
07E00000
07E00000
07E00000
07E00000
07E00000
07E00000
07E00000
07E00000
07E00000
07E00000
07E00000
07E00000
07E00000
07E00000
07E00000
07E00000
07E00000
07E00000
07E00000
07E00000
07E00000
07E00000
07E00000
07E00000
07E00000
07E00000
07F00000
07FF8000
07FF8000
03FF8000
01FF8000
007F8000
ENDCHAR
STARTCHAR 0166
ENCODING 358
SWIDTH 638 0
DWIDTH 46 0
BBX 39 52 3 0
BITMAP
FFFFFFFFFE
FFFFFFFFFE
FFFFFFFFFE
FFFFFFFFFE
FFFFFFFFFE
FFFFFFFFFE
0000FE0000
0000FE0000
0000FE0000
0000FE0000
0000FE0000
0000FE0000
0000FE0000
0000FE0000
0000FE0000
0000FE0000
0000FE0000
0000FE0000
0000FE0000
0000FE0000
0000FE0000
0000FE0000
01FFFFFF00
01FFFFFF00
01FFFFFF00
01FFFFFF00
01FFFFFF00
0000FE0000
0000FE0000
0000FE0000
0000FE0000
0000FE0000
0000FE0000
0000FE0000
0000FE0000
0000FE0000
0000FE0000
0000FE0000
0000FE0000
0000FE0000
0000FE0000
0000FE0000
0000FE0000
0000FE0000
0000FE0000
0000FE0000
0000FE0000
0000FE0000
0000FE0000
0000FE0000
0000FE0000
0000FE0000
ENDCHAR
STARTCHAR 0167
ENCODING 359
SWIDTH 291 0
DWIDTH 21 0
BBX 17 50 2 -2
BITMAP
07E000
07E000
07E000
07E000
07E000
07E000
07E000
07E000
07E000
07E000
FFFF80
FFFF80
FFFF80
FFFF80
FFFF80
07E000
07E000
07E000
07E000
07E000
07E000
07E000
07E000
07E000
07E000
07E000
FFFF00
FFFF00
FFFF00
FFFF00
FFFF00
07E000
07E000
07E000
07E000
07E000
07E000
07E000
07E000
07E000
07E000
07E000
07E000
07E000
07F000
07FF80
07FF80
03FF80
01FF80
007F80
ENDCHAR
STARTCHAR 0168
ENCODING 360
SWIDTH 722 0
DWIDTH 52 0
BBX 40 65 6 -1
BITMAP
000FC03C00
001FF03C00
003FFE7C00
003FFFFC00
007FFFF800
007C3FF800
00780FF000
007801C000
0000000000
0000000000
0000000000
FE0000007F
FE0000007F
FE0000007F
FE0000007F
FE0000007F
FE0000007F
FE0000007F
FE0000007F
FE0000007F
FE0000007F
FE0000007F
FE0000007F
FE0000007F
FE0000007F
FE0000007F
FE0000007F
FE0000007F
FE0000007F
FE0000007F
FE0000007F
FE0000007F
FE0000007F
FE0000007F
FE0000007F
FE0000007F
FE0000007F
FE0000007F
FE0000007F
FE0000007F
FE0000007F
FE0000007F
FE0000007F
FE0000007F
FE0000007F
FE0000007F
FE0000007F
FE0000007F
FE0000007F
FE0000007F
FE0000007F
FE000000FF
7F000000FE
7F000000FE
7F800001FE
3FC00003FC
3FE00007FC
1FF8001FF8
1FFE00FFF0
0FFFFFFFE0
07FFFFFFC0
01FFFFFF80
00FFFFFE00
001FFFF800
0003FF8000
ENDCHAR
STARTCHAR 0169
ENCODING 361
SWIDTH 541 0
DWIDTH 39 0
BBX 30 53 4 -2
BITMAP
00F003C0
01FE07C0
03FF87C0
07FFFF80
07FFFF80
078FFF00
0F81FF00
0F007C00
00000000
00000000
00000000
00000000
00000000
FC0000FC
FC0000FC
FC0000FC
FC0000FC
FC0000FC
FC0000FC
FC0000FC
FC0000FC
FC0000FC
FC0000FC
FC0000FC
FC0000FC
FC0000FC
FC0000FC
FC0000FC
FC0000FC
FC0000FC
FC0000FC
FC0000FC
FC0000FC
FC0000FC
FC0000FC
FC0000FC
FC0000FC
FC0000FC
FC0000FC
FC0001FC
FC0001FC
FC0001FC
FC0003FC
FE0003FC
FE0007FC
FF000FFC
7F801FFC
7FE07F7C
3FFFFE7C
1FFFFC7C
0FFFF87C
07FFE000
00FF0000
ENDCHAR
STARTCHAR 016A
ENCODING 362
SWIDTH 722 0
DWIDTH 52 0
BBX 40 64 6 -1
BITMAP
003FFFF800
003FFFF800
003FFFF800
003FFFF800
003FFFF800
0000000000
0000000000
0000000000
0000000000
0000000000
FE0000007F
FE0000007F
FE0000007F
FE0000007F
FE0000007F
FE0000007F
FE0000007F
FE0000007F
FE0000007F
FE0000007F
FE0000007F
FE0000007F
FE0000007F
FE0000007F
FE0000007F
FE0000007F
FE0000007F
FE0000007F
FE0000007F
FE0000007F
FE0000007F
FE0000007F
FE0000007F
FE0000007F
FE0000007F
FE0000007F
FE0000007F
FE0000007F
FE0000007F
FE0000007F
FE0000007F
FE0000007F
FE0000007F
FE0000007F
FE0000007F
FE0000007F
FE0000007F
FE0000007F
FE0000007F
FE0000007F
FE000000FF
7F000000FE
7F000000FE
7F800001FE
3FC00003FC
3FE00007FC
1FF8001FF8
1FFE00FFF0
0FFFFFFFE0
07FFFFFFC0
01FFFFFF80
00FFFFFE00
001FFFF800
0003FF8000
ENDCHAR
STARTCHAR 016B
ENCODING 363
SWIDTH 541 0
DWIDTH 39 0
BBX 30 51 4 -2
BITMAP
03FFFF80
03FFFF80
03FFFF80
03FFFF80
03FFFF80
00000000
00000000
00000000
00000000
00000000
00000000
FC0000FC
FC0000FC
FC0000FC
FC0000FC
FC0000FC
FC0000FC
FC0000FC
FC0000FC
FC0000FC
FC0000FC
FC0000FC
FC0000FC
FC0000FC
FC0000FC
FC0000FC
FC0000FC
FC0000FC
FC0000FC
FC0000FC
FC0000FC
FC0000FC
FC0000FC
FC0000FC
FC0000FC
FC0000FC
FC0000FC
FC0001FC
FC0001FC
FC0001FC
FC0003FC
FE0003FC
FE0007FC
FF000FFC
7F801FFC
7FE07F7C
3FFFFE7C
1FFFFC7C
0FFFF87C
07FFE000
00FF0000
ENDCHAR
STARTCHAR 016C
ENCODING 364
SWIDTH 722 0
DWIDTH 52 0
BBX 40 66 6 -1
BITMAP
007C001E00
003C001E00
003E003E00
003F80FE00
001FFFFC00
001FFFF800
000FFFF000
0003FFE000
00007F0000
0000000000
0000000000
0000000000
FE0000007F
FE0000007F
FE0000007F
FE0000007F
FE0000007F
FE0000007F
FE0000007F
FE0000007F
FE0000007F
FE0000007F
FE0000007F
FE0000007F
FE0000007F
FE0000007F
FE0000007F
FE0000007F
FE0000007F
FE0000007F
FE0000007F
FE0000007F
FE0000007F
FE0000007F
FE0000007F
FE0000007F
FE0000007F
FE0000007F
FE0000007F
FE0000007F
FE0000007F
FE0000007F
FE0000007F
FE0000007F
FE0000007F
FE0000007F
FE0000007F
FE0000007F
FE0000007F
FE0000007F
FE0000007F
FE0000007F
FE000000FF
7F000000FE
7F000000FE
7F800001FE
3FC00003FC
3FE00007FC
1FF8001FF8
1FFE00FFF0
0FFFFFFFE0
07FFFFFFC0
01FFFFFF80
00FFFFFE00
001FFFF800
0003FF8000
ENDCHAR
STARTCHAR 016D
ENCODING 365
SWIDTH 541 0
DWIDTH 39 0
BBX 30 54 4 -2
BITMAP
078001E0
078003E0
07C003C0
07E00FC0
03FFFFC0
03FFFF80
01FFFF00
00FFFE00
003FF800
00000000
00000000
00000000
00000000
00000000
FC0000FC
FC0000FC
FC0000FC
FC0000FC
FC0000FC
FC0000FC
FC0000FC
FC0000FC
FC0000FC
FC0000FC
FC0000FC
FC0000FC
FC0000FC
FC0000FC
FC0000FC
FC0000FC
FC0000FC
FC0000FC
FC0000FC
FC0000FC
FC0000FC
FC0000FC
FC0000FC
FC0000FC
FC0000FC
FC0000FC
FC0001FC
FC0001FC
FC0001FC
FC0003FC
FE0003FC
FE0007FC
FF000FFC
7F801FFC
7FE07F7C
3FFFFE7C
1FFFFC7C
0FFFF87C
07FFE000
00FF0000
ENDCHAR
STARTCHAR 016E
ENCODING 366
SWIDTH 722 0
DWIDTH 52 0
BBX 40 71 6 -2
BITMAP
00007C0000
0001FF0000
0003FF8000
0007FFC000
0007C7E000
000781E000
000F01E000
000F01E000
000F01E000
000F81E000
0007C3E000
0007FFC000
0003FFC000
0001FF8000
00007E0000
0000000000
0000000000
FE0000007F
FE0000007F
FE0000007F
FE0000007F
FE0000007F
FE0000007F
FE0000007F
FE0000007F
FE0000007F
FE0000007F
FE0000007F
FE0000007F
FE0000007F
FE0000007F
FE0000007F
FE0000007F
FE0000007F
FE0000007F
FE0000007F
FE0000007F
FE0000007F
FE0000007F
FE0000007F
FE0000007F
FE0000007F
FE0000007F
FE0000007F
FE0000007F
FE0000007F
FE0000007F
FE0000007F
FE0000007F
FE0000007F
FE0000007F
FE0000007F
FE0000007F
FE0000007F
FE0000007F
FE0000007F
FE0000007F
FE000000FF
7F000000FE
7F000000FE
7F800001FE
3FC00003FC
3FE00007FC
1FF8001FF8
1FFE00FFF0
0FFFFFFFE0
07FFFFFFC0
01FFFFFF80
00FFFFFE00
001FFFF800
0003FF8000
ENDCHAR
STARTCHAR 016F
ENCODING 367
SWIDTH 541 0
DWIDTH 39 0
BBX 30 57 4 -2
BITMAP
000FC000
001FF000
003FF800
007FF800
00F87C00
00F03C00
00F03E00
00F01E00
00F03E00
00F03C00
00F87C00
007FFC00
007FF800
003FF000
000FC000
00000000
00000000
FC0000FC
FC0000FC
FC0000FC
FC0000FC
FC0000FC
FC0000FC
FC0000FC
FC0000FC
FC0000FC
FC0000FC
FC0000FC
FC0000FC
FC0000FC
FC0000FC
FC0000FC
FC0000FC
FC0000FC
FC0000FC
FC0000FC
FC0000FC
FC0000FC
FC0000FC
FC0000FC
FC0000FC
FC0000FC
FC0000FC
FC0001FC
FC0001FC
FC0001FC
FC0003FC
FE0003FC
FE0007FC
FF000FFC
7F801FFC
7FE07F7C
3FFFFE7C
1FFFFC7C
0FFFF87C
07FFE000
00FF0000
ENDCHAR
STARTCHAR 0170
ENCODING 368
SWIDTH 722 0
DWIDTH 52 0
BBX 40 67 6 -2
BITMAP
0003FE3FC0
0003FC7F80
0007F87F00
0007F0FE00
0007E0FC00
000FE1F800
000FC1F000
000F83E000
001F07C000
0000000000
0000000000
0000000000
0000000000
FE0000007F
FE0000007F
FE0000007F
FE0000007F
FE0000007F
FE0000007F
FE0000007F
FE0000007F
FE0000007F
FE0000007F
FE0000007F
FE0000007F
FE0000007F
FE0000007F
FE0000007F
FE0000007F
FE0000007F
FE0000007F
FE0000007F
FE0000007F
FE0000007F
FE0000007F
FE0000007F
FE0000007F
FE0000007F
FE0000007F
FE0000007F
FE0000007F
FE0000007F
FE0000007F
FE0000007F
FE0000007F
FE0000007F
FE0000007F
FE0000007F
FE0000007F
FE0000007F
FE0000007F
FE0000007F
FE0000007F
FE000000FF
7F000000FE
7F000000FE
7F800001FE
3FC00003FC
3FE00007FC
1FF8001FF8
1FFE00FFF0
0FFFFFFFE0
07FFFFFFC0
01FFFFFF80
00FFFFFE00
001FFFF800
0003FF8000
ENDCHAR
STARTCHAR 0171
ENCODING 369
SWIDTH 541 0
DWIDTH 39 0
BBX 30 54 4 -1
BITMAP
007F87F8
007F0FF0
00FE0FE0
00FE1FC0
00FC1F80
01F83F80
01F83F00
01F07E00
03E07C00
03E0F800
03C0F000
00000000
00000000
00000000
FC0000FC
FC0000FC
FC0000FC
FC0000FC
FC0000FC
FC0000FC
FC0000FC
FC0000FC
FC0000FC
FC0000FC
FC0000FC
FC0000FC
FC0000FC
FC0000FC
FC0000FC
FC0000FC
FC0000FC
FC0000FC
FC0000FC
FC0000FC
FC0000FC
FC0000FC
FC0000FC
FC0000FC
FC0000FC
FC0000FC
FC0001FC
FC0001FC
FC0001FC
FC0003FC
FE0003FC
FE0007FC
FF000FFC
7F801FFC
7FE07F7C
3FFFFE7C
1FFFFC7C
0FFFF87C
07FFE000
00FF0000
ENDCHAR
STARTCHAR 0172
ENCODING 370
SWIDTH 722 0
DWIDTH 52 0
BBX 40 67 6 -15
BITMAP
FE0000007F
FE0000007F
FE0000007F
FE0000007F
FE0000007F
FE0000007F
FE0000007F
FE0000007F
FE0000007F
FE0000007F
FE0000007F
FE0000007F
FE0000007F
FE0000007F
FE0000007F
FE0000007F
FE0000007F
FE0000007F
FE0000007F
FE0000007F
FE0000007F
FE0000007F
FE0000007F
FE0000007F
FE0000007F
FE0000007F
FE0000007F
FE0000007F
FE0000007F
FE0000007F
FE0000007F
FE0000007F
FE0000007F
FE0000007F
FE0000007F
FE0000007F
FE0000007F
FE0000007F
FE0000007F
FE0000007F
FE000000FF
7F000000FE
7F000000FE
7F800001FE
3FC00003FC
3FE00007FC
1FF8001FF8
1FFE00FFF0
0FFFFFFFF0
07FFFFFFE0
01FFFFFFC0
00FFFFFF80
001FFFFF00
0003FFBE00
0000007C00
000000F800
000001F000
000001F000
000003E000
000003E000
000003E000
000003E000
000003F000
000001F808
000000FFF8
0000007FF8
0000001FF0
ENDCHAR
STARTCHAR 0173
ENCODING 371
SWIDTH 541 0
DWIDTH 39 0
BBX 33 53 4 -15
BITMAP
FC0000FC00
FC0000FC00
FC0000FC00
FC0000FC00
FC0000FC00
FC0000FC00
FC0000FC00
FC0000FC00
FC0000FC00
FC0000FC00
FC0000FC00
FC0000FC00
FC0000FC00
FC0000FC00
FC0000FC00
FC0000FC00
FC0000FC00
FC0000FC00
FC0000FC00
FC0000FC00
FC0000FC00
FC0000FC00
FC0000FC00
FC0000FC00
FC0000FC00
FC0000FC00
FC0001FC00
FC0001FC00
FC0001FC00
FC0003FC00
FC0003FC00
FE0007FC00
FF000FFC00
7F801FFC00
7FC07F7C00
3FFFFE7C00
1FFFFC7C00
0FFFF87C00
07FFE07800
00FF01F000
000003E000
000007C000
00000F8000
00000F8000
00001F0000
00001F0000
00001F0000
00001F0000
00001F8000
00000FC080
000007FF80
000003FF80
0000007F00
ENDCHAR
STARTCHAR 0174
ENCODING 372
SWIDTH 930 0
DWIDTH 67 0
BBX 65 65 1 0
BITMAP
0000000FF000000000
0000000FF000000000
0000001FF800000000
0000003FFC00000000
0000007FFE00000000
0000007E7E00000000
000000FC3F00000000
000001F00F80000000
000003E007C0000000
000000000000000000
000000000000000000
000000000000000000
000000000000000000
FF000007F800003F80
7F000007F800003F80
7F00000FF800007F80
7F00000FF800007F00
7F80000FFC00007F00
3F80000FFC00007F00
3F80001FFC0000FF00
3F80001FFC0000FE00
3FC0001FFE0000FE00
1FC0003FFE0000FE00
1FC0003F7E0001FE00
1FC0003F7F0001FC00
1FE0003F3F0001FC00
0FE0007F3F0001FC00
0FE0007E3F0001FC00
0FE0007E3F8003F800
0FF0007E1F8003F800
07F000FE1F8003F800
07F000FC1FC003F800
07F000FC0FC007F000
03F001FC0FC007F000
03F801F80FC007F000
03F801F80FE007F000
03F801F807E00FE000
01F803F807E00FE000
01FC03F007F00FE000
01FC03F003F00FE000
01FC03F003F00FC000
00FC07F003F01FC000
00FE07E003F81FC000
00FE07E001F81FC000
00FE0FE001F81F8000
007E0FC001FC3F8000
007F0FC000FC3F8000
007F0FC000FC3F8000
007F1FC000FC3F0000
003F1F8000FE3F0000
003F1F80007E7F0000
003F9F80007E7F0000
003FBF80007E7E0000
001FBF00007F7E0000
001FBF00003FFE0000
001FFF00003FFE0000
001FFE00003FFC0000
000FFE00001FFC0000
000FFE00001FFC0000
000FFE00001FF80000
0007FC00001FF80000
0007FC00000FF80000
0007FC00000FF80000
0007FC00000FF00000
0003F8000007F00000
ENDCHAR
STARTCHAR 0175
ENCODING 373
SWIDTH 722 0
DWIDTH 52 0
BBX 50 52 1 0
BITMAP
000007E0000000
00000FF0000000
00001FF8000000
00001FF8000000
00003FFC000000
00003E7C000000
00007C3E000000
0000FC3F000000
0000F81F000000
0001F00F800000
0001E007800000
00000000000000
00000000000000
00000000000000
FC0007F8001FC0
FE0007F8001FC0
FE0007F8001FC0
7E000FFC001F80
7E000FFC003F80
7F000FFC003F80
3F000FFC003F80
3F001FFE003F00
3F001FFE007F00
3F801F7E007F00
1F801F7E007E00
1F803F3F007E00
1FC03F3F00FE00
0FC03E3F00FC00
0FC03E3F00FC00
0FC07E1F80FC00
0FE07E1F81FC00
07E07C1F81F800
07E07C1F81F800
07E0FC0FC1F800
03F0FC0FC3F000
03F0F80FC3F000
03F0F80FC3F000
03F1F807E3F000
01F9F807E7E000
01F9F007E7E000
01F9F007E7E000
00FBF003F7C000
00FFF003FFC000
00FFF003FFC000
00FFE003FFC000
007FE001FF8000
007FE001FF8000
007FE001FF8000
003FC001FF0000
003FC000FF0000
003FC000FF0000
003FC000FE0000
ENDCHAR
STARTCHAR 0176
ENCODING 374
SWIDTH 680 0
DWIDTH 49 0
BBX 46 65 1 0
BITMAP
00003FC00000
00003FC00000
00007FE00000
0000FFF00000
0001FFF80000
0001F9F80000
0003F0FC0000
0007C03E0000
000F801F0000
000000000000
000000000000
000000000000
000000000000
FF00000003FC
7F80000003FC
7FC0000007F8
3FC0000007F8
1FE000000FF0
1FE000001FE0
0FF000001FE0
07F800003FC0
07F800003F80
03FC00007F80
01FC0000FF00
01FE0000FF00
00FF0001FE00
00FF0001FC00
007F8003FC00
003FC007F800
003FC007F000
001FE00FF000
000FE00FE000
000FF01FE000
0007F83FC000
0003F83F8000
0003FC7F8000
0001FC7F0000
0001FEFE0000
0000FFFE0000
00007FFC0000
00007FFC0000
00003FF80000
00001FF00000
00001FF00000
00000FE00000
00000FE00000
00000FE00000
00000FE00000
00000FE00000
00000FE00000
00000FE00000
00000FE00000
00000FE00000
00000FE00000
00000FE00000
00000FE00000
00000FE00000
00000FE00000
00000FE00000
00000FE00000
00000FE00000
00000FE00000
00000FE00000
00000FE00000
00000FE00000
ENDCHAR
STARTCHAR 0177
ENCODING 375
SWIDTH 472 0
DWIDTH 34 0
BBX 33 67 1 -15
BITMAP
000FF00000
000FF80000
001FF80000
003FFC0000
003E7C0000
007E3E0000
007C1F0000
00F81F0000
01F00F8000
01F007C000
03E003C000
0000000000
0000000000
FC00003F80
FE00003F00
7E00007F00
7E00007F00
7F00007E00
3F0000FE00
3F0000FC00
3F8000FC00
1F8001FC00
1F8001F800
1FC001F800
0FC003F800
0FC003F000
0FE007F000
07E007F000
07E007E000
07F00FE000
03F00FC000
03F00FC000
03F01FC000
01F81F8000
01F81F8000
01F83F8000
00FC3F0000
00FC3F0000
00FC7F0000
007E7E0000
007E7E0000
007EFC0000
003FFC0000
003FFC0000
003FF80000
001FF80000
001FF80000
001FF00000
000FF00000
000FF00000
000FE00000
000FE00000
000FC00000
000FC00000
001FC00000
001F800000
003F800000
003F800000
003F000000
007F000000
00FE000000
3FFE000000
3FFC000000
3FFC000000
3FF8000000
3FE0000000
1F80000000
ENDCHAR
ENDFONT
